SplineFontDB: 3.2
FontName: RoutedGothicWide-Italic
FullName: Routed Gothic Wide Italic
FamilyName: Routed Gothic Wide
Weight: Regular

StartChar: exclam
Encoding: 33 33 0
Width: 360
Flags: HW
LayerCount: 2
Back
SplineSet
85.7890625 72 m 0
 75.3056640625 59.068359375 54.0859375 48 37.451171875 48 c 0
 27.451171875 48 20.765625 56 24.0791015625 64 c 0
 25.1943359375 66.6923828125 26.8759765625 69.3837890625 28.99609375 72 c 1024
28.99609375 72 m 0
 39.4794921875 84.931640625 60.69921875 96 77.333984375 96 c 0
 87.333984375 96 94.0205078125 88 90.7060546875 80 c 0
 89.5908203125 77.3076171875 87.91015625 74.6162109375 85.7890625 72 c 1024
312.548828125 688 m 1
 146.86328125 288 l 1025
EndSplineSet
Fore
SplineSet
157.509301559 44.4619571542 m 0
 138.69538237 20.6309928481 113.34731813 3.24940793489 88.8394706223 -7.89052275045 c 0
 68.4280867027 -16.9622489369 44.4285146656 -24 18 -24 c 0
 -10.089035046 -24 -30.8826477508 -13.5485653205 -44.0449403098 -1.8487497125 c 0
 -56.3086306951 9.30005972864 -64.1172736758 25.5344675811 -64.1172736758 44.2879336865 c 0
 -64.1172736758 53.4477653678 -62.2543826195 63.2085633247 -58.13782393 73.2712623435 c 0
 -54.5313360975 81.6864006194 -49.1586686939 91.0420633728 -42.5093015589 99.5380428458 c 0
 -23.6953823698 123.369007152 1.65268187 140.750592065 26.1605293777 151.89052275 c 0
 46.5719132973 160.962248937 70.5714853344 168 97 168 c 0
 131.75897689 168 155.730222238 152.671281949 167.817944723 134.539698221 c 0
 174.555534094 124.914570548 178.715796923 112.68315089 178.715796923 98.9077200282 c 0
 178.715796923 90.1157020433 177.021117636 80.6947324964 173.220217631 70.9209896252 c 0
 169.428318949 62.0732260347 164.237022193 53.0580498717 157.509301559 44.4619571542 c 0
-3.87146926665 70.9932140958 m 0
 -7.50837750275 66.6289242125 -11.7924847777 59.5580173384 -13.86217607 54.7287376565 c 0
 -19.2610983734 41.531372026 -15.95578209 37.6226920039 -11.9521404246 33.8450871628 c 0
 -7.03946100814 29.591330945 2.02964942518 24 18 24 c 0
 35.5714853344 24 53.5719132973 28.9622489369 69.1605293777 35.8905227505 c 0
 88.4781479302 44.6712584561 105.766566042 56.9929269731 119.120560959 73.3111696269 c 0
 122.76112573 77.6798473517 126.265816683 83.3808172381 128.784698338 89.0911049823 c 0
 132.854745777 100.124148268 131.233866916 103.100570866 128.182055277 107.460301779 c 0
 124.269777762 113.328718051 118.24102311 120 97 120 c 0
 79.4285146656 120 61.4280867027 115.037751063 45.8394706223 108.10947725 c 0
 26.9046602974 99.5027452837 8.42868248991 86.02368717 -3.87146926665 70.9932140958 c 0
230.86466161 697.275429465 m 2
 246.55212735 734.354893941 289.78594587 760 332 760 c 0
 343.243245511 760 353.915716246 758.08621367 363.56310456 754.12724939 c 0
 385.462545432 745.14045407 399.943162254 724.81393706 399.943162254 701.741145764 c 0
 399.943162254 694.260029858 398.420794582 686.490194263 395.13533839 678.724570535 c 2
 229.13533839 278.724570535 l 2
 213.303629241 241.304167093 168.999688891 216 127 216 c 0
 115.642246518 216 104.878851406 217.952472271 95.1795009745 222.049266553 c 0
 73.4798319079 231.214733951 60.0005983239 251.409950266 60.0005983239 273.909861259 c 0
 60.0005983239 281.546599835 61.5534123559 289.448840318 64.8646616102 297.275429465 c 2
 230.86466161 697.275429465 l 2
275.13533839 678.724570535 m 2
 109.13533839 278.724570535 l 2
 105.931596122 271.152088812 107.068671734 269.133598312 113.856012444 266.266773486 c 0
 116.780653803 265.031468701 121.170253482 264 127 264 c 0
 151.000311109 264 178.696370759 282.695832907 184.86466161 297.275429465 c 2
 350.86466161 697.275429465 l 2
 353.776303154 704.157491297 353.038868614 706.561603658 345.340217878 709.720871459 c 0
 342.244980959 710.991052777 337.767063767 712 332 712 c 0
 308.21405413 712 281.44787265 693.645106059 275.13533839 678.724570535 c 2
EndSplineSet
EndChar

StartChar: quotedbl
Encoding: 34 34 1
Width: 480
Flags: HW
LayerCount: 2
Back
SplineSet
472.548828125 688 m 1
 386.391601562 480 l 1025
272.548828125 688 m 1
 186.391601562 480 l 1025
EndSplineSet
Fore
SplineSet
190.877686655 697.306215933 m 2
 206.540778388 734.328069122 249.790124336 760 292 760 c 0
 303.243245511 760 313.915716246 758.08621367 323.56310456 754.12724939 c 0
 345.457358408 745.14258265 359.940914845 724.834327487 359.940914845 701.752130524 c 0
 359.940914845 694.260777537 358.41531213 686.477235739 355.122313345 678.693784067 c 2
 268.122313345 470.693784067 l 2
 252.459221612 433.671930878 209.209875664 408 167 408 c 0
 155.756754489 408 145.084283754 409.91378633 135.43689544 413.87275061 c 0
 113.542641592 422.85741735 99.0590851545 443.165672512 99.0590851545 466.247869476 c 0
 99.0590851545 473.739222463 100.58468787 481.522764261 103.877686655 489.306215933 c 2
 190.877686655 697.306215933 l 2
235.122313345 678.693784067 m 2
 148.141228102 470.739005554 l 2
 145.219764225 463.833727299 145.9613481 461.43830741 153.659782122 458.279128541 c 0
 156.755019041 457.008947223 161.232936233 456 167 456 c 0
 190.796251443 456 217.524136798 474.288734455 223.896785974 489.35135978 c 2
 310.858771898 697.260994446 l 2
 313.780235775 704.166272701 313.0386519 706.56169259 305.340217878 709.720871459 c 0
 302.244980959 710.991052777 297.767063767 712 292 712 c 0
 268.203748557 712 241.494962521 693.756409391 235.122313345 678.693784067 c 2
390.877686655 697.306215933 m 2
 406.540778388 734.328069122 449.790124336 760 492 760 c 0
 503.243245511 760 513.915716246 758.08621367 523.56310456 754.12724939 c 0
 545.457358408 745.14258265 559.940914845 724.834327487 559.940914845 701.752130524 c 0
 559.940914845 694.260777537 558.41531213 686.477235739 555.122313345 678.693784067 c 2
 468.122313345 470.693784067 l 2
 452.459221612 433.671930878 409.209875664 408 367 408 c 0
 355.756754489 408 345.084283754 409.91378633 335.43689544 413.87275061 c 0
 313.542641592 422.85741735 299.059085155 443.165672513 299.059085155 466.247869476 c 0
 299.059085155 473.739222463 300.58468787 481.522764261 303.877686655 489.306215933 c 2
 390.877686655 697.306215933 l 2
435.122313345 678.693784067 m 2
 348.141228102 470.739005554 l 2
 345.219764225 463.833727299 345.9613481 461.43830741 353.659782122 458.279128541 c 0
 356.755019041 457.008947223 361.232936233 456 367 456 c 0
 390.796251443 456 417.524136798 474.288734455 423.896785974 489.35135978 c 2
 510.858771898 697.260994446 l 2
 513.780235775 704.166272701 513.0386519 706.56169259 505.340217878 709.720871459 c 0
 502.244980959 710.991052777 497.767063767 712 492 712 c 0
 468.203748557 712 441.494962521 693.756409391 435.122313345 678.693784067 c 2
EndSplineSet
EndChar

StartChar: numbersign
Encoding: 35 35 2
Width: 840
Flags: HW
LayerCount: 2
Back
SplineSet
287.451171875 48 m 1
 772.548828125 688 l 1025
67.451171875 48 m 1
 552.548828125 688 l 1025
173.13671875 448 m 1
 733.13671875 448 l 1025
106.86328125 288 m 1
 666.86328125 288 l 1025
EndSplineSet
Fore
SplineSet
408 376 m 1
 396 360 l 1
 432 360 l 1
 444 376 l 1
 408 376 l 1
376.8 414.4 m 2
 380.58973346 419.452977947 388.228692739 424 396 424 c 2
 492 424 l 2
 495.122352677 424 500.984121554 422.720637355 504.849235843 420.270597876 c 0
 512.018426697 415.726152534 515.90326604 407.826708893 515.90326604 399.850497988 c 0
 515.90326604 394.863216704 514.384441757 389.845922343 511.2 385.6 c 2
 463.2 321.6 l 2
 459.41026654 316.547022053 451.771307261 312 444 312 c 2
 348 312 l 2
 344.877647323 312 339.015878446 313.279362645 335.150764157 315.729402124 c 0
 327.981573303 320.273847466 324.09673396 328.173291107 324.09673396 336.149502012 c 0
 324.09673396 341.136783296 325.615558243 346.154077657 328.8 350.4 c 2
 376.8 414.4 l 2
205.533747416 58.733126292 m 0
 208.25318395 64.1719993594 211.611419324 69.815225766 215.844839423 75.4597858972 c 2
 322.623996507 216 l 1
 286.941691183 216 l 1
 139.171984542 20.5626460558 l 2
 119.232319233 -6.02357435573 83.9941697565 -24 48 -24 c 0
 36.7567544889 -24 26.0842837539 -22.0862136702 16.4368954398 -18.1272493904 c 0
 -5.44976600875 -9.14569831593 -19.9376280227 11.1358187684 -19.9376280227 34.2317654684 c 0
 -19.9376280227 41.7381136105 -18.4072801304 49.5417489871 -15.1032140256 57.3513597801 c 0
 -14.9147836121 57.7967407575 -14.6267096055 58.4122122491 -14.466252584 58.733126292 c 0
 -11.7468160503 64.1719993594 -8.3885806755 69.815225766 -4.15516057712 75.4597858972 c 2
 102.623996507 216 l 1
 87 216 l 2
 75.6422465175 216 64.8788514058 217.952472271 55.1795009745 222.049266553 c 0
 33.4927711141 231.209268713 20.0052926178 251.35898196 20.0052926178 273.880690419 c 0
 20.0052926178 281.542817837 21.566378659 289.479487944 24.8967859744 297.35135978 c 0
 40.6683792562 334.629671174 85.0106333632 360 127 360 c 2
 212 360 l 1
 224 376 l 1
 153 376 l 2
 141.642246518 376 130.878851406 377.952472271 121.179500974 382.049266553 c 0
 99.4927711141 391.209268713 86.0052926178 411.35898196 86.0052926178 433.880690419 c 0
 86.0052926178 441.542817837 87.566378659 449.479487944 90.8967859744 457.35135978 c 0
 106.668379256 494.629671174 151.010633363 520 193 520 c 2
 333.058308817 520 l 1
 480.828015458 715.437353944 l 2
 500.767680767 742.023574356 536.005830244 760 572 760 c 0
 583.243245511 760 593.915716246 758.08621367 603.56310456 754.12724939 c 0
 625.449766009 745.145698316 639.937628023 724.864181232 639.937628023 701.768234532 c 0
 639.937628023 694.261886389 638.40728013 686.458251013 635.103214026 678.64864022 c 0
 634.914783612 678.203259243 634.626709605 677.587787751 634.466252584 677.266873708 c 0
 631.74681605 671.828000641 628.388580676 666.184774234 624.155160577 660.540214103 c 2
 517.376003493 520 l 1
 553.058308817 520 l 1
 700.828015458 715.437353944 l 2
 720.767680767 742.023574356 756.005830244 760 792 760 c 0
 803.243245511 760 813.915716246 758.08621367 823.56310456 754.12724939 c 0
 845.449766009 745.145698316 859.937628023 724.864181232 859.937628023 701.768234532 c 0
 859.937628023 694.261886389 858.40728013 686.458251013 855.103214026 678.64864022 c 0
 854.914783612 678.203259243 854.626709605 677.587787751 854.466252584 677.266873708 c 0
 851.74681605 671.828000641 848.388580676 666.184774234 844.155160577 660.540214103 c 2
 737.376003493 520 l 1
 753 520 l 2
 764.357753482 520 775.121148594 518.047527729 784.820499026 513.950733447 c 0
 806.507228886 504.790731287 819.994707382 484.64101804 819.994707382 462.119309581 c 0
 819.994707382 454.457182163 818.433621341 446.520512056 815.103214026 438.64864022 c 0
 799.331620744 401.370328826 754.989366637 376 713 376 c 2
 628 376 l 1
 616 360 l 1
 687 360 l 2
 698.357753482 360 709.121148594 358.047527729 718.820499026 353.950733447 c 0
 740.507228886 344.790731287 753.994707382 324.64101804 753.994707382 302.119309581 c 0
 753.994707382 294.457182163 752.433621341 286.520512056 749.103214026 278.64864022 c 0
 733.331620744 241.370328826 688.989366637 216 647 216 c 2
 506.941691183 216 l 1
 359.171984542 20.5626460558 l 2
 339.232319233 -6.02357435573 303.994169756 -24 268 -24 c 0
 256.756754489 -24 246.084283754 -22.0862136702 236.43689544 -18.1272493904 c 0
 214.550233991 -9.14569831593 200.062371977 11.1358187684 200.062371977 34.2317654684 c 0
 200.062371977 41.7381136105 201.59271987 49.5417489871 204.896785974 57.3513597801 c 0
 205.085216388 57.7967407575 205.373290395 58.4122122491 205.533747416 58.733126292 c 0
248.845956573 38.0129885459 m 0
 246.580894665 32.0250128004 246.760740602 29.1866556382 255.428885041 25.9793354564 c 0
 258.476838007 24.8515553265 262.697113651 24 268 24 c 0
 287.995419732 24 310.794007461 36.0586766144 320.8 49.4 c 2
 475.856176049 254.474598597 l 2
 479.622047589 259.455267408 487.254428301 264 495 264 c 2
 647 264 l 2
 671.010633363 264 698.668379256 282.629671174 704.896785974 297.35135978 c 0
 708.047964371 304.799599626 706.931335659 306.866398566 700.143987556 309.733226514 c 0
 697.219346197 310.968531299 692.829746518 312 687 312 c 2
 568 312 l 2
 564.877647323 312 559.015878446 313.279362645 555.150764157 315.729402124 c 0
 547.981573303 320.273847466 544.09673396 328.173291107 544.09673396 336.149502012 c 0
 544.09673396 341.136783296 545.615558243 346.154077657 548.8 350.4 c 2
 596.8 414.4 l 2
 600.58973346 419.452977947 608.228692739 424 616 424 c 2
 713 424 l 2
 737.010633363 424 764.668379256 442.629671174 770.896785974 457.35135978 c 0
 774.047964371 464.799599626 772.931335659 466.866398566 766.143987556 469.733226514 c 0
 763.219346197 470.968531299 758.829746518 472 753 472 c 2
 689 472 l 2
 685.461804836 472 679.910886752 473.312405629 676.024775398 475.80981559 c 0
 668.929693896 480.369470628 665.09765208 488.221089755 665.09765208 496.145333017 c 0
 665.09765208 501.183019448 666.646386334 506.250057199 669.890050301 510.519291391 c 2
 805.844839423 689.459785897 l 2
 807.515065873 691.686754498 809.347101825 694.587390101 811.154043427 697.987011454 c 0
 813.419105335 703.9749872 813.239259398 706.813344362 804.571114959 710.020664544 c 0
 801.523161993 711.148444674 797.302886349 712 792 712 c 0
 772.004580268 712 749.205992539 699.941323386 739.2 686.6 c 2
 584.143823951 481.525401403 l 2
 580.377952411 476.544732592 572.745571699 472 565 472 c 2
 469 472 l 2
 465.461804836 472 459.910886752 473.312405629 456.024775398 475.80981559 c 0
 448.929693896 480.369470628 445.09765208 488.221089755 445.09765208 496.145333017 c 0
 445.09765208 501.183019448 446.646386334 506.250057199 449.890050301 510.519291391 c 2
 585.844839423 689.459785897 l 2
 587.515065873 691.686754498 589.347101825 694.587390101 591.154043427 697.987011454 c 0
 593.419105335 703.9749872 593.239259398 706.813344362 584.571114959 710.020664544 c 0
 581.523161993 711.148444674 577.302886349 712 572 712 c 0
 552.004580268 712 529.205992539 699.941323386 519.2 686.6 c 2
 364.143823951 481.525401403 l 2
 360.377952411 476.544732592 352.745571699 472 345 472 c 2
 193 472 l 2
 168.989366637 472 141.331620744 453.370328826 135.103214026 438.64864022 c 0
 131.952035629 431.200400374 133.068664341 429.133601434 139.856012444 426.266773486 c 0
 142.780653803 425.031468701 147.170253482 424 153 424 c 2
 272 424 l 2
 275.122352677 424 280.984121554 422.720637355 284.849235843 420.270597876 c 0
 292.018426697 415.726152534 295.90326604 407.826708893 295.90326604 399.850497988 c 0
 295.90326604 394.863216704 294.384441757 389.845922343 291.2 385.6 c 2
 243.2 321.6 l 2
 239.41026654 316.547022053 231.771307261 312 224 312 c 2
 127 312 l 2
 102.989366637 312 75.3316207438 293.370328826 69.1032140256 278.64864022 c 0
 65.9520356294 271.200400374 67.0686643415 269.133601434 73.8560124442 266.266773486 c 0
 76.7806538026 265.031468701 81.1702534825 264 87 264 c 2
 151 264 l 2
 154.538195164 264 160.089113248 262.687594371 163.975224602 260.19018441 c 0
 171.070306104 255.630529372 174.90234792 247.778910245 174.90234792 239.854666983 c 0
 174.90234792 234.816980552 173.353613666 229.749942801 170.109949699 225.480708609 c 2
 34.1551605771 46.5402141028 l 2
 32.4849341268 44.3132455024 30.6528981749 41.4126098989 28.8459565734 38.0129885459 c 0
 26.5808946646 32.0250128004 26.7607406019 29.1866556382 35.4288850407 25.9793354564 c 0
 38.4768380069 24.8515553265 42.697113651 24 48 24 c 0
 67.9954197322 24 90.7940074608 36.0586766144 100.8 49.4 c 2
 255.856176049 254.474598597 l 2
 259.622047589 259.455267408 267.254428301 264 275 264 c 2
 371 264 l 2
 374.538195164 264 380.089113248 262.687594371 383.975224602 260.19018441 c 0
 391.070306104 255.630529372 394.90234792 247.778910245 394.90234792 239.854666983 c 0
 394.90234792 234.816980552 393.353613666 229.749942801 390.109949699 225.480708609 c 2
 254.155160577 46.5402141028 l 2
 252.484934127 44.3132455024 250.652898175 41.4126098989 248.845956573 38.0129885459 c 0
EndSplineSet
EndChar

StartChar: dollar
Encoding: 36 36 3
Width: 630
Flags: HW
LayerCount: 2
Back
SplineSet
549.587890625 536 m 0
 549.587890625 536 517.784179688 592 407.784179688 592 c 0
 314.034179688 592 223.315429688 545 201.362304688 492 c 0
 184.139648438 450.420898438 189.432617188 390.134765625 319.970703125 380 c 0
 463.103515625 368.887695312 468.53125 316.170898438 446.921875 264 c 0
 420.412109375 200 336.590820312 144 222.215820312 144 c 0
 117.215820312 144 77.0390625 216 77.0390625 216 c 1024
452.548828125 688 m 1
 187.451171875 48 l 1025
EndSplineSet
Fore
SplineSet
319.426962598 179.528099738 m 0
 315.276734819 177.971764321 308.842217251 177.478100379 303.631313784 179.159193021 c 0
 293.49699523 182.428631509 287.04614168 192.103657294 287.04614168 202.21420629 c 0
 287.04614168 205.202128073 287.609527815 208.228086332 288.807725637 211.137995326 c 2
 337.807725637 330.137995326 l 2
 341.422609407 338.916998767 350.558777501 344.958300322 360.26395057 344.958300322 c 0
 362.518641894 344.958300322 364.804043491 344.632239865 367.058060372 343.938696209 c 0
 383.305102941 338.939606188 394.493677217 331.207876603 401.217123222 324.710601565 c 0
 412.506565901 313.98335186 416.777082843 301.423280505 416.777082843 288.380102198 c 0
 416.777082843 277.297129567 413.693709538 265.865346921 409.213126949 254.912811703 c 0
 397.380677283 225.989045854 373.321946297 204.328157418 343.733126292 189.533747416 c 0
 343.436053138 189.385210839 342.865855159 189.117001562 342.454063166 188.94051928 c 0
 335.461069705 185.943522082 328.047671897 182.760865725 319.426962598 179.528099738 c 0
322.40669293 559.076574743 m 0
 325.568265837 559.979881288 331.806765168 560.315145896 336.380525974 558.836983959 c 0
 346.509031669 555.563622665 352.95374725 545.891786681 352.95374725 535.785698693 c 0
 352.95374725 532.793773882 352.388889676 529.763788349 351.187534215 526.850501355 c 2
 311.187534215 429.850501355 l 2
 307.840226674 421.733280568 298.573454542 415.092499376 288.499574259 415.092499376 c 0
 285.792030147 415.092499376 283.026183257 415.572207068 280.301289732 416.631887883 c 0
 260.053700559 424.505950339 246.559484732 433.941185513 239.109072718 450.131049079 c 0
 235.301790357 458.41286217 233.551186497 466.607189636 233.551186497 474.911956214 c 0
 233.551186497 483.532536108 235.437465731 492.272114371 238.867686678 501.352065314 c 0
 243.490767743 513.329834731 254.662655256 523.465120544 265.007318859 531.740851427 c 0
 265.209639318 531.902707794 265.600721091 532.203732812 265.883879256 532.409666023 c 0
 279.380016367 542.225038468 298.588583516 552.271400625 322.40669293 559.076574743 c 0
631.979830468 526.357006356 m 0
 616.439130769 489.624443431 571.949720828 464 530 464 c 0
 506.11478944 464 482.532808551 472.807774776 470.128120614 492.425902158 c 0
 468.878736352 494.037998165 466.44893532 497.052432155 461.291673531 501.058037438 c 1
 434.981116866 437.800741626 l 1
 466.682198571 428.604401211 490.281980277 416.685592875 509.385624842 398.537130538 c 0
 534.904191491 375.08763686 543.42512253 346.925284837 543.42512253 319.929310969 c 0
 543.42512253 295.939882939 536.696458575 272.871500581 529.18738775 254.849730601 c 0
 506.418805071 199.066703036 454.857253799 147.563577472 385.535585889 113.435987116 c 0
 354.500428822 98.3886382349 321.214961925 86.60180229 286.907332703 79.6729729573 c 1
 269.060213587 38.5470028196 l 2
 253.513330277 1.79982408794 210.189953913 -24 168 -24 c 0
 156.756754489 -24 146.084283754 -22.0862136702 136.43689544 -18.1272493904 c 0
 114.537604524 -9.14051560663 100.05690274 11.185473515 100.05690274 34.2585368652 c 0
 100.05690274 41.739948639 101.579363859 49.5101802342 104.865037897 57.276318869 c 2
 116.24470888 84.6909807833 l 1
 90.9300531134 92.7818827448 71.2767237604 103.362178302 55.4273194668 114.206507556 c 0
 18.1257937154 139.784696642 -0.0472152880427 167.077402491 -4.08741038982 175.404511669 c 0
 -8.96695771112 184.601587022 -10.9243550694 193.053101369 -10.9243550694 200.962958661 c 0
 -10.9243550694 209.766953059 -8.49941384496 217.899910214 -4.97983046771 225.642993644 c 0
 10.5608692314 262.375556569 55.0502791718 288 97 288 c 0
 122.417628362 288 146.109947233 276.970657931 157.612813307 257.317262726 c 0
 158.776477421 255.576062281 166.846694332 244.852639134 179.09324445 235.859749779 c 1
 215.102448293 322.408187086 l 1
 168.384353155 336.726885118 137.217827999 359.091572501 119.67494832 391.9844719 c 0
 110.728478504 409.877411531 107.157532925 427.904057097 107.157532925 445.192098344 c 0
 107.157532925 465.288077473 111.982673756 484.386038073 118.79852396 501.11585221 c 0
 133.302877936 536.168040986 161.513314983 565.671484702 193.807272073 589.353719901 c 0
 238.807364896 622.353787971 296.153468794 646.680783438 354.029999022 657.484408802 c 1
 370.896785974 697.35135978 l 2
 386.524136798 734.288734455 429.796251443 760 472 760 c 0
 483.243245511 760 493.915716246 758.08621367 503.56310456 754.12724939 c 0
 525.432731346 745.152688769 539.930265614 724.931195855 539.930265614 701.804475722 c 0
 539.930265614 694.264436901 538.389228075 686.415582517 535.060213587 678.54700282 c 2
 523.425103998 651.735663331 l 1
 596.311363162 630.256774248 624.8010143 587.147385957 629.798532917 578.003519855 c 0
 634.928467782 569.180903549 637.443593268 559.887171986 637.443593268 550.488475553 c 0
 637.443593268 542.445028808 635.601511966 534.324705652 631.979830468 526.357006356 c 0
588.020169532 545.642993644 m 0
 590.067582964 550.147303194 589.103727839 552.550926023 588.648040704 553.28002544 c 0
 588.419469682 553.645739075 587.972611878 554.414212846 587.686535681 554.966584482 c 0
 586.082202799 557.728981096 561.697028747 597.570707746 485.706749483 611.387122158 c 1
 485.706749483 611.387122158 483.644883567 611.806502447 482.202549355 612.301987676 c 0
 472.280480689 615.710517005 466.05020407 625.268205791 466.05020407 635.217067336 c 0
 466.05020407 638.350621684 466.668270305 641.5229818 467.983719734 644.554234833 c 2
 490.939786413 697.45299718 l 2
 493.729953981 704.047938704 493.039164951 706.561482051 485.340217878 709.720871459 c 0
 482.244980959 710.991052777 477.767063767 712 472 712 c 0
 448.203748557 712 421.475863202 693.711265545 415.103214026 678.64864022 c 2
 393.103214026 626.64864022 l 2
 389.907627188 619.095434967 382.769859322 613.496980799 374.56017087 612.265527531 c 0
 318.455365053 603.849806659 263.79618991 581.155485554 222.192727927 550.646280099 c 0
 194.486685017 530.328515298 172.697122064 505.831959014 163.20147604 482.88414779 c 0
 158.169950975 470.534040813 155.130367047 457.951760064 155.130367047 445.450104515 c 0
 155.130367047 434.858178175 157.312237623 424.324126121 162.313119694 414.03818211 c 0
 173.567512457 393.376234776 200.436712653 372.801416712 252.625887297 362.549971693 c 0
 261.327965178 360.840634966 271.934822729 350.800889723 271.934822729 338.452667019 c 0
 271.934822729 335.657047371 271.391154446 332.743103707 270.158628438 329.780716635 c 2
 213.158628438 192.780716635 l 2
 209.688973328 184.441370144 200.459079594 178.087440923 190.55291374 178.087440923 c 0
 187.711950457 178.087440923 184.815365823 178.610032523 181.98307739 179.758257563 c 0
 138.292407871 197.470691151 118.377786484 229.462458227 116.559805088 232.422225209 c 0
 116.321207019 232.812945069 116.133862651 233.134728795 115.93050625 233.507548864 c 0
 115.595158726 234.122352658 109.955796241 240 97 240 c 0
 72.9497208282 240 45.4391307686 221.624443431 38.9798304677 206.357006356 c 0
 35.8639004462 199.501960308 37.3519592961 199.71997456 37.3519592961 199.71997456 c 2
 37.762042739 199.063841052 38.290713651 198.156742871 38.9531587627 196.702120464 c 0
 41.4414382619 192.525287836 55.6623397859 172.246297528 82.5726805332 153.793492444 c 0
 99.2474578818 142.384434258 122.112653294 130.852763006 153.706787243 124.533936217 c 0
 162.255848903 122.824123885 172.933274653 112.813733166 172.933274653 100.440807912 c 0
 172.933274653 97.6572213796 172.392854876 94.754059173 171.166199924 91.7989358806 c 2
 149.134962103 38.723681131 l 2
 146.223929 31.8430574323 146.961129902 29.438396951 154.659782122 26.279128541 c 0
 157.755019041 25.0089472231 162.232936233 24 168 24 c 0
 191.810046087 24 218.486669723 42.2001759121 224.939786413 57.4529971804 c 2
 247.983719734 110.554234833 l 2
 251.071933264 117.670552967 258.064079667 123.377956461 266.158292195 124.690531466 c 0
 300.474408178 130.255307031 333.36097687 141.483558464 364.464414111 156.564012884 c 0
 425.142746201 186.436422528 467.581194929 230.933296964 484.81261225 273.150269399 c 0
 491.419121145 289.005890749 495.706569625 304.685362684 495.706569625 319.314284108 c 0
 495.706569625 335.77609544 490.277448389 350.90761298 476.614375158 363.462869462 c 0
 461.120888143 378.181682127 436.063152396 389.900928031 397.403751374 397.444225791 c 0
 388.658187468 399.150677285 378.064586107 409.198485784 378.064586107 421.543351729 c 0
 378.064586107 424.340048176 378.608288859 427.254638096 379.840356357 430.216842931 c 2
 426.840356357 543.216842931 l 2
 430.183488399 551.254585926 439.392840487 557.924574733 449.464164702 557.924574733 c 0
 451.813534309 557.924574733 454.209809306 557.561618179 456.589466384 556.768399153 c 0
 463.074004625 554.606886406 469.131647971 552.332998846 476.360755601 548.163513533 c 0
 494.583849887 538.039118707 504.437403922 526.51400088 508.31543629 521.510127621 c 0
 509.114829518 520.555002534 510.313242375 518.87891199 511.06949375 517.492451136 c 2
 511.06949375 517.492451136 515.809791144 512 530 512 c 0
 554.050279172 512 581.560869231 530.375556569 588.020169532 545.642993644 c 0
EndSplineSet
EndChar

StartChar: percent
Encoding: 37 37 5
Width: 1080
Flags: HW
LayerCount: 2
Back
SplineSet
857.157226562 168 m 0
 829.705078125 101.725585938 735.81640625 48 647.451171875 48 c 0
 559.0859375 48 509.705078125 101.725585938 537.157226562 168 c 0
 564.609375 234.274414062 658.498046875 288 746.86328125 288 c 0
 835.228515625 288 884.609375 234.274414062 857.157226562 168 c 0
542.842773438 568 m 0
 515.390625 501.725585938 421.501953125 448 333.13671875 448 c 0
 244.771484375 448 195.390625 501.725585938 222.842773438 568 c 0
 250.294921875 634.274414062 344.18359375 688 432.548828125 688 c 0
 520.9140625 688 570.294921875 634.274414062 542.842773438 568 c 0
187.451171875 48 m 1
 892.548828125 688 l 1025
EndSplineSet
Fore
SplineSet
168 24 m 0
 184.244233665 24 201.73112439 31.3954974149 213.73203625 42.6463522837 c 2
 920.037182884 682.922972462 l 2
 926.262075139 688.369753185 929.124283896 692.683453686 930.702857798 696.89298409 c 0
 934.17135347 705.091246588 932.931291031 706.866417415 926.143987556 709.733226514 c 0
 923.219346197 710.968531299 918.829746518 712 913 712 c 0
 896.605197786 712 877.9716355 704.325839982 866.26796375 693.353647716 c 2
 159.962817116 53.0770275383 l 2
 153.737924861 47.6302468151 150.875716104 43.3165463138 149.297142202 39.1070159097 c 0
 146.123869988 31.6065543123 146.961769637 29.4381344254 154.659782122 26.279128541 c 0
 157.755019041 25.0089472231 162.232936233 24 168 24 c 0
976.905617911 683.107651051 m 0
 971.378981109 669.317708261 961.559962592 655.47452983 951.962817116 647.077027538 c 2
 575.657390857 305.950295519 l 1
 633.33120558 339.978164646 702.149754936 360 767 360 c 0
 802.531209385 360 834.90264038 353.927680947 862.597232663 342.308660765 c 0
 917.183825688 319.407340551 951.846123835 273.610405165 951.846123835 218.249406275 c 0
 951.846123835 199.334379221 947.799773776 179.302878333 939.119249003 158.686631999 c 0
 894.073313203 51.7025344726 754.081822154 -24 628 -24 c 0
 592.468163672 -24 560.034866273 -17.9273097749 532.250118951 -6.32379573583 c 0
 477.399213472 16.5831338966 442.236868442 62.511195367 442.236868442 118.126214159 c 0
 442.236868442 136.920540158 446.252438117 156.821124912 454.880750997 177.313368001 c 0
 460.422583319 190.475219767 467.413853738 203.16167442 475.648559724 215.290731885 c 2
 246.26796375 7.35364771625 l 2
 226.26887561 -11.3954974149 197.755766335 -24 168 -24 c 0
 157.204929183 -24 146.940705866 -22.2349268454 137.599507654 -18.5924067279 c 0
 114.728323164 -9.67398451638 100.213020628 10.8756699295 100.213020628 34.2754948298 c 0
 100.213020628 41.6391037951 101.650436091 49.2849582783 104.717210862 56.9394171571 c 0
 110.302129 70.8747822598 118.131588312 80.255577211 128.037182884 88.9229724617 c 2
 504.342609143 430.049704481 l 1
 446.66879442 396.021835353 377.850245064 376 313 376 c 0
 277.468790615 376 245.09735962 382.072319053 217.402767337 393.691339235 c 0
 162.816174312 416.592659449 128.153876165 462.389594835 128.153876165 517.750593725 c 0
 128.153876165 536.665620779 132.200226224 556.697121667 140.880750997 577.313368001 c 0
 185.926686797 684.297465527 325.918177846 760 452 760 c 0
 487.531836328 760 519.965133727 753.927309775 547.749881049 742.323795736 c 0
 602.600786528 719.416866103 637.763131558 673.488804633 637.763131558 617.873785841 c 0
 637.763131558 599.079459842 633.747561883 579.178875088 625.119249003 558.686631999 c 0
 619.577416681 545.524780233 612.586146262 532.83832558 604.351440276 520.709268115 c 2
 833.73203625 728.646352284 l 2
 854.0283645 747.674160018 883.394802214 760 913 760 c 0
 923.905326188 760 934.256951734 758.199288221 943.651618387 754.431883827 c 0
 967.10103773 745.028309572 980.159108536 721.964792887 980.159108536 700.613951645 c 0
 980.159108536 694.51983275 979.095281844 688.565243642 976.905617911 683.107651051 c 0
580.880750997 577.313368001 m 0
 587.268228186 592.483626326 590.321873448 606.65312872 590.321873448 619.693783876 c 0
 590.321873448 654.84371216 568.136402648 681.792292454 529.252304417 698.031136539 c 0
 508.268706718 706.794342757 482.061286881 712 452 712 c 0
 342.081822154 712 220.073313203 641.702534473 185.119249003 558.686631999 c 0
 178.661046767 543.348401688 175.574991492 529.045992134 175.574991492 515.90525578 c 0
 175.574991492 480.867249672 197.515316903 454.08816499 235.972659568 437.95372849 c 0
 256.823297846 429.206028416 282.938086175 424 313 424 c 0
 422.975512044 424 545.964821238 494.388034825 580.880750997 577.313368001 c 0
460.758257563 577.01692261 m 0
 462.50302575 581.320684139 463.166065344 584.981857546 463.166065344 588.227927524 c 0
 463.166065344 598.701675623 454.389903451 616 413 616 c 0
 361.922428339 616 315.182260324 583.50302151 305.241742437 558.98307739 c 0
 303.49697425 554.679315861 302.833934656 551.018142454 302.833934656 547.772072476 c 0
 302.833934656 537.298324377 311.610096549 520 353 520 c 0
 404.077571661 520 450.817739676 552.49697849 460.758257563 577.01692261 c 0
505.241742437 558.98307739 m 0
 485.182260324 509.50302151 419.922428339 472 353 472 c 0
 298.386167216 472 254.833696002 501.039183164 254.833696002 547.708559972 c 0
 254.833696002 557.788479364 256.911751558 567.528874466 260.758257563 577.01692261 c 0
 280.817739676 626.49697849 346.077571661 664 413 664 c 0
 467.613832784 664 511.166303998 634.960816836 511.166303998 588.291440028 c 0
 511.166303998 578.211520636 509.088248442 568.471125534 505.241742437 558.98307739 c 0
894.880750997 177.313368001 m 0
 901.338953233 192.651598312 904.425008508 206.954007866 904.425008508 220.09474422 c 0
 904.425008508 255.132750328 882.484683097 281.91183501 844.027340432 298.04627151 c 0
 823.176702154 306.793971584 797.061913825 312 767 312 c 0
 657.024487956 312 534.035178762 241.611965175 499.119249003 158.686631999 c 0
 492.731771814 143.516373674 489.678126552 129.34687128 489.678126552 116.306216124 c 0
 489.678126552 81.1562878396 511.863597352 54.2077075463 550.747695583 37.9688634609 c 0
 571.731293282 29.2056572433 597.938713119 24 628 24 c 0
 737.918177846 24 859.926686797 94.2974655274 894.880750997 177.313368001 c 0
774.758257563 177.01692261 m 0
 776.505507379 181.326805491 777.153993844 184.977248444 777.166065344 188.227927524 c 0
 777.166065344 198.701675623 768.389903451 216 727 216 c 0
 675.922428339 216 629.182260324 183.50302151 619.241742437 158.98307739 c 0
 617.494492621 154.673194509 616.846006156 151.022751556 616.833934656 147.772072476 c 0
 616.833934656 137.298324377 625.610096549 120 667 120 c 0
 718.077571661 120 764.817739676 152.49697849 774.758257563 177.01692261 c 0
819.241742437 158.98307739 m 0
 799.182260324 109.50302151 733.922428339 72 667 72 c 0
 612.386167216 72 568.833696002 101.039183164 568.833696002 147.708559972 c 0
 568.833696002 157.788479364 570.911751558 167.528874466 574.758257563 177.01692261 c 0
 594.817739676 226.49697849 660.077571661 264 727 264 c 0
 781.613832784 264 825.166303998 234.960816836 825.166303998 188.291440028 c 0
 825.166303998 178.211520636 823.088248442 168.471125534 819.241742437 158.98307739 c 0
EndSplineSet
EndChar

StartChar: ampersand
Encoding: 38 38 6
Width: 980
Flags: HW
LayerCount: 2
Back
SplineSet
712.451171875 48 m 0
 811.86328125 288 664.053710938 414 394.053710938 414 c 0
 264.053710938 414 204.764648438 464 241.21484375 552 c 0
 267.724609375 616 370.862304688 696 560.862304688 696 c 0
 740.862304688 696 796.0390625 624 766.21484375 552 c 0
 736.391601562 480 635.743164062 414.848632812 501.05078125 406.75 c 1024
836.657226562 372 m 0
 836.657226562 372 715.118164062 320 612.098632812 192 c 0
 509.079101562 64 375.602539062 40 259.137695312 40 c 0
 89.1376953125 40 35.5888671875 128 75.353515625 224 c 0
 125.05859375 344 293.966796875 409.096679688 394.053710938 414 c 1024
EndSplineSet
Fore
SplineSet
415 486 m 2
 452.625506811 486 489.712451404 483.829175566 522.66665957 479.153184661 c 1
 566.58047658 483.299596495 600.683889685 494.174760572 625.151467084 506.408549272 c 0
 658.737869431 523.655620747 676.636014669 543.212014357 683.716559419 560.913376232 c 0
 687.497663728 570.366137005 687.292544249 577.531477759 682.343951094 585.779133019 c 0
 679.079229949 591.375797837 670.409211435 599.763514061 650.319385512 607.624750292 c 0
 627.908014186 616.244508494 591.547155318 624 541 624 c 0
 469.039903254 624 418.257741371 610.517597582 385.839470622 596.10947725 c 0
 346.010761471 578.005518544 328.331590784 555.706999274 323.141242054 542.73112745 c 0
 317.556984177 529.967109444 317.352563647 522.129189898 317.821790409 516.011423251 c 0
 319.083137236 509.433125333 319.72176087 508.029902957 327.312804709 502.969207064 c 0
 339.226437504 495.026785201 366.705226505 486 413 486 c 2
 414 486 l 1
 415 486 l 2
415 438 m 2
 414 438 l 1
 413 438 l 2
 361.294773495 438 324.773562496 446.973214799 300.687195291 463.030792936 c 0
 284.463518818 473.846577251 273.253103426 490.019470477 270.279079256 509.350627578 c 0
 270.233591777 509.646296195 270.159293642 510.210048673 270.119107435 510.611910743 c 0
 269.855962121 513.243363885 269.712383478 516.048880123 269.712383478 519.000084542 c 0
 269.712383478 531.254816592 272.188088506 546.021628116 278.858757946 561.26887255 c 0
 289.668409216 588.293000726 317.989238529 617.994481456 366.160529378 639.89052275 c 0
 405.742258629 657.482402418 462.960096746 672 541 672 c 0
 596.452844682 672 638.091985814 663.755491506 667.680614488 652.375249708 c 0
 693.590788565 642.236485939 712.920770051 628.624202163 723.656048906 610.220866981 c 0
 730.869047262 598.199203055 734.033055199 585.236096281 734.033055199 572.575566649 c 0
 734.033055199 562.327769544 731.960076437 552.278213406 728.283440581 543.086623768 c 0
 715.363985331 510.787985643 687.262130569 484.344379253 646.848532916 463.591450728 c 0
 615.63287487 447.983621705 573.997087332 435.338523691 524.03519593 431.086447827 c 0
 522.623923493 430.966339535 520.2829482 430.994380167 518.508144228 431.255380751 c 0
 485.949227587 436.043456728 452.164312316 438 415 438 c 2
600.393508529 286.085256548 m 1
 555.374086366 320.281492105 478.235647572 341.836066363 376.937545644 341.999462955 c 0
 352.889382128 339.965361135 318.860991777 332.528330692 285.806246783 319.673707639 c 0
 257.302435873 308.272183275 230.808504063 294.856378048 209.517068818 278.887801614 c 0
 185.753518248 260.608147329 167.199472757 239.876704206 157.18822307 214.848579989 c 0
 151.99083042 202.619420813 149.559798202 191.707403946 149.559798202 181.924548782 c 0
 149.559798202 165.348460955 156.539285885 152.014193681 168.867015694 141.007292066 c 0
 185.771434027 126.307797864 218.559993117 112 279 112 c 0
 324.724684251 112 369.269706429 115.968754394 408.003487808 127.957781964 c 0
 463.476452952 144.599671507 504.68699594 174.02749035 542.259148573 220.992681141 c 0
 560.86548965 244.250607487 580.883730984 266.547453936 600.393508529 286.085256548 c 1
652.970562748 303.970562748 m 0
 657.311129415 299.629996082 659.743493476 293.285086187 659.743493476 286.831743811 c 0
 659.743493476 280.510459393 657.409660204 274.085134905 652.24935674 269.337655718 c 0
 628.282426372 247.288079779 603.008235368 220.091548786 579.740851427 191.007318859 c 0
 537.31300406 137.97250965 486.523547048 101.400328493 421.996512192 82.0422180363 c 0
 376.730293571 68.0312456059 327.275315749 64 279 64 c 0
 211.440006883 64 166.228565973 79.6922021365 137.132984306 104.992707934 c 0
 113.724904521 125.89277917 102.095255984 153.45837077 102.095255984 182.987066684 c 0
 102.095255984 199.371887222 105.675902365 216.361126916 112.81177693 233.151420011 c 0
 126.800527243 268.123295794 152.246481752 295.391852671 180.482931182 317.112198386 c 0
 207.191495937 337.143621952 236.697564127 351.727816725 268.193753217 364.326292361 c 0
 306.744075142 379.318084221 345.126702266 387.696032132 374.159284027 389.929307652 c 0
 374.593864535 389.962736922 375.413989907 390 376 390 c 0
 488.085581319 390 576.444823713 367.004902943 634.202074388 320.57260338 c 0
 640.58754867 315.251374812 646.758342047 310.18278345 652.970562748 303.970562748 c 0
848.160292697 542.78411077 m 0
 826.652014898 490.416130044 780.917042423 442.553854405 724.886811198 407.380970955 c 1
 730.624336949 403.409003772 733.283351485 401.44221323 737.910486006 397.806607535 c 0
 738.815881535 397.082291112 739.855269788 396.204275286 739.855269788 396.204275286 c 1
 780.320272699 420.891775233 806.240327515 431.575477973 810.346799155 433.506163206 c 0
 810.92612098 433.790858792 811.414403354 434.006001398 811.769230769 434.153846154 c 0
 825.828632488 440.011930203 840.962907448 444 857 444 c 0
 868.357753482 444 879.121148594 442.047527729 888.820499026 437.950733447 c 0
 910.525385979 428.783062127 924.001297735 408.569505008 924.001297735 386.078400236 c 0
 924.001297735 378.451889576 922.451809282 370.563501734 919.148258066 362.755107952 c 0
 909.03158997 338.186056861 886.139715726 321.054160648 864.768005437 310.993383381 c 0
 859.398230214 307.736695829 854.519266798 305.867624164 843.435506975 299.899445798 c 0
 836.708613595 296.230231227 825.761337882 290.011929393 817.147723084 284.590773226 c 1
 825.781421782 258.320211435 830.076818057 230.259952132 830.076818057 200.584888588 c 0
 830.076818057 150.893852442 818.032671644 96.6749596199 794.145834125 38.7493786369 c 0
 778.438727522 1.6234903023 735.217421187 -24 693 -24 c 0
 681.756754489 -24 671.084283754 -22.0862136702 661.43689544 -18.1272493904 c 0
 639.53553472 -9.1396662286 625.056005534 11.19360887 625.056005534 34.2629164162 c 0
 625.056005534 41.7402448466 626.577177232 49.5050118443 629.859845513 57.2640459631 c 0
 640.632954416 83.2990591439 647.889281343 107.435845997 652.08693807 128.999737325 c 1
 628.867551014 104.493959184 604.954193242 83.5264915277 578.799464547 65.3634854897 c 0
 531.844603199 31.9733618649 482.160284391 8.68648930826 432.864852633 -5.99725632163 c 0
 362.890353969 -26.8851663706 296.420544711 -32 239 -32 c 0
 148.495030137 -32 76.3729566312 -10.4667744905 30.2589537285 29.8829780494 c 0
 -7.48720600956 62.4482923332 -24.6891014841 105.23240438 -24.6891014841 150.744619346 c 0
 -24.6891014841 177.798005079 -18.6110606993 205.815326491 -7.15697624176 233.2233143 c 0
 25.8807687429 312.902581616 96.5271718965 372.467286583 168.937881579 413.128023013 c 1
 152.273671749 434.725266932 143.333478118 460.854263592 143.333478118 490.262912756 c 0
 143.333478118 512.248722858 148.330160192 536.067533624 158.831682763 561.196176919 c 0
 182.948912121 619.766591074 242.941988801 677.959542002 330.039016615 717.835289676 c 0
 399.549531254 749.430978149 483.926459615 768 581 768 c 0
 707.533705232 768 799.941682705 737.489485963 841.386751412 671.664965075 c 0
 854.358243604 650.5009515 860.72208191 626.912730858 860.72208191 602.630529949 c 0
 860.72208191 582.830459371 856.490755615 562.568960201 848.160292697 542.78411077 c 0
803.839707303 561.21588923 m 0
 809.91826459 575.652462785 812.796474567 589.593137794 812.796474567 602.712501636 c 0
 812.796474567 618.662159302 808.542453334 633.397911392 800.613248588 646.335034925 c 0
 774.058317295 688.510514037 702.466294768 720 581 720 c 0
 490.057275704 720 412.485361224 702.584882068 349.931270663 674.151204541 c 0
 271.08697884 638.053817923 221.047427914 586.224520439 203.168317237 542.803823081 c 0
 194.539870406 522.157182451 190.738511553 504.527084274 190.738511553 489.33118585 c 0
 190.738511553 461.047011112 203.90812807 441.195998962 223.63305826 426.022975739 c 0
 225.392654415 424.669440235 228.145499838 421.785588839 229.68141295 419.176992994 c 0
 231.885662734 415.433293705 232.923357604 411.299977492 232.923357604 407.204906483 c 0
 232.923357604 398.296196357 228.012283896 389.568488399 219.516853933 385.426966292 c 0
 142.357376209 347.811720902 67.7341550513 288.521646358 37.1698107257 214.807639455 c 0
 27.5962331112 191.899435878 22.7982478971 170.20392095 22.7982478971 150.128645397 c 0
 22.7982478971 117.150154882 35.746090809 88.5440423496 61.7410462715 66.1170219506 c 0
 95.6270433688 36.4667744905 155.504969863 16 239 16 c 0
 293.579455289 16 355.109646031 20.8851663706 419.135147367 39.9972563216 c 0
 463.839715609 53.3135106917 508.155396801 74.0266381351 551.200535453 104.63651451 c 0
 585.306352948 128.321109993 616.320945682 158.310992427 644.435015899 193.211217523 c 0
 650.70397708 200.733970941 656.451194022 206.430631271 660.56268929 211.364425592 c 0
 663.645551192 215.063859874 668.854010151 218.432055449 674.23452816 219.522123164 c 0
 675.788053668 219.836860146 677.339957546 219.9878814 678.872636592 219.9878814 c 0
 690.679419612 219.9878814 701.345366528 211.026008181 702.823501061 198.905305007 c 0
 703.895029407 190.118772575 704.434454702 181.09882001 704.434454702 171.836718936 c 0
 704.434454702 132.145582675 694.528431517 88.0076235272 674.140154487 38.7359540369 c 0
 671.220725495 31.8354855116 671.961150384 29.4383885459 679.659782122 26.279128541 c 0
 682.755019041 25.0089472231 687.232936233 24 693 24 c 0
 716.782578813 24 743.561272478 42.3765096977 749.854165875 57.2506213631 c 0
 771.880169267 110.663679589 782.043832673 158.471255396 782.043832673 200.51542028 c 0
 782.043832673 231.756238221 776.432272753 259.814962812 765.906037235 284.626803675 c 0
 764.678891867 287.519360614 764.081925285 290.634441723 764.081925285 293.758355783 c 0
 764.081925285 301.341438228 767.599500721 308.976568104 774.159603258 313.607228718 c 0
 792.352488456 326.449265329 809.129174139 335.863107536 820.564493025 342.100554202 c 0
 830.174993775 347.275439221 836.658248455 350.379393469 839.504843874 351.849536816 c 0
 840.553338976 352.540165168 841.892890943 353.319855564 843.151247744 353.886116124 c 0
 859.780020358 361.3690638 871.173983749 372.313193599 874.851741934 381.244892048 c 0
 878.076624175 388.867340981 876.931325293 390.866402944 870.143987556 393.733226514 c 0
 867.219346197 394.968531299 862.829746518 396 857 396 c 0
 849.120181413 396 840.931001546 394.211177473 830.798817389 390.081331776 c 0
 825.063875995 387.385010548 793.761098167 374.365174872 750.110426733 345.897345676 c 0
 742.391459327 340.863236498 730.334336022 340.597534842 722.007318859 347.259148573 c 0
 714.302362365 353.423113768 710.140592157 358.552529935 708.089513994 360.193392465 c 0
 695.843773704 369.81504555 682.043949771 378.173837328 665.77069471 386.789090008 c 0
 662.931642765 388.292117508 658.695524303 391.874906655 656.442007119 395.615779043 c 0
 654.155753145 399.410994996 653.07868508 403.623619901 653.07868508 407.798456572 c 0
 653.07868508 416.622701601 657.890614932 425.278123196 666.266873708 429.466252584 c 0
 734.578672784 463.622152122 783.742958681 512.284675193 803.839707303 561.21588923 c 0
EndSplineSet
EndChar

StartChar: quotesingle
Encoding: 39 39 7
Width: 280
Flags: HW
LayerCount: 2
Back
SplineSet
272.548828125 688 m 1
 186.391601562 480 l 1025
EndSplineSet
Fore
SplineSet
190.877686655 697.306215933 m 2
 206.540778388 734.328069122 249.790124336 760 292 760 c 0
 303.243245511 760 313.915716246 758.08621367 323.56310456 754.12724939 c 0
 345.457358408 745.14258265 359.940914845 724.834327487 359.940914845 701.752130524 c 0
 359.940914845 694.260777537 358.41531213 686.477235739 355.122313345 678.693784067 c 2
 268.122313345 470.693784067 l 2
 252.459221612 433.671930878 209.209875664 408 167 408 c 0
 155.756754489 408 145.084283754 409.91378633 135.43689544 413.87275061 c 0
 113.542641592 422.85741735 99.0590851545 443.165672512 99.0590851545 466.247869476 c 0
 99.0590851545 473.739222463 100.58468787 481.522764261 103.877686655 489.306215933 c 2
 190.877686655 697.306215933 l 2
235.122313345 678.693784067 m 2
 148.141228102 470.739005554 l 2
 145.219764225 463.833727299 145.9613481 461.43830741 153.659782122 458.279128541 c 0
 156.755019041 457.008947223 161.232936233 456 167 456 c 0
 190.796251443 456 217.524136798 474.288734455 223.896785974 489.35135978 c 2
 310.858771898 697.260994446 l 2
 313.780235775 704.166272701 313.0386519 706.56169259 305.340217878 709.720871459 c 0
 302.244980959 710.991052777 297.767063767 712 292 712 c 0
 268.203748557 712 241.494962521 693.756409391 235.122313345 678.693784067 c 2
EndSplineSet
EndChar

StartChar: parenleft
Encoding: 40 40 8
Width: 430
Flags: HW
LayerCount: 2
Back
SplineSet
455.685546875 768 m 0
 455.685546875 768 236.09765625 600 140 368 c 0
 43.90234375 136 124.314453125 -32 124.314453125 -32 c 1024
EndSplineSet
Fore
SplineSet
476 840 m 0
 487.357753482 840 498.121148594 838.047527729 507.820499026 833.950733447 c 0
 529.544529849 824.774976174 543.008268987 804.494171908 543.008268987 782.035455683 c 0
 543.008268987 774.446418751 541.470931682 766.608700136 538.195488196 758.866742805 c 0
 531.859764506 743.027433579 520.230871988 731.049701251 507.68218373 721.010750645 c 0
 506.635444696 720.228788085 449.891379946 677.75989521 377.907391231 597.021097056 c 0
 321.067261781 533.320951982 260.687670164 451.250408394 222.153846154 358.769230769 c 0
 189.778180557 281.067633337 180.008421462 212.102287538 180.008421462 155.196918509 c 0
 180.008421462 144.513246032 180.35278606 134.254663775 180.956570483 124.443166897 c 0
 185.587963802 47.5620378097 205.96839542 7.71545668435 206.528883821 6.60786381796 c 0
 210.194608736 -0.723586011192 211.634752747 -8.17078906362 211.634752747 -15.3767849678 c 0
 211.634752747 -24.6083142616 209.271200509 -33.4439764127 206.195488196 -41.1332571955 c 0
 190.251217824 -78.8197144393 146.019016326 -104 104 -104 c 0
 77.9173795322 -104 53.6724027651 -93.0104369902 42.533747416 -70.733126292 c 0
 40.0669500981 -65.7995316562 13.3220301922 -7.67447533157 7.05400943238 87.3905061927 c 0
 6.19358514919 99.9527007273 5.70654675482 113.140106471 5.70654675482 126.919319208 c 0
 5.70654675482 196.635074114 18.1739571988 281.500149465 57.8284659887 377.188203284 c 0
 105.310665387 491.764814876 177.993881065 588.744966865 244.073049455 662.95695598 c 0
 326.298874909 755.33411791 398.31664838 811.508449094 403.85488605 815.394972612 c 0
 425.316368975 831.134016928 449.922339475 840 476 840 c 0
476 792 m 0
 462.146696897 792 444.282757511 785.712068133 432.4 776.8 c 0
 432.282697332 776.712022999 431.9700441 776.483128189 431.740638473 776.322727163 c 0
 426.348447893 772.310598345 356.754341848 717.355298447 279.926950545 631.04304402 c 0
 216.006118935 559.255033135 146.689334613 466.235185124 102.171534011 358.811796716 c 0
 65.0852070285 269.320877258 53.6914725832 191.229142697 53.6914725832 127.282412113 c 0
 53.6914725832 114.495356753 54.147058713 102.273898884 54.9439015642 90.6399932578 c 0
 60.4336207191 7.37925274109 83.409560394 -44.8120457947 85.5220861262 -49.3761445987 c 0
 86.3276582046 -50.885304697 90.0639767134 -56 104 -56 c 0
 127.738789193 -56 155.128781611 -37.9477980724 161.820229182 -22.8299519254 c 0
 163.497769761 -18.4137699079 163.552001657 -14.9917954954 163.478678179 -14.6273805657 c 0
 160.675268361 -9.05063210736 138.080621056 37.9394535529 133.043429517 121.556833103 c 0
 132.390167521 132.172340537 132.020616769 143.27887543 132.020616769 154.844261888 c 0
 132.020616769 217.285833903 142.792743358 293.102584059 177.846153846 377.230769231 c 0
 219.312329836 476.749591606 282.932738219 562.679048018 342.092608769 628.978902944 c 0
 414.624182475 710.331884263 473.07282591 755.028684869 478.297955183 758.97292023 c 0
 485.761261545 765.057828693 492.116029779 772.912052133 493.804511804 777.133257195 c 0
 497.106674905 784.938369979 495.931314424 786.866407535 489.143987556 789.733226514 c 0
 486.219346197 790.968531299 481.829746518 792 476 792 c 0
EndSplineSet
EndChar

StartChar: parenright
Encoding: 41 41 9
Width: 430
Flags: HW
LayerCount: 2
Back
SplineSet
265.685546875 768 m 0
 265.685546875 768 346.09765625 600 250 368 c 0
 153.90234375 136 -65.685546875 -32 -65.685546875 -32 c 1024
EndSplineSet
Fore
SplineSet
228.179770818 758.829951925 m 0
 226.502230239 754.413769908 226.447998343 750.991795495 226.521321821 750.627380566 c 0
 229.324731639 745.050632107 251.919378944 698.060546447 256.956570483 614.443166897 c 0
 257.609832479 603.827659463 257.979383231 592.72112457 257.979383231 581.155738112 c 0
 257.979383231 518.714166097 247.207256642 442.897415941 212.153846154 358.769230769 c 0
 170.687670164 259.250408394 107.067261781 173.320951982 47.9073912308 107.021097056 c 0
 -24.6241824746 25.6681157374 -83.07282591 -19.0286848685 -88.2979551834 -22.9729202297 c 0
 -95.7612615454 -29.0578286932 -102.116029779 -36.9120521325 -103.804511804 -41.1332571955 c 0
 -107.106674905 -48.9383699786 -105.931314424 -50.8664075347 -99.1439875558 -53.7332265142 c 0
 -96.2193461974 -54.9685312988 -91.8297465175 -56 -86 -56 c 0
 -72.1466968973 -56 -54.2827575107 -49.7120681331 -42.4 -40.8 c 0
 -42.2826973322 -40.7120229991 -41.9700440997 -40.4831281892 -41.7406384726 -40.3227271633 c 0
 -36.348447893 -36.3105983449 33.2456581517 18.6447015531 110.073049455 104.95695598 c 0
 173.993881065 176.744966865 243.310665387 269.764814876 287.828465989 377.188203284 c 0
 324.914792971 466.679122742 336.308527417 544.770857303 336.308527417 608.717587887 c 0
 336.308527417 621.504643247 335.852941287 633.726101116 335.056098436 645.360006742 c 0
 329.566379281 728.620747259 306.590439606 780.812045795 304.477913874 785.376144599 c 0
 303.672341795 786.885304697 299.936023287 792 286 792 c 0
 262.261210807 792 234.871218389 773.947798072 228.179770818 758.829951925 c 0
183.804511804 777.133257195 m 0
 199.748782176 814.819714439 243.980983674 840 286 840 c 0
 312.082620468 840 336.327597235 829.01043699 347.466252584 806.733126292 c 0
 349.933049902 801.799531656 376.677969808 743.674475332 382.945990568 648.609493807 c 0
 383.806414851 636.047299273 384.293453245 622.859893529 384.293453245 609.080680792 c 0
 384.293453245 539.364925886 371.826042801 454.499850535 332.171534011 358.811796716 c 0
 284.689334613 244.235185124 212.006118935 147.255033135 145.926950545 73.0430440201 c 0
 63.7011250907 -19.3341179105 -8.31664838042 -75.5084490939 -13.8548860503 -79.3949726116 c 0
 -35.3163689752 -95.134016928 -59.9223394749 -104 -86 -104 c 0
 -97.3577534825 -104 -108.121148594 -102.047527729 -117.820499026 -97.9507334467 c 0
 -139.544529849 -88.7749761735 -153.008268987 -68.4941719077 -153.008268987 -46.0354556828 c 0
 -153.008268987 -38.4464187506 -151.470931682 -30.6087001359 -148.195488196 -22.8667428045 c 0
 -141.859764506 -7.02743357891 -130.230871988 4.95029874925 -117.68218373 14.9892493555 c 0
 -116.635444696 15.7712119151 -59.8913799464 58.2401047904 12.0926087692 138.978902944 c 0
 68.9327382194 202.679048018 129.312329836 284.749591606 167.846153846 377.230769231 c 0
 200.221819443 454.932366663 209.991578538 523.897712462 209.991578538 580.803081491 c 0
 209.991578538 591.486753968 209.64721394 601.745336225 209.043429517 611.556833103 c 0
 204.412036198 688.43796219 184.03160458 728.284543316 183.471116179 729.392136182 c 0
 179.839386586 736.655595367 178.424100719 744.124012643 178.424100719 751.341876751 c 0
 178.424100719 760.688921885 180.79752536 769.615791085 183.804511804 777.133257195 c 0
EndSplineSet
EndChar

StartChar: asterisk
Encoding: 42 42 10
Width: 640
Flags: HW
LayerCount: 2
Back
SplineSet
541.184570312 684.708007812 m 1
 257.873046875 435.291992188 l 1025
361.184570312 684.708007812 m 1
 437.873046875 435.291992188 l 1025
219.529296875 560 m 1
 579.529296875 560 l 1025
EndSplineSet
Fore
SplineSet
561 757 m 0
 572.357753482 757 583.121148594 755.047527729 592.820499026 750.950733447 c 0
 614.473593053 741.80493833 627.982555012 721.773658968 627.982555012 699.195554024 c 0
 627.982555012 691.467255228 626.399795933 683.440561091 623.019125863 675.449886382 c 0
 617.352061924 662.698992518 609.182315996 652.019089058 598.846558864 642.975301567 c 2
 586.421689165 632 l 1
 599 632 l 2
 610.243245511 632 620.915716246 630.08621367 630.56310456 626.12724939 c 0
 652.449766009 617.145698316 666.937628023 596.864181232 666.937628023 573.768234532 c 0
 666.937628023 566.261886389 665.40728013 558.458251013 662.103214026 550.64864022 c 0
 646.331620744 513.370328826 601.989366637 488 560 488 c 2
 516.31506814 488 l 1
 523.027495773 465.765083467 l 2
 524.44306242 460.810600202 525.215242742 455.44759493 525.215242742 449.900898535 c 0
 525.215242742 441.907749323 523.611680651 433.533134654 520.019125863 425.449886382 c 0
 504.404890802 388.543512599 459.96234729 363 418 363 c 0
 389.878706263 363 360.983502672 376.196421975 352.972504227 404.234916533 c 2
 347.840038661 421.236208722 l 1
 315.846558864 392.975301567 l 2
 295.419507684 375.101631785 266.926403942 363 238 363 c 0
 226.642246518 363 215.878851406 364.952472271 206.179500974 369.049266553 c 0
 184.526406947 378.19506167 171.017444988 398.226341032 171.017444988 420.804445976 c 0
 171.017444988 428.532744772 172.600204067 436.559438909 175.980874137 444.550113618 c 0
 181.647938076 457.301007482 189.817684004 467.980910942 200.153441136 477.024698433 c 2
 212.578310835 488 l 1
 200 488 l 2
 188.642246518 488 177.878851406 489.952472271 168.179500974 494.049266553 c 0
 146.492771114 503.209268713 133.005292618 523.35898196 133.005292618 545.880690419 c 0
 133.005292618 553.542817837 134.566378659 561.479487944 137.896785974 569.35135978 c 0
 153.524136798 606.288734455 196.796251443 632 239 632 c 2
 282.68493186 632 l 1
 275.972504227 654.234916533 l 2
 274.55693758 659.189399798 273.784757258 664.55240507 273.784757258 670.099101465 c 0
 273.784757258 678.092250677 275.388319349 686.466865346 278.980874137 694.550113618 c 0
 294.595109198 731.456487401 339.03765271 757 381 757 c 0
 409.121293737 757 438.016497328 743.803578025 446.027495773 715.765083467 c 2
 451.159961339 698.763791278 l 1
 483.153441136 727.024698433 l 2
 503.580492316 744.898368215 532.073596058 757 561 757 c 0
561 709 m 0
 545.926403942 709 526.419507684 701.101631785 514.846558864 690.975301567 c 2
 454.88883209 638.012642917 l 2
 453.152982171 636.479308822 450.316174691 634.652293903 447.717348999 633.639145221 c 0
 444.931866258 632.553228541 442.05248041 632.042133569 439.210130743 632.042133569 c 0
 428.936692104 632.042133569 419.147094663 638.719085714 416.024134941 649.063889794 c 2
 399.972504227 702.234916533 l 1
 399.972504227 702.234916533 396.88695345 709 381 709 c 0
 356.96234729 709 329.404890802 690.543512599 323.019125863 675.449886382 c 0
 321.104666852 671.142353606 321.482985759 669.670868515 322.027495773 667.765083467 c 2
 337.975865059 614.936110206 l 2
 338.334849704 613.746973569 338.998331894 610.267282432 338.998331894 608.044917584 c 0
 338.998331894 595.067208887 328.177423954 584 315 584 c 2
 239 584 l 2
 215.203748557 584 188.475863202 565.711265545 182.103214026 550.64864022 c 0
 178.952035629 543.200400374 180.068664341 541.133601434 186.856012444 538.266773486 c 0
 189.780653803 537.031468701 194.170253482 536 200 536 c 2
 276 536 l 2
 281.221823471 536 288.137098566 533.650146618 292.685319453 529.251090248 c 0
 297.500290619 524.594032004 299.8892687 518.304636153 299.8892687 512.020532263 c 0
 299.8892687 505.362821438 297.207784094 498.711050521 291.88883209 494.012642917 c 2
 231.846558864 440.975301567 l 2
 226.148068486 435.989122487 222.893365708 431.665378554 220.029402635 425.475522881 c 0
 217.134075443 418.25911127 217.892590633 416.055427951 225.214118387 413.119383827 c 0
 228.131951734 411.949288221 232.405326188 411 238 411 c 0
 253.073596058 411 272.580492316 418.898368215 284.153441136 429.024698433 c 2
 344.11116791 481.987357083 l 2
 345.847017829 483.520691178 348.683825309 485.347706097 351.282651001 486.360854779 c 0
 354.068133742 487.446771459 356.94751959 487.957866431 359.789869257 487.957866431 c 0
 370.063307896 487.957866431 379.852905337 481.280914286 382.975865059 470.936110206 c 2
 399.027495773 417.765083467 l 1
 399.027495773 417.765083467 402.11304655 411 418 411 c 0
 442.03765271 411 469.595109198 429.456487401 475.980874137 444.550113618 c 0
 477.895333148 448.857646394 477.517014241 450.329131485 476.972504227 452.234916533 c 2
 461.024134941 505.063889794 l 2
 460.665150296 506.253026431 460.001668106 509.732717568 460.001668106 511.955082416 c 0
 460.001668106 524.932791113 470.822576046 536 484 536 c 2
 560 536 l 2
 584.010633363 536 611.668379256 554.629671174 617.896785974 569.35135978 c 0
 620.756483632 576.110645152 620.038995331 578.561551657 612.340217878 581.720871459 c 0
 609.244980959 582.991052777 604.767063767 584 599 584 c 2
 523 584 l 2
 517.778176529 584 510.862901434 586.349853382 506.314680547 590.748909752 c 0
 501.499709381 595.405967996 499.1107313 601.695363847 499.1107313 607.979467737 c 0
 499.1107313 614.637178562 501.792215906 621.288949479 507.11116791 625.987357083 c 2
 567.153441136 679.024698433 l 2
 572.851931514 684.010877513 576.106634292 688.334621446 578.970597365 694.524477119 c 0
 581.865924557 701.74088873 581.107409367 703.944572049 573.785881613 706.880616173 c 0
 570.868048266 708.050711779 566.594673812 709 561 709 c 0
EndSplineSet
EndChar

StartChar: plus
Encoding: 43 43 11
Width: 800
Flags: HW
LayerCount: 2
Back
SplineSet
670 368 m 1
 130 368 l 1025
489.469726562 584 m 1
 310.530273438 152 l 1025
EndSplineSet
Fore
SplineSet
690 440 m 2
 701.357753482 440 712.121148594 438.047527729 721.820499026 433.950733447 c 0
 743.507228886 424.790731287 756.994707382 404.64101804 756.994707382 382.119309581 c 0
 756.994707382 374.457182163 755.433621341 366.520512056 752.103214026 358.64864022 c 0
 736.331620744 321.370328826 691.989366637 296 650 296 c 2
 456.088247202 296 l 1
 393.152459142 142.765037768 l 2
 377.288711107 105.268906048 333.005190159 80 291 80 c 0
 279.642246518 80 268.878851406 81.952472271 259.179500974 86.0492665533 c 0
 237.472915585 95.2176552552 223.998084718 115.437181257 223.998084718 137.925417582 c 0
 223.998084718 145.548600324 225.546491951 153.432482997 228.847540858 161.234962232 c 2
 284.197467084 296 l 1
 110 296 l 2
 98.6422465175 296 87.8788514058 297.952472271 78.1795009745 302.049266553 c 0
 56.4927711141 311.209268713 43.0052926178 331.35898196 43.0052926178 353.880690419 c 0
 43.0052926178 361.542817837 44.566378659 369.479487944 47.8967859744 377.35135978 c 0
 63.6683792562 414.629671174 108.010633363 440 150 440 c 2
 343.911752798 440 l 1
 406.847540858 593.234962232 l 2
 422.711288893 630.731093952 466.994809841 656 509 656 c 0
 520.357753482 656 531.121148594 654.047527729 540.820499026 649.950733447 c 0
 562.527084415 640.782344745 576.001915282 620.562818743 576.001915282 598.074582418 c 0
 576.001915282 590.451399676 574.453508049 582.567517003 571.152459142 574.765037768 c 2
 515.802532916 440 l 1
 690 440 l 2
690 392 m 2
 480 392 l 2
 478.046260972 392 474.990947906 392.400279929 472.651838589 393.15258168 c 0
 462.507449666 396.415208826 456.045949296 406.095757497 456.045949296 416.214039454 c 0
 456.045949296 419.195024204 456.606789745 422.214003 457.799524359 425.118052495 c 2
 526.847540858 593.234962232 l 2
 530.079297159 600.873658944 528.931324326 602.866403352 522.143987556 605.733226514 c 0
 519.219346197 606.968531299 514.829746518 608 509 608 c 0
 485.005190159 608 457.288711107 589.268906048 451.152459142 574.765037768 c 2
 382.200475641 406.881947505 l 2
 378.826775137 398.66772019 369.910199948 392 360 392 c 2
 150 392 l 2
 125.989366637 392 98.3316207438 373.370328826 92.1032140256 358.64864022 c 0
 88.9520356294 351.200400374 90.0686643415 349.133601434 96.8560124442 346.266773486 c 0
 99.7806538026 345.031468701 104.170253482 344 110 344 c 2
 320 344 l 2
 321.953739028 344 325.009052094 343.599720071 327.348161411 342.84741832 c 0
 337.492550334 339.584791174 343.954050704 329.904242503 343.954050704 319.785960546 c 0
 343.954050704 316.804975796 343.393210255 313.785997 342.200475641 310.881947505 c 2
 273.152459142 142.765037768 l 2
 269.920702841 135.126341056 271.068675674 133.133596648 277.856012444 130.266773486 c 0
 280.780653803 129.031468701 285.170253482 128 291 128 c 0
 314.994809841 128 342.711288893 146.731093952 348.847540858 161.234962232 c 2
 417.799524359 329.118052495 l 2
 421.173224863 337.33227981 430.089800052 344 440 344 c 2
 650 344 l 2
 674.010633363 344 701.668379256 362.629671174 707.896785974 377.35135978 c 0
 711.047964371 384.799599626 709.931335659 386.866398566 703.143987556 389.733226514 c 0
 700.219346197 390.968531299 695.829746518 392 690 392 c 2
EndSplineSet
EndChar

StartChar: comma
Encoding: 44 44 12
Width: 370
Flags: HW
LayerCount: 2
Back
SplineSet
77.333984375 96 m 0
 87.333984375 96 94.0205078125 88.0009765625 90.7060546875 79.9990234375 c 0
 84.0791015625 64 57.451171875 48 37.451171875 48 c 0
 27.4521484375 48 20.765625 56 24.0791015625 64 c 0
 30.7060546875 80 57.333984375 96 77.333984375 96 c 0
 87.333984375 96 104.020507812 88 94.0791015625 64 c 0
 77.5107421875 24 1.873046875 -56 1.873046875 -56 c 1024
EndSplineSet
Fore
SplineSet
176.304904649 55.1364883561 m 0
 170.224061802 39.3262969543 160.861003979 25.5248906625 152.969207064 13.6871952906 c 0
 142.11026135 -2.60122328127 129.91232996 -17.7759301917 118.777532882 -31.9474901093 c 0
 92.8469486686 -64.1014145343 67.4338270634 -90.4846830441 66.5469302224 -91.3861752087 c 0
 44.0743164616 -114.703438266 14.291156204 -128 -18 -128 c 0
 -29.3577534825 -128 -40.1211485942 -126.047527729 -49.8204990255 -121.950733447 c 0
 -71.4984975596 -112.794419209 -84.991545772 -92.6754289903 -84.991545772 -70.1390439008 c 0
 -84.991545772 -62.4597633621 -83.4248573677 -54.4997972102 -80.0814667949 -46.5972376746 c 0
 -76.8294801367 -39.0092688054 -71.6692917089 -28.7281662119 -63.216879205 -20.2757537081 c 2
 -63.216879205 -20.2757537081 -55.1936216243 -11.7433298608 -44.9250960631 -0.358329996642 c 1
 -48.8068453123 3.87567351287 -50.3223424974 5.96011821457 -52.5960290249 9.14327935303 c 0
 -59.5802560152 19.120746482 -63.7527550775 31.4324211565 -63.7527550775 45.1458791612 c 0
 -63.7527550775 53.8994269732 -62.0526705989 63.2241313142 -58.2985886787 72.8774848233 c 0
 -43.9026035184 108.213084762 -13.5859522764 130.815054785 13.6893815973 145.170863407 c 0
 37.4083137085 158.067906526 64.6614639177 168 97 168 c 0
 110.49368426 168 120.803670719 165.587899415 130.09473488 162.933309655 c 0
 162.173666103 152.24033258 183.902804135 125.531843531 183.902804135 91.342014654 c 0
 183.902804135 79.9937082519 181.508877974 67.8211733367 176.304904649 55.1364883561 c 0
131.695095351 72.8635116439 m 0
 135.03302119 80.9997058748 136.547131048 87.681713664 136.547131048 93.2163762807 c 0
 136.547131048 106.087017926 128.359175432 112.753082475 115.87799036 117.07326899 c 0
 111.213734492 118.375594826 103.502353251 120 97 120 c 0
 75.212684525 120 54.3962168743 112.777409976 36.3207974103 102.83592927 c 0
 13.5889698109 91.0153789187 -6.05455577087 73.8920697096 -13.7014113213 55.1225151767 c 0
 -18.0661203342 43.8989777149 -15.9615858115 40.5104561275 -13.4039709751 36.856720647 c 0
 -9.62514174254 31.5663597214 -6.55751647184 28.4840601053 -1.4105336156 26.7683991532 c 0
 0.67071847939 26.0746484549 3.26559537797 24.7804986009 5.27884533172 23.2902715376 c 0
 11.5934225052 18.6161605164 14.8943411484 11.2785592378 14.8943411484 3.90429509584 c 0
 14.8943411484 -1.67060444393 13.0077771929 -7.26645779808 9.11053253192 -11.7482891582 c 0
 -11.3823030889 -35.3150501222 -28.0980905352 -52.9982470888 -28.783120795 -53.7242462919 c 0
 -32.3307082911 -57.2718337881 -33.1705198633 -58.9907311946 -35.9185332051 -65.4027623254 c 0
 -39.0341274374 -72.7668941474 -37.9313406631 -74.8663964519 -31.1439875558 -77.7332265142 c 0
 -28.2193461974 -78.9685312988 -23.8297465175 -80 -18 -80 c 0
 -0.228981636285 -80 20.1275521101 -70.6591232932 31.5952905879 -58.4746511606 c 0
 33.8241479993 -56.1797279798 57.7814663117 -31.1193508902 81.2224671177 -2.05250989065 c 0
 92.0876700396 11.7759301917 103.88973865 26.6012232813 113.030792936 40.3128047094 c 0
 121.138996021 52.4751093375 127.775938198 62.6737030457 131.695095351 72.8635116439 c 0
EndSplineSet
EndChar

StartChar: hyphen
Encoding: 45 45 13
Width: 520
Flags: HW
LayerCount: 2
Back
SplineSet
56.921875 264 m 1
 376.921875 264 l 1025
EndSplineSet
Fore
SplineSet
37 192 m 2
 25.6422465175 192 14.8788514058 193.952472271 5.1795009745 198.049266553 c 0
 -16.5072288859 207.209268713 -29.9947073822 227.35898196 -29.9947073822 249.880690419 c 0
 -29.9947073822 257.542817837 -28.433621341 265.479487944 -25.1032140256 273.35135978 c 0
 -9.33162074377 310.629671174 35.0106333632 336 77 336 c 2
 397 336 l 2
 408.357753482 336 419.121148594 334.047527729 428.820499026 329.950733447 c 0
 450.507228886 320.790731287 463.994707382 300.64101804 463.994707382 278.119309581 c 0
 463.994707382 270.457182163 462.433621341 262.520512056 459.103214026 254.64864022 c 0
 443.331620744 217.370328826 398.989366637 192 357 192 c 2
 37 192 l 2
37 240 m 2
 357 240 l 2
 381.010633363 240 408.668379256 258.629671174 414.896785974 273.35135978 c 0
 418.047964371 280.799599626 416.931335659 282.866398566 410.143987556 285.733226514 c 0
 407.219346197 286.968531299 402.829746518 288 397 288 c 2
 77 288 l 2
 52.9893666368 288 25.3316207438 269.370328826 19.1032140256 254.64864022 c 0
 15.9520356294 247.200400374 17.0686643415 245.133601434 23.8560124442 242.266773486 c 0
 26.7806538026 241.031468701 31.1702534825 240 37 240 c 2
EndSplineSet
EndChar

StartChar: period
Encoding: 46 46 14
Width: 360
Flags: HW
LayerCount: 2
Back
SplineSet
85.7890625 72 m 0
 75.3056640625 59.068359375 54.0859375 48 37.451171875 48 c 0
 27.451171875 48 20.765625 56 24.0791015625 64 c 0
 25.1943359375 66.6923828125 26.8759765625 69.3837890625 28.99609375 72 c 1024
28.99609375 72 m 0
 39.4794921875 84.931640625 60.69921875 96 77.333984375 96 c 0
 87.333984375 96 94.0205078125 88 90.7060546875 80 c 0
 89.5908203125 77.3076171875 87.91015625 74.6162109375 85.7890625 72 c 1024
EndSplineSet
Fore
SplineSet
157.509301559 44.4619571542 m 0
 138.69538237 20.6309928481 113.34731813 3.24940793489 88.8394706223 -7.89052275045 c 0
 68.4280867027 -16.9622489369 44.4285146656 -24 18 -24 c 0
 -10.089035046 -24 -30.8826477508 -13.5485653205 -44.0449403098 -1.8487497125 c 0
 -56.3086306951 9.30005972864 -64.1172736758 25.5344675811 -64.1172736758 44.2879336865 c 0
 -64.1172736758 53.4477653678 -62.2543826195 63.2085633247 -58.13782393 73.2712623435 c 0
 -54.5313360975 81.6864006194 -49.1586686939 91.0420633728 -42.5093015589 99.5380428458 c 0
 -23.6953823698 123.369007152 1.65268187 140.750592065 26.1605293777 151.89052275 c 0
 46.5719132973 160.962248937 70.5714853344 168 97 168 c 0
 131.75897689 168 155.730222238 152.671281949 167.817944723 134.539698221 c 0
 174.555534094 124.914570548 178.715796923 112.68315089 178.715796923 98.9077200282 c 0
 178.715796923 90.1157020433 177.021117636 80.6947324964 173.220217631 70.9209896252 c 0
 169.428318949 62.0732260347 164.237022193 53.0580498717 157.509301559 44.4619571542 c 0
-3.87146926665 70.9932140958 m 0
 -7.50837750275 66.6289242125 -11.7924847777 59.5580173384 -13.86217607 54.7287376565 c 0
 -19.2610983734 41.531372026 -15.95578209 37.6226920039 -11.9521404246 33.8450871628 c 0
 -7.03946100814 29.591330945 2.02964942518 24 18 24 c 0
 35.5714853344 24 53.5719132973 28.9622489369 69.1605293777 35.8905227505 c 0
 88.4781479302 44.6712584561 105.766566042 56.9929269731 119.120560959 73.3111696269 c 0
 122.76112573 77.6798473517 126.265816683 83.3808172381 128.784698338 89.0911049823 c 0
 132.854745777 100.124148268 131.233866916 103.100570866 128.182055277 107.460301779 c 0
 124.269777762 113.328718051 118.24102311 120 97 120 c 0
 79.4285146656 120 61.4280867027 115.037751063 45.8394706223 108.10947725 c 0
 26.9046602974 99.5027452837 8.42868248991 86.02368717 -3.87146926665 70.9932140958 c 0
EndSplineSet
EndChar

StartChar: slash
Encoding: 47 47 15
Width: 720
Flags: HW
LayerCount: 2
Back
SplineSet
7.451171875 48 m 1
 712.548828125 688 l 1025
EndSplineSet
Fore
SplineSet
-12 24 m 0
 4.24423366533 24 21.7311243901 31.3954974149 33.7320362502 42.6463522837 c 2
 740.037182884 682.922972462 l 2
 746.262075139 688.369753185 749.124283896 692.683453686 750.702857798 696.89298409 c 0
 754.17135347 705.091246588 752.931291031 706.866417415 746.143987556 709.733226514 c 0
 743.219346197 710.968531299 738.829746518 712 733 712 c 0
 716.605197786 712 697.9716355 704.325839982 686.26796375 693.353647716 c 2
 -20.037182884 53.0770275383 l 2
 -26.262075139 47.6302468151 -29.1242838964 43.3165463138 -30.7028577979 39.1070159097 c 0
 -33.8761300122 31.6065543123 -33.0382303635 29.4381344254 -25.3402178784 26.279128541 c 0
 -22.2449809587 25.0089472231 -17.7670637672 24 -12 24 c 0
796.905617911 683.107651051 m 0
 791.378981109 669.317708261 781.559962592 655.47452983 771.962817116 647.077027538 c 2
 66.2679637498 7.35364771625 l 2
 46.2688756099 -11.3954974149 17.7557663347 -24 -12 -24 c 0
 -22.7950708169 -24 -33.0592941341 -22.2349268454 -42.4004923459 -18.5924067279 c 0
 -65.2716768358 -9.67398451638 -79.786979372 10.8756699295 -79.786979372 34.2754948298 c 0
 -79.786979372 41.6391037951 -78.349563909 49.2849582783 -75.282789138 56.9394171571 c 0
 -69.6978709997 70.8747822598 -61.8684116882 80.255577211 -51.962817116 88.9229724617 c 2
 653.73203625 728.646352284 l 2
 674.0283645 747.674160018 703.394802214 760 733 760 c 0
 743.905326188 760 754.256951734 758.199288221 763.651618387 754.431883827 c 0
 787.10103773 745.028309572 800.159108536 721.964792887 800.159108536 700.613951645 c 0
 800.159108536 694.519832749 799.095281844 688.565243642 796.905617911 683.107651051 c 0
EndSplineSet
EndChar

StartChar: zero
Encoding: 48 48 16
Width: 840
Flags: HW
LayerCount: 2
Back
SplineSet
730 368 m 0
 654.965820312 186.850585938 455.346679688 40 284.137695312 40 c 0
 112.928710938 40 34.9658203125 186.850585938 110 368 c 0
 185.034179688 549.149414062 384.653320312 696 555.862304688 696 c 0
 727.071289062 696 805.034179688 549.149414062 730 368 c 0
EndSplineSet
Fore
SplineSet
812.178434969 358.828466742 m 0
 754.611683551 219.621595131 633.611557354 95.9371598133 490.608143211 25.4717093661 c 0
 418.99440552 -9.81621935097 340.650253584 -32 264 -32 c 0
 187.326036919 -32 124.467572961 -9.44442398298 78.6799391297 28.5258089506 c 0
 22.0326363534 75.501621009 -5.78268709493 143.438021879 -5.78268709493 220.805234751 c 0
 -5.78268709493 270.093483099 5.50635204957 323.209290959 27.8215650305 377.171533258 c 0
 85.3883164485 516.378404869 206.388442646 640.062840187 349.391856789 710.528290634 c 0
 421.00559448 745.816219351 499.349746416 768 576 768 c 0
 652.673963081 768 715.532427039 745.444423983 761.32006087 707.474191049 c 0
 817.967363647 660.498378991 845.782687095 592.561978121 845.782687095 515.194765249 c 0
 845.782687095 465.906516901 834.49364795 412.790709041 812.178434969 358.828466742 c 0
767.821565031 377.171533258 m 0
 788.331324886 426.767861637 798.040787955 473.267696428 798.040787955 515.051073723 c 0
 798.040787955 580.54252064 774.187002756 634.446780577 730.67993913 670.525808951 c 0
 694.467572961 700.555576017 643.326036919 720 576 720 c 0
 508.650253584 720 436.99440552 700.183780649 370.608143211 667.471709366 c 0
 237.611557354 601.937159813 124.611683551 485.621595131 72.1784349695 358.828466742 c 0
 51.6686751137 309.232138363 41.9592120454 262.732303572 41.9592120454 220.948926277 c 0
 41.9592120454 155.45747936 65.8129972438 101.553219423 109.32006087 65.4741910494 c 0
 145.532427039 35.444423983 196.673963081 16 264 16 c 0
 331.349746416 16 403.00559448 35.816219351 469.391856789 68.5282906339 c 0
 602.388442646 134.062840187 715.388316449 250.378404869 767.821565031 377.171533258 c 0
647.846153846 377.230769231 m 0
 664.139430766 416.334633838 671.196403485 451.947560183 671.196403485 483.095143018 c 0
 671.196403485 533.178757942 652.950680579 571.71727788 625.519423562 594.65978375 c 0
 603.372497716 613.525683544 573.515833478 624 536 624 c 0
 498.53725759 624 456.088037551 613.211203045 412.686863031 591.510615786 c 0
 324.703336368 547.991882167 234.529845315 460.471628756 192.153846154 358.769230769 c 0
 175.860569234 319.665366162 168.803596515 284.052439817 168.803596515 252.904856982 c 0
 168.803596515 202.821242058 187.049319421 164.28272212 214.480576438 141.34021625 c 0
 236.627502284 122.474316456 266.484166522 112 304 112 c 0
 341.46274241 112 383.911962449 122.788796955 427.313136969 144.489384214 c 0
 515.296663632 188.008117833 605.470154685 275.528371244 647.846153846 377.230769231 c 0
692.153846154 358.769230769 m 0
 644.529845315 244.471628756 546.703336368 149.991882167 448.686863031 101.510615786 c 0
 400.088037551 77.2112030454 350.53725759 64 304 64 c 0
 257.515833478 64 215.372497716 77.5256835438 183.519423562 104.65978375 c 0
 143.169807526 138.406735343 120.968568474 190.733273827 120.968568474 252.592258333 c 0
 120.968568474 291.163364122 129.600258187 333.440619649 147.846153846 377.230769231 c 0
 195.470154685 491.528371244 293.296663632 586.008117833 391.313136969 634.489384214 c 0
 439.911962449 658.788796955 489.46274241 672 536 672 c 0
 582.484166522 672 624.627502284 658.474316456 656.480576438 631.34021625 c 0
 696.830192474 597.593264657 719.031431526 545.266726173 719.031431526 483.407741667 c 0
 719.031431526 444.836635878 710.399741813 402.559380351 692.153846154 358.769230769 c 0
EndSplineSet
Substitution2: "(ss01) Slashed Zero subtable" zero.ss01
Substitution2: "(ss02) Dotted Zero subtable" zero.ss02
EndChar

StartChar: one
Encoding: 49 49 17
Width: 440
Flags: HW
LayerCount: 2
Back
SplineSet
352.548828125 688 m 1
 87.451171875 48 l 1025
EndSplineSet
Fore
SplineSet
270.867154037 697.281320656 m 2
 286.549955652 734.349760837 329.786745447 760 372 760 c 0
 383.243245511 760 393.915716246 758.08621367 403.56310456 754.12724939 c 0
 425.461552278 745.140861627 439.942731826 724.817840866 439.942731826 701.743247919 c 0
 439.942731826 694.260172396 438.41974517 686.487713835 435.132845963 678.718679344 c 2
 169.132845963 38.7186793444 l 2
 153.450044348 1.65023916257 110.213254553 -24 68 -24 c 0
 56.7567544889 -24 46.0842837539 -22.0862136702 36.4368954398 -18.1272493904 c 0
 14.5384477224 -9.1408616269 0.0572681738135 11.182159134 0.0572681738135 34.2567520805 c 0
 0.0572681738135 41.7398276044 1.58025482972 49.5122861655 4.86715403707 57.2813206556 c 2
 270.867154037 697.281320656 l 2
315.132845963 678.718679344 m 2
 49.1328459629 38.7186793444 l 2
 46.2252345791 31.8461433462 46.9611215547 29.4384003764 54.6597821216 26.279128541 c 0
 57.7550190413 25.0089472231 62.2329362328 24 68 24 c 0
 91.7867454468 24 118.549955652 42.3497608374 124.867154037 57.2813206556 c 2
 390.867154037 697.281320656 l 2
 393.774765421 704.153856654 393.038878445 706.561599624 385.340217878 709.720871459 c 0
 382.244980959 710.991052777 377.767063767 712 372 712 c 0
 348.213254553 712 321.450044348 693.650239163 315.132845963 678.718679344 c 2
EndSplineSet
Substitution2: "(ss03) Serifed One subtable" one.ss03
Substitution2: "Tabular Figures subtable" one.tnum
EndChar

StartChar: two
Encoding: 50 50 18
Width: 840
Flags: HW
LayerCount: 2
Back
SplineSet
229.587890625 536 m 0
 273.837890625 642.828125 403.666015625 696 538.362304688 696 c 0
 678.362304688 696 751.0390625 624 711.274414062 528 c 0
 685.689453125 466.232421875 639.122070312 435.219726562 505.798828125 382 c 0
 230.235351562 272 113.666992188 232 37.451171875 48 c 1
 547.451171875 48 l 1025
EndSplineSet
Fore
SplineSet
312.195488196 526.866742805 m 0
 296.251217824 489.180285561 252.019016326 464 210 464 c 0
 198.642246518 464 187.878851406 465.952472271 178.179500974 470.049266553 c 0
 156.487461391 479.211511424 143.003367569 499.379901067 143.003367569 521.892671632 c 0
 143.003367569 529.544376042 144.561054744 537.466904145 147.883588517 545.32016579 c 0
 185.151777971 634.106146548 263.957117997 693.569602177 344.793448121 727.16392119 c 0
 413.112625507 755.542656412 486.237696994 768 558 768 c 0
 615.50979213 768 667.968582624 758.785715192 709.442433625 738.609247138 c 0
 771.510903593 708.816381553 808.859302809 655.446769002 808.859302809 592.001696189 c 0
 808.859302809 568.724496152 803.831969615 544.09107478 793.153648262 518.768198427 c 0
 777.793102805 481.464016604 751.872734634 444.514973355 711.899290513 413.184436071 c 0
 663.588871634 374.536100967 603.895942557 348.709411158 527.911368139 318.715500203 c 0
 449.230512039 286.844773682 358.76609541 250.598947059 307.375468191 226.358085164 c 0
 269.636147961 207.972262487 239.378918575 190.197679994 217.586958244 173.940692561 c 0
 196.335586042 157.266876536 179.573627681 141.089327311 163.711131731 120 c 1
 567 120 l 2
 578.357753482 120 589.121148594 118.047527729 598.820499026 113.950733447 c 0
 620.507228886 104.790731287 633.994707382 84.6410180403 633.994707382 62.1193095814 c 0
 633.994707382 54.4571821633 632.433621341 46.5205120562 629.103214026 38.6486402199 c 0
 613.475863202 1.7112655447 570.203748557 -24 528 -24 c 2
 18 -24 l 2
 6.75675448888 -24 -3.91571624609 -22.0862136702 -13.5631045602 -18.1272493904 c 0
 -35.459898615 -9.1415402345 -49.9420152623 11.1756587141 -49.9420152623 34.2532507228 c 0
 -49.9420152623 41.7395896195 -48.417997512 49.5164169941 -45.1286943808 57.291133486 c 0
 -8.92979123368 144.168501039 41.0202328608 213.489917277 114.476206808 269.106583266 c 0
 154.227071178 299.442769232 198.976340701 324.339115893 246.746914628 346.699810072 c 0
 312.816668689 378.21000047 400.298312062 412.367661623 483.083110437 445.282099531 c 0
 554.081720929 473.87876209 592.377751745 494.14292936 606.218764344 504.908161381 c 0
 617.055928551 513.423076115 620.68424688 518.189427568 628.825242968 537.185085105 c 0
 632.981735745 547.576317047 635.137257018 556.826147702 635.137257018 565.125321231 c 0
 635.137257018 584.032343899 623.949863565 598.005351098 599.747678183 609.299704276 c 0
 580.99567687 618.26805273 553.601599334 624 518 624 c 0
 469.717170615 624 425.790376255 615.412656773 393.072535545 601.780223144 c 0
 370.040561427 592.567433497 352.203919722 581.262794225 338.970562748 568.029437252 c 0
 328.161239951 557.220114454 319.041062353 543.980678198 312.195488196 526.866742805 c 0
267.804511804 545.133257195 m 0
 276.991315614 568.100266721 289.838760049 586.779885546 305.029437252 601.970562748 c 0
 323.796080278 620.737205775 347.959438573 635.432566503 374.927464455 646.219776856 c 0
 414.209623745 662.587343227 464.282829385 672 518 672 c 0
 558.398400666 672 593.00432313 665.73194727 620.252321817 652.700295724 c 0
 660.550851245 633.894315324 682.150450931 600.976292933 682.150450931 562.798580347 c 0
 682.150450931 548.705641732 679.207188313 533.895993096 673.174757032 518.814914895 c 0
 663.31575312 495.810572432 652.944071449 480.576923884 635.781235656 467.091838619 c 0
 613.622248255 449.85707064 573.918279071 430.12123791 500.916889563 400.717900469 c 0
 417.701687938 367.632338377 331.183331311 333.78999953 267.253085372 303.300189928 c 0
 221.049625165 281.673038342 179.725899627 258.521340066 143.560159664 230.921170095 c 0
 76.940188292 180.480334627 32.9370322407 119.848877378 -0.871305619172 38.708866514 c 0
 -3.77220405113 31.852197493 -3.03889482165 29.4384070967 4.65978212164 26.279128541 c 0
 7.75501904129 25.0089472231 12.2329362328 24 18 24 c 2
 528 24 l 2
 551.796251443 24 578.524136798 42.2887344553 584.896785974 57.3513597801 c 0
 588.047964371 64.7995996257 586.931335659 66.8663985657 580.143987556 69.7332265142 c 0
 577.219346197 70.9685312988 572.829746518 72 567 72 c 2
 120 72 l 2
 117.39332065 72 113.249543575 72.7272078504 110.196025508 74.0937889135 c 0
 101.313574067 78.0690691212 96.0697737374 87.0285328567 96.0697737374 96.21342597 c 0
 96.0697737374 100.049327756 96.9843773051 103.924548071 98.9305062501 107.492451136 c 0
 124.606889823 154.56582102 154.270952209 185.386342169 188.410855796 212.058141847 c 0
 214.677268467 231.75795135 246.343655669 250.017898255 286.624531809 269.641914836 c 0
 341.23390459 295.401052941 430.769487961 331.155226318 510.088631861 363.284499797 c 0
 586.104057443 393.290588842 640.411128366 417.463899033 682.100709487 450.815563929 c 0
 716.127265366 477.485026645 736.206897195 506.535983396 748.846351738 537.231801573 c 0
 757.40634447 557.531212908 761.507318002 576.512065707 761.507318002 594.003406871 c 0
 761.507318002 638.255956079 735.258041821 672.974524648 688.557566375 695.390752862 c 0
 656.031417376 711.214284808 610.49020787 720 558 720 c 0
 491.762303006 720 424.887374493 708.457343588 363.206551879 682.83607881 c 0
 290.051954194 652.434168084 222.83527154 599.863000817 192.12952084 526.711065326 c 0
 188.93515352 519.160742569 190.068762736 517.133559875 196.856012444 514.266773486 c 0
 199.780653803 513.031468701 204.170253482 512 210 512 c 0
 233.980983674 512 261.748782176 530.819714439 267.804511804 545.133257195 c 0
EndSplineSet
EndChar

StartChar: three
Encoding: 51 51 19
Width: 840
Flags: HW
LayerCount: 2
Back
SplineSet
327.3671875 422 m 0
 633.827148438 512.845703125 737.548828125 688 737.548828125 688 c 1
 277.548828125 688 l 1025
80.56640625 153.767578125 m 0
 96.9736328125 86.4765625 172.215820312 40 281.637695312 40 c 0
 433.516601562 40 596.227539062 129.54296875 641.98046875 240 c 0
 687.733398438 350.45703125 626.48046875 444 461.48046875 444 c 0
 421.185546875 444 366.54296875 433.32421875 327.3671875 422 c 1024
EndSplineSet
Fore
SplineSet
757 760 m 2
 768.934736815 760 780.12454143 758.039822071 790.173363096 753.813813317 c 0
 812.193905864 744.553124888 825.032453381 724.456419917 825.032453381 702.349692701 c 0
 825.032453381 694.570050736 823.442493344 686.541482245 820.103214026 678.64864022 c 0
 819.914783612 678.203259243 819.626709605 677.587787751 819.466252584 677.266873708 c 0
 817.225769357 672.785907254 815.466252584 670.266873708 815.466252584 670.266873708 c 2
 815.204180903 669.742730346 814.804080576 669.025852469 814.579830217 668.65210187 c 0
 810.69012634 662.169262075 756.753335179 575.900461667 629.365227344 488.98541265 c 1
 669.390015118 471.495403624 700.124281753 446.339096879 719.626601887 413.269945346 c 0
 736.052828475 385.892901033 743.953123934 355.003259998 743.953123934 322.659815891 c 0
 743.953123934 292.703761885 737.176084463 261.500605052 724.119074342 230.686061168 c 0
 659.885164709 77.177904249 449.496409437 -32 262 -32 c 0
 126.718310849 -32 19.4999243729 26.0457674937 -5.18643268692 124.791195733 c 0
 -6.44691413032 129.202880785 -6.95837020792 133.436506184 -6.95837020792 137.466398497 c 0
 -6.95837020792 147.271191957 -3.93077115421 155.869973551 -1.29714220208 162.89298409 c 0
 14.6931099987 200.688125656 57.73403882 226 100 226 c 0
 130.002605774 226 158.468561576 211.137942267 166.267118912 181.893352258 c 0
 174.583371349 147.242300438 219.311656712 112 302 112 c 0
 418.357411086 112 532.167546838 182.969886677 559.824979618 249.180104544 c 0
 566.598007162 265.689359182 569.581960627 280.174947939 569.581960627 292.877258489 c 0
 569.581960627 306.395460482 566.202367203 317.893940866 560.413622303 327.662447885 c 0
 546.577868435 350.491441766 512.69996083 372 442 372 c 0
 418.193002132 372 368.627582943 363.370352495 338.160686534 354.80153788 c 0
 328.916964927 352.490607478 319.085172652 350 307 350 c 0
 295.642246518 350 284.878851406 351.952472271 275.179500974 356.049266553 c 0
 253.474614021 365.216937873 239.998702265 385.430494992 239.998702265 407.921599764 c 0
 239.998702265 415.548110424 241.548190718 423.436498266 244.851741934 431.244892048 c 0
 255.210555266 456.40201014 277.949819741 473.219496786 300.984186693 483.822393452 c 0
 309.128223315 487.569215856 313.567058097 488.375317713 316.66366939 489.154846597 c 0
 438.616326725 525.710617576 517.229128033 573.487732852 571.150389929 615.854438627 c 1
 571.150389929 615.854438627 284.759055907 616 258 616 c 0
 246.642246518 616 235.878851406 617.952472271 226.179500974 622.049266553 c 0
 204.492771114 631.209268713 191.005292618 651.35898196 191.005292618 673.880690419 c 0
 191.005292618 681.542817837 192.566378659 689.479487944 195.896785974 697.35135978 c 0
 211.524136798 734.288734455 254.796251443 760 297 760 c 2
 757 760 l 2
757 712 m 2
 297 712 l 2
 273.203748557 712 246.475863202 693.711265545 240.103214026 678.64864022 c 0
 236.952035629 671.200400374 238.068664341 669.133601434 244.856012444 666.266773486 c 0
 247.780653803 665.031468701 252.170253482 664 258 664 c 2
 635 664 l 2
 640.66438821 664 646.266904129 661.939257862 650.586789961 658.249711744 c 0
 656.094981366 653.545252642 658.889736501 646.760239914 658.889736501 639.964430055 c 0
 658.889736501 633.817769819 656.60340216 627.662276663 651.970562748 623.029437252 c 0
 638.11497179 609.173846293 620.521991315 593.676388671 600.871462926 578.162813627 c 0
 542.624528822 532.397365402 456.766846067 480.868660921 329.862310896 443.001985104 c 0
 329.619185899 442.929439742 329.15351232 442.799744326 328.820855001 442.716579997 c 0
 324.487838816 441.63332595 323.38183982 441.35810418 321.295221813 440.314795176 c 0
 303.783435164 432.434491184 292.880228898 421.818465687 289.148258066 412.755107952 c 0
 285.923375825 405.132659019 287.068674707 403.133597056 293.856012444 400.266773486 c 0
 296.780653803 399.031468701 301.170253482 398 307 398 c 0
 311.278391457 398 317.387029232 399.108479834 325.817208494 401.192644596 c 0
 359.448229616 410.557481995 409.757466806 420 442 420 c 0
 521.30003917 420 575.422131565 395.508558234 601.586377697 352.337552115 c 0
 612.297270269 334.2629209 617.441461804 314.196399113 617.441461804 292.976293441 c 0
 617.441461804 273.043740829 612.902590342 252.093347233 604.175020382 230.819895456 c 0
 565.832453162 139.030113323 433.642588914 64 302 64 c 0
 209.042652084 64 136.287198211 103.696405257 119.759633061 169.993419305 c 0
 119.479086919 170.939903504 116.027858201 178 100 178 c 0
 76.4961183139 178 49.9309543988 160.101992058 43.2781615263 145.05288097 c 0
 42.1178009697 141.86517609 41.2288474979 137.917314804 41.1959161311 137.17087049 c 0
 58.4920672194 67.9862661371 137.284534476 16 262 16 c 0
 434.503590563 16 626.114835291 120.822095751 679.880925658 249.313938832 c 0
 690.862211518 275.229773462 696.104569366 299.833047559 696.104569366 322.536602196 c 0
 696.104569366 347.065348468 689.985439831 369.37665179 678.373398113 388.730054654 c 0
 659.563002259 420.625943276 623.249466696 445.647270244 568.458944981 458.64841099 c 0
 563.517904834 459.820861195 557.878374296 463.285064863 554.478645097 468.038742795 c 0
 551.505933598 472.195342401 550.09318148 477.031889685 550.09318148 481.836195665 c 0
 550.09318148 490.001633251 554.17415311 498.073936422 561.613367092 502.556539719 c 0
 708.43355874 591.025116737 767.952024347 684.457501998 773.039653188 692.72342356 c 0
 773.631828949 693.801487125 775.046694684 696.215149731 776.259786574 698.254176524 c 0
 778.766421858 705.195088094 778.536035885 707.098440685 770.429167135 710.009116483 c 0
 767.348160724 711.115315568 762.864535047 712 757 712 c 2
EndSplineSet
EndChar

StartChar: four
Encoding: 52 52 20
Width: 840
Flags: HW
LayerCount: 2
Back
SplineSet
699.407226562 270 m 1
 99.4072265625 270 l 1
 125.087890625 332 l 1
 654.219726562 686 l 1
 731.719726562 686 l 1
 466.623046875 46 l 1025
EndSplineSet
Fore
SplineSet
447 -26 m 0
 435.642246518 -26 424.878851406 -24.047527729 415.179500974 -19.9507334467 c 0
 393.479466017 -10.7851115042 380.000465424 9.41139107853 380.000465424 31.9106848601 c 0
 380.000465424 39.5467060332 381.553046067 47.4479745455 384.863754999 55.2732865645 c 2
 444.062903185 198 l 1
 80 198 l 2
 68.7567544889 198 58.0842837539 199.91378633 48.4368954398 203.87275061 c 0
 26.5443597028 212.856712295 12.0598292301 233.158917605 12.0598292301 256.244227876 c 0
 12.0598292301 263.738973041 13.5865047127 271.527058616 16.8820051476 279.31642328 c 2
 42.8567153532 341.256116848 l 2
 50.4632881959 359.51189167 64.2628995157 372.295339605 79.4948429291 382.840531199 c 2
 608.527329751 736.862270962 l 2
 628.132273594 750.340669854 651.553117893 758 674 758 c 2
 752 758 l 2
 763.357753482 758 774.121148594 756.047527729 783.820499026 751.950733447 c 0
 805.518943871 742.785783133 818.998957074 722.594870673 818.998957074 700.092894908 c 0
 818.998957074 692.453755789 817.445361946 684.548262578 814.132304278 676.717398997 c 2
 674.969907412 342 l 1
 719 342 l 2
 730.357753482 342 741.121148594 340.047527729 750.820499026 335.950733447 c 0
 772.507228886 326.790731287 785.994707382 306.64101804 785.994707382 284.119309581 c 0
 785.994707382 276.457182163 784.433621341 268.520512056 781.103214026 260.64864022 c 0
 765.475863202 223.711265545 722.203748557 198 680 198 c 2
 616.028005906 198 l 1
 549.136245001 36.7267134355 l 2
 533.302839267 -0.697700119184 488.999980205 -26 447 -26 c 0
447 22 m 0
 471.000019795 22 498.697160733 40.6977001192 504.863754999 55.2732865645 c 2
 577.831276382 231.194981955 l 2
 581.198960058 239.314328899 590.098658804 246 600 246 c 2
 680 246 l 2
 703.796251443 246 730.524136798 264.288734455 736.896785974 279.35135978 c 0
 740.047964371 286.799599626 738.931335659 288.866398566 732.143987556 291.733226514 c 0
 729.219346197 292.968531299 724.829746518 294 719 294 c 2
 639 294 l 2
 636.804710636 294 633.934863628 294.407209101 631.553423437 295.184468065 c 0
 621.457396372 298.479628517 615.046873607 308.133616979 615.046873607 318.214814897 c 0
 615.046873607 321.229090257 615.619979681 324.281558499 616.839033819 327.21366257 c 2
 769.867695722 695.282601003 l 2
 773.066473388 702.843348212 771.931328964 704.866401393 765.143987556 707.733226514 c 0
 762.219346197 708.968531299 757.829746518 710 752 710 c 2
 674 710 l 2
 662.446882107 710 647.867726406 705.659330146 635.472670249 697.137729038 c 2
 106.505157071 343.159468801 l 2
 95.7466273787 335.711255938 89.5249269187 328.459824605 87.1538461538 322.769230769 c 2
 61.1326651639 260.71855977 l 2
 58.2251671166 253.846291658 58.9612367194 251.438353117 66.6597821216 248.279128541 c 0
 69.7550190413 247.008947223 74.2329362328 246 80 246 c 2
 480 246 l 2
 482.148107451 246 485.054096511 245.594172499 487.427344906 244.821799834 c 0
 497.532837438 241.53297165 503.953307378 231.873777411 503.953307378 221.785331753 c 0
 503.953307378 218.777567406 503.382609954 215.731648115 502.168723618 212.805018045 c 2
 429.136245001 36.7267134355 l 2
 425.93101928 29.1507253661 427.068671943 27.1335982237 433.856012444 24.2667734858 c 0
 436.780653803 23.0314687012 441.170253482 22 447 22 c 0
502.972264571 342 m 1
 595.467442078 564.992249647 l 1
 262.054592926 342 l 1
 502.972264571 342 l 1
541.168580286 308.804672486 m 2
 537.800924669 300.685750803 528.901300476 294 519 294 c 2
 183 294 l 2
 176.236912233 294 168.746967482 297.318815836 164.158923019 303.133466504 c 0
 160.738738246 307.468032098 159.100195597 312.681392846 159.100195597 317.867472205 c 0
 159.100195597 325.639103205 162.779822432 333.349469196 169.6575087 337.949384098 c 2
 634.6575087 648.949384098 l 2
 640.386056871 652.780735671 648.398523283 654.109447969 655.427700645 651.821684055 c 0
 665.533018155 648.532738629 671.953304032 638.873640616 671.953304032 628.785329018 c 0
 671.953304032 625.777444259 671.382562105 622.731403848 670.168580286 619.804672486 c 2
 541.168580286 308.804672486 l 2
EndSplineSet
EndChar

StartChar: five
Encoding: 53 53 21
Width: 840
Flags: HW
LayerCount: 2
Back
SplineSet
72.064453125 155.704101562 m 0
 90.7822265625 86.712890625 162.040039062 40 266.637695312 40 c 0
 419.897460938 40 585.678710938 140.288085938 636.921875 264 c 0
 688.165039062 387.711914062 605.465820312 488 452.206054688 488 c 0
 361.94140625 488 266.451171875 456 183.254882812 400 c 1
 342.548828125 688 l 1
 742.548828125 688 l 1025
EndSplineSet
Fore
SplineSet
164 328 m 0
 152.844359865 328 141.995400366 329.920823063 132.021593831 334.038087572 c 0
 111.451033958 342.52977385 95.995315567 362.106728096 95.995315567 385.891892171 c 0
 95.995315567 393.313347146 97.5000331881 401.14449951 100.823596022 409.176443025 c 0
 101.031637223 409.67920926 101.352956176 410.371543813 101.533747416 410.733126292 c 0
 102.988392573 413.642416605 104.576552109 415.887170401 104.697378849 416.070827047 c 2
 263.942822186 704.515403656 l 2
 281.999770677 737.851308563 323.291946957 760 362 760 c 2
 762 760 l 2
 773.243245511 760 783.915716246 758.08621367 793.56310456 754.12724939 c 0
 815.449766009 745.145698316 829.937628023 724.864181232 829.937628023 701.768234532 c 0
 829.937628023 694.261886389 828.40728013 686.458251013 825.103214026 678.64864022 c 0
 809.331620744 641.370328826 764.989366637 616 723 616 c 2
 390.20454283 616 l 1
 351.701456096 545.850540607 l 1
 392.732088233 555.35150926 431.831642075 560 472 560 c 0
 522.693553159 560 568.088442121 551.528376627 606.720110513 535.648088173 c 0
 690.141101819 501.356289237 739.051786606 432.177267364 739.051786606 349.229168052 c 0
 739.051786606 319.231399405 732.654898294 287.432812574 719.180005112 254.832264554 c 0
 652.476740258 93.4533979696 442.864531678 -32 247 -32 c 0
 113.50861474 -32 13.5852077002 29.0276878992 -13.112972017 126.534083388 c 0
 -14.5155221147 131.44300873 -15.1274264366 136.226878481 -15.1274264366 140.897747487 c 0
 -15.1274264366 149.233191096 -13.1787237644 157.208766591 -10.2971422021 164.89298409 c 0
 5.83735819809 203.029075945 49.9483200412 228 92 228 c 0
 121.389494743 228 149.55105814 213.828580154 157.157653698 185.303846811 c 0
 168.317070757 145.129945397 211.595224442 112 287 112 c 0
 398.204694676 112 519.473587839 186.569659593 554.779656551 273.069527938 c 0
 561.756043681 290.161676405 564.799964421 305.647843548 564.799964421 319.921576069 c 0
 564.799964421 372.799204591 520.423969922 416 432 416 c 0
 365.650679321 416 294.856942083 392.726884518 229.487959716 349.14756294 c 0
 213.568034239 338.126076072 190.264993344 328 164 328 c 0
164 376 m 0
 177.735006656 376 192.431965761 381.873923928 202.512040284 388.85243706 c 0
 275.143057917 437.273115482 354.349320679 464 432 464 c 0
 535.573354171 464 612.800037377 407.36276833 612.800037377 319.951158061 c 0
 612.800037377 298.662078553 608.248086269 277.048441972 599.220343449 254.930472062 c 0
 554.526412161 145.430340407 415.795305325 64 287 64 c 0
 198.404775558 64 129.682929243 104.870054603 110.842346302 172.696153189 c 0
 110.44894186 174.171419846 108.610505257 180 92 180 c 0
 68.5394000007 180 41.38538915 162.438249579 34.3026326923 147.112279874 c 0
 32.8582551197 143.032422439 33.0022839832 139.85332473 33.112972017 139.465916612 c 0
 52.4147922998 68.9723121008 126.49138526 16 247 16 c 0
 425.135468322 16 617.523259742 134.54660203 674.819994888 273.167735446 c 0
 686.23649967 300.788311533 691.680742235 326.922765238 691.680742235 351.071609538 c 0
 691.680742235 414.532732539 654.083129516 464.281356039 588.47052463 491.252676078 c 0
 556.543466864 504.376905704 517.36109165 512 472 512 c 0
 418.861364363 512 364.450399704 502.505483713 310.711112274 484.272511192 c 0
 305.935130519 482.652088811 298.766058363 482.583262496 293.13844202 485.119650958 c 0
 284.286918328 489.109066937 279.070334379 498.050182017 279.070334379 507.212882922 c 0
 279.070334379 511.069513511 279.994511607 514.96540055 281.960806407 518.547828062 c 2
 354.960806407 651.547828062 l 2
 358.678864762 658.321824791 367.024662613 664 376 664 c 2
 723 664 l 2
 747.010633363 664 774.668379256 682.629671174 780.896785974 697.35135978 c 0
 783.756483632 704.110645152 783.038995331 706.561551657 775.340217878 709.720871459 c 0
 772.244980959 710.991052777 767.767063767 712 762 712 c 2
 362 712 l 2
 340.708053043 712 314.000229323 696.148691437 306.057177814 681.484596344 c 2
 147.247300344 393.828969229 l 2
 146.675211335 392.68479121 145.532783467 390.799019675 144.661291387 389.474351713 c 0
 142.472661881 383.177589852 142.455089277 381.019937263 151.913600803 377.816021841 c 0
 155.112713591 376.73237493 159.282934179 376 164 376 c 0
EndSplineSet
EndChar

StartChar: six
Encoding: 54 54 22
Width: 840
Flags: HW
LayerCount: 2
Back
SplineSet
753.5390625 624 m 4
 753.5390625 624 723.362304688 696 583.362304688 696 c 4
 483.362304688 696 253.756835938 624.52734375 147.5 368 c 4
 37.228515625 101.782226562 204.1328125 40 311.637695312 40 c 4
 475.172851562 40 604.655273438 131.782226562 642.024414062 222 c 4
 681.7890625 318 602.412109375 404 452.412109375 404 c 4
 302.896484375 404 174.360351562 340.1796875 117.953125 204 c 1028
EndSplineSet
Fore
SplineSet
791.818494637 633.166129254 m 0
 793.393394536 637.374512643 793.358314463 639.569467141 792.803609209 641.734951115 c 0
 789.255453941 648.698620332 754.243125001 720 603 720 c 0
 535.449841618 720 426.51675228 694.404048635 320.642364879 621.254471886 c 0
 236.090435962 562.644612069 159.298590401 477.29469632 110.169810726 358.807639455 c 0
 83.324395664 294.541342792 72.1254021763 241.834600736 72.1254021763 198.760856847 c 0
 72.1254021763 138.998890489 93.6831559177 97.7801800524 124.920598165 69.9593330509 c 0
 169.409786102 30.7041672241 235.518931095 16 292 16 c 0
 373.092085401 16 450.217901832 36.0099420432 515.983322852 70.3223356192 c 0
 597.968441022 112.268210032 655.608048041 173.778087162 679.913712133 231.391513156 c 0
 687.974682959 250.200445085 691.543860212 268.384262574 691.543860212 285.389687365 c 0
 691.543860212 301.35950785 688.396161074 316.29009004 682.864877897 329.723206327 c 0
 659.434375111 384.663695618 586.046646574 428 472 428 c 0
 398.981918845 428 326.493506237 414.472741029 260.609761099 382.472064819 c 0
 248.895662908 376.615015724 237.384640004 370.797342234 227.885011813 364.752124294 c 0
 222.180441809 361.121943383 213.919387714 359.873633649 206.849356154 362.426409127 c 0
 197.104797794 365.944875687 191.053603293 375.403107703 191.053603293 385.21850466 c 0
 191.053603293 388.473099709 191.718906006 391.766963501 193.135468163 394.896577568 c 0
 238.040927965 494.106314338 301.238042423 558.57315769 360.28414991 599.694553976 c 0
 439.719851706 654.769973888 519.287046815 672 563 672 c 0
 616.426676493 672 653.222751989 660.192626181 676.724429442 645.349461473 c 0
 698.269107755 632.012279661 709.10479118 616.185790254 712.292638022 611.279965394 c 0
 713.179685395 610.044133605 714.108396116 608.536426002 714.791025228 607.057396259 c 0
 715.837947747 604.789064134 718.819445339 600 734 600 c 0
 757.738228601 600 785.130298469 618.055628932 791.818494637 633.166129254 c 0
836.195488196 614.866742805 m 0
 820.251217824 577.180285561 776.019016326 552 734 552 c 0
 707.38289235 552 683.385553981 563.568945711 672.229903449 584.839784625 c 0
 670.387547872 587.666767002 666.040264186 595.51049009 651.275570558 604.650538527 c 0
 636.777248011 613.807373819 609.573323507 624 563 624 c 0
 530.703256546 624 458.302210316 609.245258826 387.695295424 560.291131167 c 0
 348.762827701 533.177448289 306.683155463 493.310993871 272.117118701 439.91761329 c 1
 336.989890918 465.517943108 404.512997364 476 472 476 c 0
 595.953353426 476 692.565624889 429.336304382 727.135122103 348.276793673 c 0
 735.165071078 328.775489018 739.479623337 307.487632177 739.479623337 285.318370113 c 0
 739.479623337 261.716668291 734.589499045 237.115979591 724.086287867 212.608486844 c 0
 694.391951959 142.221912838 628.031558978 73.7317899683 538.016677148 27.6776643808 c 0
 465.782098168 -10.0099420432 380.907914599 -32 292 -32 c 0
 228.481068905 -32 150.590213898 -16.7041672241 93.079401835 34.0406669491 c 0
 49.794977675 72.5908572166 24.6347710487 127.555004966 24.6347710487 198.912004625 c 0
 24.6347710487 249.961157566 37.5118726352 309.400242373 65.8422844646 377.221531298 c 0
 118.685335803 504.666537467 201.936634298 597.374187025 293.342463238 660.735045722 c 0
 407.499552196 739.607216275 524.542985906 768 603 768 c 0
 782.033188234 768 831.277760996 672.110109468 836.466252584 661.733126292 c 0
 836.825039742 661.015551977 837.260954792 659.98948385 837.471900262 659.426962598 c 0
 839.850750433 653.08336214 841.023654771 646.290011006 841.023654771 639.365111496 c 0
 841.023654771 631.208159633 839.396265531 622.868686142 836.195488196 614.866742805 c 0
201.089675128 197.000616299 m 1
 206.764816905 171.433339779 217.869447706 155.801919443 231.652742811 144.194934092 c 0
 258.442932837 120.652039827 299.332129149 112 332 112 c 0
 388.254066631 112 434.222549381 125.02329522 470.885717508 144.271458487 c 0
 516.910632656 168.204414364 547.635043253 201.924103808 559.816281119 231.159074687 c 0
 563.321085956 239.726375399 564.916712558 247.568114482 564.916712558 255.050029864 c 0
 564.916712558 262.196096499 563.461120066 269.013917993 560.823129534 275.822158202 c 0
 548.796403839 303.450864372 508.469730255 332 433 332 c 0
 379.065896988 332 333.486086049 321.46604323 300.520120117 305.428546291 c 0
 260.425464597 285.826714703 226.019477455 255.158394172 201.089675128 197.000616299 c 1
156.700639721 215.269369655 m 0
 185.405571606 282.937300068 230.32183867 324.538633561 279.458956832 348.561224662 c 0
 320.53650015 368.544894384 372.924100239 380 433 380 c 0
 519.176340464 380 582.618938546 347.255618891 605.18822307 294.151420011 c 0
 610.261795692 281.467488456 612.809953367 268.387293928 612.809953367 255.156203365 c 0
 612.809953367 241.12327209 609.943586268 226.920601149 604.183718881 212.840925313 c 0
 586.358844949 170.061227878 547.132357969 129.817940761 493.072465679 101.70679677 c 0
 449.816088906 78.9971989644 395.73050664 64 332 64 c 0
 292.667870851 64 239.557067163 73.3479601731 200.347257189 107.805065908 c 0
 177.383351286 127.143091932 158.088635512 157.842011856 152.255380751 197.508144228 c 0
 151.513069093 202.555863506 152.640413873 209.640139761 156.700639721 215.269369655 c 0
EndSplineSet
EndChar

StartChar: seven
Encoding: 55 55 23
Width: 840
Flags: HW
LayerCount: 2
Back
SplineSet
262.548828125 688 m 1
 822.548828125 688 l 1
 798.524414062 630 l 1
 798.524414062 630 396.391601562 480 230.706054688 80 c 2
 217.451171875 48 l 1025
EndSplineSet
Fore
SplineSet
842 760 m 2
 853.001661028 760 863.321226479 758.200927084 872.610691721 754.459068955 c 0
 895.926684335 745.067232693 908.838411975 723.984747871 908.838411975 701.726698992 c 0
 908.838411975 694.135638664 907.336601744 686.407844185 904.233513936 678.960433447 c 2
 881.252023304 621.007109244 l 2
 870.736192743 595.468663596 846.405362903 575.252378759 817.998620072 565.371772557 c 2
 817.998620072 565.371772557 791.391978892 555.784794117 738.510009036 526.940083286 c 0
 697.454395387 504.45724724 644.522313247 472.097695459 588.898347533 428.184038317 c 0
 489.005143388 348.857082084 380.304645731 234.26601381 313.096972773 70.6299405225 c 1
 299.046311306 38.5141428835 l 2
 283.525443591 1.82845555682 240.185494028 -24 198 -24 c 0
 186.756754489 -24 176.084283754 -22.0862136702 166.43689544 -18.1272493904 c 0
 144.572758675 -9.15494168999 130.072103608 11.0471964378 130.072103608 34.1838119674 c 0
 130.072103608 41.7347225979 131.616599021 49.5981906174 134.953688694 57.4858571165 c 2
 148.91260649 89.3919549361 l 1
 261.374227713 361.667458949 476.904309154 529.022227157 622.410377695 616 c 1
 243 616 l 2
 231.642246518 616 220.878851406 617.952472271 211.179500974 622.049266553 c 0
 189.492771114 631.209268713 176.005292618 651.35898196 176.005292618 673.880690419 c 0
 176.005292618 681.542817837 177.566378659 689.479487944 180.896785974 697.35135978 c 0
 196.524136798 734.288734455 239.796251443 760 282 760 c 2
 842 760 l 2
842 712 m 2
 282 712 l 2
 258.203748557 712 231.475863202 693.711265545 225.103214026 678.64864022 c 0
 221.952035629 671.200400374 223.068664341 669.133601434 229.856012444 666.266773486 c 0
 232.780653803 665.031468701 237.170253482 664 243 664 c 2
 716 664 l 2
 724.334667593 664 732.255752503 659.526004632 736.557992881 652.384220957 c 0
 738.844246855 648.589005004 739.92131492 644.376380099 739.92131492 640.201543428 c 0
 739.92131492 631.377298399 735.109385068 622.721876804 726.733126292 618.533747416 c 0
 596.976378675 553.655373607 322.842119048 384.751064787 193.08739351 70.6080450639 c 1
 179.046311306 38.5141428835 l 2
 176.278623203 31.9723346387 176.960780211 29.4385404526 184.659782122 26.279128541 c 0
 187.755019041 25.0089472231 192.232936233 24 198 24 c 0
 221.814505972 24 248.474556409 42.1715444432 254.953688694 57.4858571165 c 2
 268.903027227 89.3700594775 l 1
 339.689547154 261.719847126 455.025023365 383.166873867 559.074828554 465.79466034 c 0
 617.502327514 511.921633204 672.549771939 545.545034867 715.472449051 569.050310428 c 0
 771.634981206 599.684418876 800.571872357 610.114814707 802.001379928 610.628227443 c 0
 819.594637097 616.747621241 833.263807257 630.531336405 836.747976696 638.992890756 c 2
 859.766486064 697.039566553 l 2
 862.77304483 704.255307592 861.626437191 707.13583313 854.676266197 709.935408042 c 0
 851.924433243 711.043864582 847.769172305 712 842 712 c 2
EndSplineSet
EndChar

StartChar: eight
Encoding: 56 56 24
Width: 840
Flags: HW
LayerCount: 2
Back
SplineSet
529.970703125 380 m 0
 529.970703125 380 709.693359375 451.756835938 747.901367188 544 c 0
 782.942382812 628.595703125 693.956054688 696 555.862304688 696 c 0
 407.768554688 696 272.833007812 628.333007812 237.901367188 544 c 0
 201.451171875 456 282.689453125 386 439.956054688 386 c 0
 618.79296875 386 665.653320312 297.151367188 632.0390625 216 c 0
 594.416992188 125.171875 461.7890625 40 284.137695312 40 c 0
 119.137695312 40 48.90234375 136 87.009765625 228 c 0
 138.373046875 352 318.254882812 400 318.254882812 400 c 1024
EndSplineSet
Fore
SplineSet
320.00535821 534.413274324 m 0
 316.663457612 526.115350613 315.693480513 518.349935827 316.612877842 513.293250517 c 0
 319.992356319 494.947510215 355.402531831 458 460 458 c 0
 485.780573168 458 506.605277153 456.480247932 530.286163872 453.655512269 c 1
 547.164173082 461.405870659 572.404169602 473.964423529 598.289675962 490.358577556 c 0
 635.471575406 513.239746445 660.244365365 539.538836175 665.896341359 553.354777495 c 0
 670.235715361 563.273346643 669.794611619 569.694698809 664.331553069 578.799796393 c 0
 653.135773697 598.081416423 608.99864584 624 536 624 c 0
 442.312367686 624 367.775636398 589.834510901 337.970562748 560.029437252 c 0
 337.780768237 559.83964274 337.412474995 559.485372729 337.144147056 559.241438238 c 0
 329.54123345 552.329698596 324.560960214 544.279652251 320.00535821 534.413274324 c 0
275.993103366 553.583448079 m 0
 282.051042451 566.910914066 290.865593521 581.692828601 304.51153975 594.450469687 c 0
 347.007062351 636.505789419 432.086461514 672 536 672 c 0
 617.00135416 672 680.864226303 645.918583577 705.668446931 603.200203607 c 0
 712.78264854 591.343200925 716.361811585 577.977986135 716.361811585 564.599445357 c 0
 716.361811585 554.401766113 714.282274429 544.196344307 710.103658641 534.645222505 c 0
 697.755634635 504.461163825 664.528424594 474.760253555 623.710324038 449.641422444 c 0
 592.620313249 429.951082277 562.411796781 415.363844431 543.747323185 407.068522833 c 0
 539.714743909 405.276265377 534.241345642 404.765222385 530.895859582 405.201590132 c 0
 508.662275951 408.101622779 485.813192616 410 460 410 c 0
 350.599016584 410 280.003371024 447.075329278 269.392091191 504.6794198 c 0
 268.602232877 509.023640526 268.236731696 513.361861852 268.236731696 517.667478783 c 0
 268.236731696 530.127440917 271.297647989 542.314355173 275.993103366 553.583448079 c 0
594.056372614 206.526147182 m 0
 572.847440604 155.103221314 520.705364137 112.640302711 443.590477879 86.2310950889 c 0
 404.211819845 73.4596384292 357.949329983 64 304 64 c 0
 263.205089327 64 228.836902263 70.5475563254 200.790587575 82.2616539987 c 0
 145.51114878 105.350204226 116.255193431 149.597015191 116.255193431 195.05532147 c 0
 116.255193431 209.235183321 119.10182842 223.53292493 124.893207885 237.343137499 c 0
 151.968319867 300.910791719 215.636502054 339.241151529 266.242423466 360.929403563 c 0
 280.28884188 367.412365907 293.496911555 371.324184172 297.545936834 373.05948072 c 0
 302.332946673 375.111056366 308.271967339 375.386810603 312.654400615 374.324402537 c 0
 343.783516122 366.777950292 379.906609408 362 420 362 c 0
 491.253081582 362 538.189845914 346.538324804 567.301625137 322.489463707 c 0
 592.109029906 301.959197691 602.747351329 275.178813491 602.747351329 248.504410366 c 0
 602.747351329 234.150854863 599.666982832 219.827986605 594.056372614 206.526147182 c 0
549.862702098 225.274971822 m 0
 553.348296689 233.318651649 555.212749101 241.273691614 555.212749101 248.939066814 c 0
 555.212749101 262.381810006 549.478714988 274.933703087 536.698374863 285.510536293 c 0
 519.810154086 299.461675196 484.746918418 314 420 314 c 0
 379.137398096 314 341.908248261 318.49862991 308.702169327 325.957493943 c 0
 302.775618209 323.842805072 294.46812027 321.090847392 285.757576534 317.070596437 c 0
 238.363497946 296.758848471 188.031680133 263.089208281 169.106792115 218.656862501 c 0
 165.817410672 210.812952904 164.018123036 202.464248798 164.018123036 194.010325195 c 0
 164.018123036 168.995318203 179.77191895 143.059054121 219.289976085 126.553556472 c 0
 240.28749423 117.783527997 268.322067223 112 304 112 c 0
 352.050670017 112 393.788180155 120.540361571 428.409522121 131.768904911 c 0
 497.052423191 155.276747743 536.323336383 191.824774175 549.862702098 225.274971822 c 0
215.976352303 379.657092744 m 1
 148.467276047 344.938139241 78.8437532232 290.744365236 49.1649323459 218.795708563 c 0
 40.9903019615 199.240710389 37.2952607021 180.725820825 37.291195933 163.191536063 c 0
 37.291195933 87.4077375301 111.156641783 16 264 16 c 0
 350.408945861 16 431.139214567 35.2768686941 498.82076883 66.7344925067 c 0
 583.86107065 106.865870894 645.915160564 166.734113329 669.816281119 225.159074687 c 0
 677.630481661 243.913155985 681.584719065 262.083815397 681.584719065 279.29603202 c 0
 681.584719065 310.500951292 668.587954247 338.555666301 642.032663145 361.225502641 c 2
 630.6 369.8 l 2
 624.359178595 374.480616054 621.106245089 381.768628829 621.106245089 389.090529934 c 0
 621.106245089 394.716915264 623.027063955 400.363311253 626.988966185 404.861987924 c 0
 628.771539847 406.886071833 632.725136244 409.635644956 633.344569652 409.979774627 c 0
 642.541346582 415.089095144 650.352204517 419.412546548 658.963214533 425.153219892 c 0
 709.203130324 456.67630431 764.183441226 501.240258941 785.878828726 553.309188943 c 0
 792.222548567 568.235588567 795.038572065 582.151903647 795.038572065 595.080386882 c 0
 795.038572065 611.28901934 790.612343158 625.944976593 783.16230112 639.092109601 c 0
 756.057574977 686.126781437 680.355898131 720 576 720 c 0
 450.169523198 720 320.858143316 674.991829132 245.917859646 600.976734149 c 0
 225.056909264 580.115783767 209.702605359 557.338110644 200.165705134 534.796346475 c 0
 193.326411617 518.008989663 190.373346537 502.025832296 190.373346537 487.785822133 c 0
 190.373346537 482.356619214 190.802610635 477.180804044 191.609421632 472.310414401 c 0
 196.040130617 450.146585274 204.883707028 434.213952461 221.529987086 418.399986406 c 0
 226.443786737 413.731876738 228.889121063 407.3705056 228.889121063 401.012398507 c 0
 228.889121063 394.428896803 226.267339704 387.848894665 221.049456199 383.155814512 c 0
 219.475678147 381.740323627 215.976352303 379.657092744 215.976352303 379.657092744 c 1
167.563178978 407.855324034 m 1
 156.978055697 423.151134582 148.344279168 443.123006297 144.39151213 463.677394892 c 0
 142.991964809 471.724791988 142.291829843 479.906104205 142.291829843 488.200555093 c 0
 142.291829843 509.252656909 146.802046569 531.033589523 155.834294866 553.203653525 c 0
 168.297394641 582.661889356 186.943090736 609.884216233 212.082140354 635.023265851 c 0
 299.141856684 721.008170868 439.830476802 768 576 768 c 0
 687.644101869 768 783.942425023 733.873218563 824.83769888 662.907890399 c 0
 836.362305891 642.570348615 842.811399189 619.379184307 842.811399189 594.77817392 c 0
 842.811399189 575.389189196 838.805473322 555.124462934 830.121171274 534.690811057 c 0
 802.013908715 467.233380916 738.556125183 418.622967562 686.152811541 385.549264197 c 1
 715.406850472 354.959726812 729.108238077 317.404757575 729.108238077 278.4732892 c 0
 729.108238077 254.684752396 723.992616104 230.382278651 714.183718881 206.840925313 c 0
 684.084839436 133.265886671 612.13892935 67.1341291065 519.17923117 23.2655074933 c 0
 444.860785433 -11.2768686941 357.591054139 -32 264 -32 c 0
 99.0489701402 -32 -10.7088053442 49.5473111366 -10.7088053442 163.186029552 c 0
 -10.7088053442 187.549108219 -5.44779920748 212.606060905 4.83506765408 237.204291437 c 0
 36.7993769789 314.693526164 101.911082267 369.499103124 167.563178978 407.855324034 c 1
EndSplineSet
EndChar

StartChar: nine
Encoding: 57 57 25
Width: 840
Flags: HW
LayerCount: 2
Back
SplineSet
86.4609375 112 m 0
 86.4609375 112 116.637695312 40 256.637695312 40 c 0
 356.637695312 40 586.243164062 111.47265625 692.5 368 c 0
 802.771484375 634.217773438 635.8671875 696 528.362304688 696 c 0
 364.827148438 696 235.344726562 604.217773438 197.975585938 514 c 0
 158.2109375 418 237.587890625 332 387.587890625 332 c 0
 537.103515625 332 665.639648438 395.8203125 722.046875 532 c 1024
EndSplineSet
Fore
SplineSet
48.1815053635 102.833870746 m 0
 46.6066054644 98.6254873566 46.6416855365 96.430532859 47.196390791 94.2650488849 c 0
 50.7445460589 87.3013796675 85.7568749989 16 237 16 c 0
 304.550158382 16 413.48324772 41.5959513646 519.357635121 114.745528114 c 0
 603.909564038 173.355387931 680.701409599 258.70530368 729.830189274 377.192360545 c 0
 756.675604336 441.458657208 767.874597824 494.165399264 767.874597824 537.239143153 c 0
 767.874597824 597.001109511 746.316844082 638.219819948 715.079401835 666.040666949 c 0
 670.590213898 705.295832776 604.481068905 720 548 720 c 0
 466.907914599 720 389.782098168 699.990057957 324.016677148 665.677664381 c 0
 242.031558978 623.731789968 184.391951959 562.221912838 160.086287867 504.608486844 c 0
 152.025317041 485.799554915 148.456139788 467.615737426 148.456139788 450.610312635 c 0
 148.456139788 434.64049215 151.603838926 419.70990996 157.135122103 406.276793673 c 0
 180.565624889 351.336304382 253.953353426 308 368 308 c 0
 441.018081155 308 513.506493763 321.527258971 579.390238901 353.527935181 c 0
 591.104337092 359.384984276 602.615359996 365.202657766 612.114988187 371.247875706 c 0
 617.819558191 374.878056617 626.080612286 376.126366351 633.150643846 373.573590873 c 0
 642.895202206 370.055124313 648.946396707 360.596892297 648.946396707 350.78149534 c 0
 648.946396707 347.526900291 648.281093994 344.233036499 646.864531837 341.103422432 c 0
 601.959072035 241.893685662 538.761957577 177.42684231 479.71585009 136.305446024 c 0
 400.280148294 81.2300261121 320.712953185 64 277 64 c 0
 223.573323507 64 186.777248011 75.8073738195 163.275570558 90.6505385265 c 0
 141.730892245 103.987720339 130.89520882 119.814209746 127.707361978 124.720034606 c 0
 126.820314605 125.955866395 125.891603884 127.463573998 125.208974772 128.942603741 c 0
 124.162052253 131.210935866 121.180554661 136 106 136 c 0
 82.2617713991 136 54.8697015312 117.944371068 48.1815053635 102.833870746 c 0
3.80451180394 121.133257195 m 0
 19.7487821763 158.819714439 63.9809836743 184 106 184 c 0
 132.61710765 184 156.614446019 172.431054289 167.770096551 151.160215375 c 0
 169.612452128 148.333232998 173.959735814 140.48950991 188.724429442 131.349461473 c 0
 203.222751989 122.192626181 230.426676493 112 277 112 c 0
 309.296743454 112 381.697789684 126.754741174 452.304704576 175.708868833 c 0
 491.237172299 202.822551711 533.316844537 242.689006129 567.882881299 296.08238671 c 1
 503.010109082 270.482056892 435.487002636 260 368 260 c 0
 244.046646574 260 147.434375111 306.663695618 112.864877897 387.723206327 c 0
 104.834928922 407.224510982 100.520376663 428.512367823 100.520376663 450.681629887 c 0
 100.520376663 474.283331709 105.410500955 498.884020409 115.913712133 523.391513156 c 0
 145.608048041 593.778087162 211.968441022 662.268210032 301.983322852 708.322335619 c 0
 374.217901832 746.009942043 459.092085401 768 548 768 c 0
 611.518931095 768 689.409786102 752.704167224 746.920598165 701.959333051 c 0
 790.205022325 663.409142783 815.365228951 608.444995034 815.365228951 537.087995375 c 0
 815.365228951 486.038842434 802.488127365 426.599757627 774.157715535 358.778468702 c 0
 721.314664197 231.333462533 638.063365702 138.625812975 546.657536762 75.2649542778 c 0
 432.500447804 -3.60721627507 315.457014094 -32 237 -32 c 0
 57.9668117662 -32 8.72223900391 63.8898905322 3.533747416 74.266873708 c 0
 3.17496025843 74.9844480231 2.73904520774 76.0105161502 2.52809973834 76.5730374019 c 0
 0.149249566731 82.9166378595 -1.02365477113 89.7099889942 -1.02365477113 96.6348885036 c 0
 -1.02365477113 104.791840367 0.603734469062 113.131313858 3.80451180394 121.133257195 c 0
638.910324872 538.999383701 m 1
 633.235183095 564.566660221 622.130552294 580.198080557 608.347257189 591.805065908 c 0
 581.557067163 615.347960173 540.667870851 624 508 624 c 0
 451.745933369 624 405.777450619 610.97670478 369.114282492 591.728541513 c 0
 323.089367344 567.795585636 292.364956747 534.075896192 280.183718881 504.840925313 c 0
 276.678914044 496.273624601 275.083287442 488.431885518 275.083287442 480.949970136 c 0
 275.083287442 473.803903501 276.538879934 466.986082007 279.176870466 460.177841798 c 0
 291.203596161 432.549135628 331.530269745 404 407 404 c 0
 460.934103012 404 506.513913951 414.53395677 539.479879883 430.571453709 c 0
 579.574535403 450.173285297 613.980522545 480.841605828 638.910324872 538.999383701 c 1
683.299360279 520.730630345 m 0
 654.594428394 453.062699932 609.67816133 411.461366439 560.541043168 387.438775338 c 0
 519.46349985 367.455105616 467.075899761 356 407 356 c 0
 320.823659536 356 257.381061454 388.744381109 234.81177693 441.848579989 c 0
 229.738204308 454.532511544 227.190046633 467.612706072 227.190046633 480.843796635 c 0
 227.190046633 494.87672791 230.056413732 509.079398851 235.816281119 523.159074687 c 0
 253.641155051 565.938772122 292.867642031 606.182059239 346.927534321 634.29320323 c 0
 390.183911094 657.002801036 444.26949336 672 508 672 c 0
 547.332129149 672 600.442932837 662.652039827 639.652742811 628.194934092 c 0
 662.616648714 608.856908068 681.911364488 578.157988144 687.744619249 538.491855772 c 0
 688.486930907 533.444136494 687.359586127 526.359860239 683.299360279 520.730630345 c 0
EndSplineSet
EndChar

StartChar: colon
Encoding: 58 58 26
Width: 360
Flags: HW
LayerCount: 2
Back
SplineSet
244.84765625 456 m 0
 234.364257812 443.068359375 213.14453125 432 196.509765625 432 c 0
 186.509765625 432 179.823242188 440 183.13671875 448 c 0
 184.251953125 450.692382812 185.93359375 453.383789062 188.0546875 456 c 1024
188.0546875 456 m 0
 198.538085938 468.931640625 219.756835938 480 236.391601562 480 c 0
 246.391601562 480 253.078125 472 249.764648438 464 c 0
 248.649414062 461.307617188 246.967773438 458.616210938 244.84765625 456 c 1024
85.7890625 72 m 0
 75.3056640625 59.068359375 54.0859375 48 37.451171875 48 c 0
 27.451171875 48 20.765625 56 24.0791015625 64 c 0
 25.1943359375 66.6923828125 26.8759765625 69.3837890625 28.99609375 72 c 1024
28.99609375 72 m 0
 39.4794921875 84.931640625 60.69921875 96 77.333984375 96 c 0
 87.333984375 96 94.0205078125 88 90.7060546875 80 c 0
 89.5908203125 77.3076171875 87.91015625 74.6162109375 85.7890625 72 c 1024
EndSplineSet
Fore
SplineSet
157.509301559 44.4619571542 m 0
 138.69538237 20.6309928481 113.34731813 3.24940793489 88.8394706223 -7.89052275045 c 0
 68.4280867027 -16.9622489369 44.4285146656 -24 18 -24 c 0
 -10.089035046 -24 -30.8826477508 -13.5485653205 -44.0449403098 -1.8487497125 c 0
 -56.3086306951 9.30005972864 -64.1172736758 25.5344675811 -64.1172736758 44.2879336865 c 0
 -64.1172736758 53.4477653678 -62.2543826195 63.2085633247 -58.13782393 73.2712623435 c 0
 -54.5313360975 81.6864006194 -49.1586686939 91.0420633728 -42.5093015589 99.5380428458 c 0
 -23.6953823698 123.369007152 1.65268187 140.750592065 26.1605293777 151.89052275 c 0
 46.5719132973 160.962248937 70.5714853344 168 97 168 c 0
 131.75897689 168 155.730222238 152.671281949 167.817944723 134.539698221 c 0
 174.555534094 124.914570548 178.715796923 112.68315089 178.715796923 98.9077200282 c 0
 178.715796923 90.1157020433 177.021117636 80.6947324964 173.220217631 70.9209896252 c 0
 169.428318949 62.0732260347 164.237022193 53.0580498717 157.509301559 44.4619571542 c 0
-3.87146926665 70.9932140958 m 0
 -7.50837750275 66.6289242125 -11.7924847777 59.5580173384 -13.86217607 54.7287376565 c 0
 -19.2610983734 41.531372026 -15.95578209 37.6226920039 -11.9521404246 33.8450871628 c 0
 -7.03946100814 29.591330945 2.02964942518 24 18 24 c 0
 35.5714853344 24 53.5719132973 28.9622489369 69.1605293777 35.8905227505 c 0
 88.4781479302 44.6712584561 105.766566042 56.9929269731 119.120560959 73.3111696269 c 0
 122.76112573 77.6798473517 126.265816683 83.3808172381 128.784698338 89.0911049823 c 0
 132.854745777 100.124148268 131.233866916 103.100570866 128.182055277 107.460301779 c 0
 124.269777762 113.328718051 118.24102311 120 97 120 c 0
 79.4285146656 120 61.4280867027 115.037751063 45.8394706223 108.10947725 c 0
 26.9046602974 99.5027452837 8.42868248991 86.02368717 -3.87146926665 70.9932140958 c 0
316.509301559 428.461957154 m 0
 297.69538237 404.630992848 272.34731813 387.249407935 247.839470622 376.10947725 c 0
 227.428086703 367.037751063 203.428514666 360 177 360 c 0
 142.24102311 360 118.269777762 375.328718051 106.182055277 393.460301779 c 0
 99.444465906 403.085429452 95.2842030768 415.31684911 95.2842030768 429.092279972 c 0
 95.2842030768 437.884297957 96.9788823636 447.305267504 100.779782369 457.079010375 c 0
 104.571681051 465.926773965 109.762977807 474.941950128 116.490698441 483.538042846 c 0
 135.30461763 507.369007152 160.65268187 524.750592065 185.160529378 535.89052275 c 0
 205.571913297 544.962248937 229.571485334 552 256 552 c 0
 290.75897689 552 314.730222238 536.671281949 326.817944723 518.539698221 c 0
 333.555534094 508.914570548 337.715796923 496.68315089 337.715796923 482.907720028 c 0
 337.715796923 474.115702043 336.021117636 464.694732496 332.220217631 454.920989625 c 0
 328.428318949 446.073226035 323.237022193 437.058049872 316.509301559 428.461957154 c 0
155.128530733 454.993214096 m 0
 151.41128688 450.532521472 147.734183317 444.619182762 145.215301662 438.908895018 c 0
 141.145254223 427.875851732 142.766133084 424.899429134 145.817944723 420.539698221 c 0
 149.730222238 414.671281949 155.75897689 408 177 408 c 0
 194.571485334 408 212.571913297 412.962248937 228.160529378 419.89052275 c 0
 247.47814793 428.671258456 264.766566042 440.992926973 278.120560959 457.311169627 c 0
 281.76112573 461.679847352 285.265816683 467.380817238 287.784698338 473.091104982 c 0
 291.854745777 484.124148268 290.233866916 487.100570866 287.182055277 491.460301779 c 0
 283.269777762 497.328718051 277.24102311 504 256 504 c 0
 238.428514666 504 220.428086703 499.037751063 204.839470622 492.10947725 c 0
 185.904660297 483.502745284 167.42868249 470.02368717 155.128530733 454.993214096 c 0
EndSplineSet
EndChar

StartChar: semicolon
Encoding: 59 59 27
Width: 370
Flags: HW
LayerCount: 2
Back
SplineSet
77.333984375 96 m 0
 87.333984375 96 94.0205078125 88.0009765625 90.7060546875 79.9990234375 c 0
 84.0791015625 64 57.451171875 48 37.451171875 48 c 0
 27.4521484375 48 20.765625 56 24.0791015625 64 c 0
 30.7060546875 80 57.333984375 96 77.333984375 96 c 0
 87.333984375 96 104.020507812 88 94.0791015625 64 c 0
 77.5107421875 24 1.873046875 -56 1.873046875 -56 c 1024
244.84765625 456 m 0
 234.364257812 443.068359375 213.14453125 432 196.509765625 432 c 0
 186.509765625 432 179.823242188 440 183.13671875 448 c 0
 184.251953125 450.692382812 185.93359375 453.383789062 188.0546875 456 c 1024
188.0546875 456 m 0
 198.538085938 468.931640625 219.756835938 480 236.391601562 480 c 0
 246.391601562 480 253.078125 472 249.764648438 464 c 0
 248.649414062 461.307617188 246.967773438 458.616210938 244.84765625 456 c 1024
EndSplineSet
Fore
SplineSet
316.509301559 428.461957154 m 0
 297.69538237 404.630992848 272.34731813 387.249407935 247.839470622 376.10947725 c 0
 227.428086703 367.037751063 203.428514666 360 177 360 c 0
 142.24102311 360 118.269777762 375.328718051 106.182055277 393.460301779 c 0
 99.444465906 403.085429452 95.2842030768 415.31684911 95.2842030768 429.092279972 c 0
 95.2842030768 437.884297957 96.9788823636 447.305267504 100.779782369 457.079010375 c 0
 104.571681051 465.926773965 109.762977807 474.941950128 116.490698441 483.538042846 c 0
 135.30461763 507.369007152 160.65268187 524.750592065 185.160529378 535.89052275 c 0
 205.571913297 544.962248937 229.571485334 552 256 552 c 0
 290.75897689 552 314.730222238 536.671281949 326.817944723 518.539698221 c 0
 333.555534094 508.914570548 337.715796923 496.68315089 337.715796923 482.907720028 c 0
 337.715796923 474.115702043 336.021117636 464.694732496 332.220217631 454.920989625 c 0
 328.428318949 446.073226035 323.237022193 437.058049872 316.509301559 428.461957154 c 0
155.128530733 454.993214096 m 0
 151.41128688 450.532521472 147.734183317 444.619182762 145.215301662 438.908895018 c 0
 141.145254223 427.875851732 142.766133084 424.899429134 145.817944723 420.539698221 c 0
 149.730222238 414.671281949 155.75897689 408 177 408 c 0
 194.571485334 408 212.571913297 412.962248937 228.160529378 419.89052275 c 0
 247.47814793 428.671258456 264.766566042 440.992926973 278.120560959 457.311169627 c 0
 281.76112573 461.679847352 285.265816683 467.380817238 287.784698338 473.091104982 c 0
 291.854745777 484.124148268 290.233866916 487.100570866 287.182055277 491.460301779 c 0
 283.269777762 497.328718051 277.24102311 504 256 504 c 0
 238.428514666 504 220.428086703 499.037751063 204.839470622 492.10947725 c 0
 185.904660297 483.502745284 167.42868249 470.02368717 155.128530733 454.993214096 c 0
176.304904649 55.1364883561 m 0
 170.224061802 39.3262969543 160.861003979 25.5248906625 152.969207064 13.6871952906 c 0
 142.11026135 -2.60122328127 129.91232996 -17.7759301917 118.777532882 -31.9474901093 c 0
 92.8469486686 -64.1014145343 67.4338270634 -90.4846830441 66.5469302224 -91.3861752087 c 0
 44.0743164616 -114.703438266 14.291156204 -128 -18 -128 c 0
 -29.3577534825 -128 -40.1211485942 -126.047527729 -49.8204990255 -121.950733447 c 0
 -71.4984975596 -112.794419209 -84.991545772 -92.6754289903 -84.991545772 -70.1390439008 c 0
 -84.991545772 -62.4597633621 -83.4248573677 -54.4997972102 -80.0814667949 -46.5972376746 c 0
 -76.8294801367 -39.0092688054 -71.6692917089 -28.7281662119 -63.216879205 -20.2757537081 c 2
 -63.216879205 -20.2757537081 -55.1936216243 -11.7433298608 -44.9250960631 -0.358329996642 c 1
 -48.8068453123 3.87567351287 -50.3223424974 5.96011821457 -52.5960290249 9.14327935303 c 0
 -59.5802560152 19.120746482 -63.7527550775 31.4324211565 -63.7527550775 45.1458791612 c 0
 -63.7527550775 53.8994269732 -62.0526705989 63.2241313142 -58.2985886787 72.8774848233 c 0
 -43.9026035184 108.213084762 -13.5859522764 130.815054785 13.6893815973 145.170863407 c 0
 37.4083137085 158.067906526 64.6614639177 168 97 168 c 0
 110.49368426 168 120.803670719 165.587899415 130.09473488 162.933309655 c 0
 162.173666103 152.24033258 183.902804135 125.531843531 183.902804135 91.342014654 c 0
 183.902804135 79.9937082519 181.508877974 67.8211733367 176.304904649 55.1364883561 c 0
131.695095351 72.8635116439 m 0
 135.03302119 80.9997058748 136.547131048 87.681713664 136.547131048 93.2163762807 c 0
 136.547131048 106.087017926 128.359175432 112.753082475 115.87799036 117.07326899 c 0
 111.213734492 118.375594826 103.502353251 120 97 120 c 0
 75.212684525 120 54.3962168743 112.777409976 36.3207974103 102.83592927 c 0
 13.5889698109 91.0153789187 -6.05455577087 73.8920697096 -13.7014113213 55.1225151767 c 0
 -18.0661203342 43.8989777149 -15.9615858115 40.5104561275 -13.4039709751 36.856720647 c 0
 -9.62514174254 31.5663597214 -6.55751647184 28.4840601053 -1.4105336156 26.7683991532 c 0
 0.67071847939 26.0746484549 3.26559537797 24.7804986009 5.27884533172 23.2902715376 c 0
 11.5934225052 18.6161605164 14.8943411484 11.2785592378 14.8943411484 3.90429509584 c 0
 14.8943411484 -1.67060444393 13.0077771929 -7.26645779808 9.11053253192 -11.7482891582 c 0
 -11.3823030889 -35.3150501222 -28.0980905352 -52.9982470888 -28.783120795 -53.7242462919 c 0
 -32.3307082911 -57.2718337881 -33.1705198633 -58.9907311946 -35.9185332051 -65.4027623254 c 0
 -39.0341274374 -72.7668941474 -37.9313406631 -74.8663964519 -31.1439875558 -77.7332265142 c 0
 -28.2193461974 -78.9685312988 -23.8297465175 -80 -18 -80 c 0
 -0.228981636285 -80 20.1275521101 -70.6591232932 31.5952905879 -58.4746511606 c 0
 33.8241479993 -56.1797279798 57.7814663117 -31.1193508902 81.2224671177 -2.05250989065 c 0
 92.0876700396 11.7759301917 103.88973865 26.6012232813 113.030792936 40.3128047094 c 0
 121.138996021 52.4751093375 127.775938198 62.6737030457 131.695095351 72.8635116439 c 0
EndSplineSet
EndChar

StartChar: less
Encoding: 60 60 28
Width: 800
Flags: HW
LayerCount: 2
Back
SplineSet
580.530273438 152 m 1
 130 368 l 1025
759.469726562 584 m 1
 130 368 l 1025
EndSplineSet
Fore
SplineSet
663.111247834 142.667629221 m 0
 647.3246205 105.353782797 602.991948073 80 561 80 c 0
 547.503034773 80 536.679487725 82.5975688978 526.075687767 87.1420545941 c 2
 78.8992317208 301.786753496 l 2
 76.8401480252 302.352966767 75.5637049515 302.885331794 74.266873708 303.533747416 c 0
 54.8463678552 313.244000342 42.9560993021 332.475454749 42.9560993021 353.71339814 c 0
 42.9560993021 361.370216659 44.5015795295 369.287835767 47.7968535892 377.114111659 c 0
 59.4326523683 406.203608606 88.5588242034 426.384276974 117.842069645 434.918009544 c 2
 742.645409886 649.850358587 l 2
 754.587063204 653.432854583 765.442301992 656 779 656 c 0
 790.243245511 656 800.915716246 654.08621367 810.56310456 650.12724939 c 0
 832.452957655 641.144388572 846.939009315 620.851630385 846.939009315 597.761461165 c 0
 846.939009315 590.261418163 845.410657612 582.466234151 842.111247834 574.667629221 c 0
 830.549529669 547.20854858 804.658207888 527.992498754 776.831308765 518.31357732 c 2
 327.254902847 364.300273906 l 1
 635.553254124 216.556188668 l 2
 654.809468961 206.928081249 667.941005699 187.783649222 667.941005699 165.805806232 c 0
 667.941005699 158.333081353 666.42289512 150.532791525 663.111247834 142.667629221 c 0
618.888752166 161.332370779 m 0
 621.839786171 168.34107654 620.643191713 170.345588413 614.446745876 173.443811332 c 2
 253.628099884 346.35690207 l 2
 249.159949176 348.498148809 244.296997231 353.102639153 241.975556941 358.464597127 c 0
 240.665546265 361.490400643 240.050018477 364.656106265 240.050018477 367.783036074 c 0
 240.050018477 377.73922581 246.29020725 387.302308365 256.221963694 390.704672454 c 2
 761.168691235 563.68642268 l 2
 779.336271658 570.005581088 793.458285326 582.810012034 797.880750997 593.313368001 c 0
 800.766429492 600.134062628 800.038897847 602.561591662 792.340217878 605.720871459 c 0
 789.244980959 606.991052777 784.767063767 608 779 608 c 0
 772.230435654 608 767.005509258 606.996226988 757.355837443 604.150070494 c 2
 132.806988356 389.305266408 l 2
 132.495321188 389.198052902 131.899265442 389.008744751 131.471118212 388.888863527 c 0
 111.814819098 383.385099775 96.6327262589 369.959837962 92.2031464108 358.885888341 c 0
 88.8139700056 350.836594379 90.5009536337 350.072230509 93.5142767418 347.798871769 c 0
 94.462024734 347.464333947 95.4546921383 347.083363051 96.385545622 346.636553379 c 2
 545.875380721 130.881432532 l 2
 549.420272169 129.420546404 554.438454695 128 561 128 c 0
 585.010633363 128 612.660345448 146.610682172 618.888752166 161.332370779 c 0
EndSplineSet
EndChar

StartChar: equal
Encoding: 61 61 29
Width: 800
Flags: HW
AnchorPoint: "middle" 400 368 basechar 0
LayerCount: 2
Back
SplineSet
80.2939453125 248 m 1
 620.293945312 248 l 1025
179.706054688 488 m 1
 719.706054688 488 l 1025
EndSplineSet
Fore
SplineSet
160 416 m 2
 148.642246518 416 137.878851406 417.952472271 128.179500974 422.049266553 c 0
 106.492771114 431.209268713 93.0052926178 451.35898196 93.0052926178 473.880690419 c 0
 93.0052926178 481.542817837 94.566378659 489.479487944 97.8967859744 497.35135978 c 0
 113.668379256 534.629671174 158.010633363 560 200 560 c 2
 740 560 l 2
 751.357753482 560 762.121148594 558.047527729 771.820499026 553.950733447 c 0
 793.507228886 544.790731287 806.994707382 524.64101804 806.994707382 502.119309581 c 0
 806.994707382 494.457182163 805.433621341 486.520512056 802.103214026 478.64864022 c 0
 786.331620744 441.370328826 741.989366637 416 700 416 c 2
 160 416 l 2
160 464 m 2
 700 464 l 2
 724.010633363 464 751.668379256 482.629671174 757.896785974 497.35135978 c 0
 761.047964371 504.799599626 759.931335659 506.866398566 753.143987556 509.733226514 c 0
 750.219346197 510.968531299 745.829746518 512 740 512 c 2
 200 512 l 2
 175.989366637 512 148.331620744 493.370328826 142.103214026 478.64864022 c 0
 138.952035629 471.200400374 140.068664341 469.133601434 146.856012444 466.266773486 c 0
 149.780653803 465.031468701 154.170253482 464 160 464 c 2
60 176 m 2
 48.6422465175 176 37.8788514058 177.952472271 28.1795009745 182.049266553 c 0
 6.49277111409 191.209268713 -6.99470738224 211.35898196 -6.99470738224 233.880690419 c 0
 -6.99470738224 241.542817837 -5.43362134098 249.479487944 -2.10321402565 257.35135978 c 0
 13.6683792562 294.629671174 58.0106333632 320 100 320 c 2
 640 320 l 2
 651.357753482 320 662.121148594 318.047527729 671.820499026 313.950733447 c 0
 693.507228886 304.790731287 706.994707382 284.64101804 706.994707382 262.119309581 c 0
 706.994707382 254.457182163 705.433621341 246.520512056 702.103214026 238.64864022 c 0
 686.331620744 201.370328826 641.989366637 176 600 176 c 2
 60 176 l 2
60 224 m 2
 600 224 l 2
 624.010633363 224 651.668379256 242.629671174 657.896785974 257.35135978 c 0
 661.047964371 264.799599626 659.931335659 266.866398566 653.143987556 269.733226514 c 0
 650.219346197 270.968531299 645.829746518 272 640 272 c 2
 100 272 l 2
 75.9893666368 272 48.3316207438 253.370328826 42.1032140256 238.64864022 c 0
 38.9520356294 231.200400374 40.0686643415 229.133601434 46.8560124442 226.266773486 c 0
 49.7806538026 225.031468701 54.1702534825 224 60 224 c 2
EndSplineSet
EndChar

StartChar: greater
Encoding: 62 62 30
Width: 800
Flags: HW
LayerCount: 2
Back
SplineSet
40.5302734375 152 m 1
 670 368 l 1025
219.469726562 584 m 1
 670 368 l 1025
EndSplineSet
Fore
SplineSet
21 80 m 0
 9.75675448888 80 -0.915716246092 81.9137863298 -10.5631045602 85.8727506096 c 0
 -32.4529576546 94.8556114284 -46.9390093147 115.148369615 -46.9390093147 138.238538835 c 0
 -46.9390093147 145.738581837 -45.4106576121 153.533765849 -42.111247834 161.332370779 c 0
 -30.5495296691 188.79145142 -4.65820788844 208.007501246 23.1686912349 217.68642268 c 2
 472.745097153 371.699726094 l 1
 164.446745876 519.443811332 l 2
 145.19148685 529.071440845 132.054126345 548.199037585 132.054126345 570.178784497 c 0
 132.054126345 577.653925312 133.573629126 585.458953558 136.888752166 593.332370779 c 0
 152.6753795 630.646217203 197.008051927 656 239 656 c 0
 252.496965227 656 263.320512275 653.402431102 273.924312233 648.857945406 c 2
 721.100768279 434.213246504 l 2
 723.159851975 433.647033233 724.436295049 433.114668206 725.733126292 432.466252584 c 0
 745.153632145 422.755999658 757.043900698 403.524545251 757.043900698 382.28660186 c 0
 757.043900698 374.629783341 755.498420471 366.712164233 752.203146411 358.885888341 c 0
 740.567347632 329.796391394 711.441175797 309.615723026 682.157930355 301.081990456 c 2
 57.3545901141 86.1496414129 l 2
 45.4129367962 82.5671454175 34.5576980083 80 21 80 c 0
21 128 m 0
 27.7695643457 128 32.9944907423 129.003773012 42.6441625569 131.849929506 c 2
 667.193011644 346.694733592 l 2
 667.504678812 346.801947098 668.100734558 346.991255249 668.528881788 347.111136473 c 0
 688.185180902 352.614900225 703.367273741 366.040162038 707.796853589 377.114111659 c 0
 711.186029994 385.163405621 709.499046366 385.927769491 706.485723258 388.201128231 c 0
 705.537975266 388.535666053 704.545307862 388.916636949 703.614454378 389.363446621 c 2
 254.124619279 605.118567468 l 2
 250.579727831 606.579453596 245.561545305 608 239 608 c 0
 214.989366637 608 187.331620744 589.370328826 181.103214026 574.64864022 c 0
 178.179931024 567.70584309 179.357379439 565.65412601 185.553254124 562.556188668 c 2
 546.371900116 389.64309793 l 2
 550.840050824 387.501851191 555.703002769 382.897360847 558.024443059 377.535402873 c 0
 559.334453735 374.509599357 559.949981523 371.343893735 559.949981523 368.216963926 c 0
 559.949981523 358.26077419 553.70979275 348.697691635 543.778036306 345.295327546 c 2
 38.8313087651 172.31357732 l 2
 20.6637283423 165.994418912 6.54171467383 153.189987966 2.11924900331 142.686631999 c 0
 -0.766429492475 135.865937372 -0.038897846674 133.438408338 7.65978212164 130.279128541 c 0
 10.7550190413 129.008947223 15.2329362328 128 21 128 c 0
EndSplineSet
EndChar

StartChar: question
Encoding: 63 63 31
Width: 800
Flags: HW
LayerCount: 2
Back
SplineSet
285.7890625 72 m 0
 275.305664062 59.068359375 254.0859375 48 237.451171875 48 c 0
 227.451171875 48 220.765625 56 224.079101562 64 c 0
 225.194335938 66.6923828125 226.875976562 69.3837890625 228.99609375 72 c 1024
228.99609375 72 m 0
 239.479492188 84.931640625 260.69921875 96 277.333984375 96 c 0
 287.333984375 96 294.020507812 88 290.706054688 80 c 0
 289.590820312 77.3076171875 287.91015625 74.6162109375 285.7890625 72 c 1024
209.587890625 536 m 0
 253.837890625 642.828125 381.166015625 696 515.862304688 696 c 0
 655.862304688 696 735.979492188 648 699.529296875 560 c 0
 670.629882812 490.232421875 613.931640625 459.178710938 523.196289062 424 c 0
 410.772460938 380.413085938 370.05859375 344 326.98046875 240 c 1024
EndSplineSet
Fore
SplineSet
357.509301559 44.4619571542 m 0
 338.69538237 20.6309928481 313.34731813 3.24940793489 288.839470622 -7.89052275045 c 0
 268.428086703 -16.9622489369 244.428514666 -24 218 -24 c 0
 189.910964954 -24 169.117352249 -13.5485653205 155.95505969 -1.8487497125 c 0
 143.691369305 9.30005972864 135.882726324 25.5344675811 135.882726324 44.2879336865 c 0
 135.882726324 53.4477653678 137.74561738 63.2085633247 141.86217607 73.2712623435 c 0
 145.468663902 81.6864006194 150.841331306 91.0420633728 157.490698441 99.5380428458 c 0
 176.30461763 123.369007152 201.65268187 140.750592065 226.160529378 151.89052275 c 0
 246.571913297 160.962248937 270.571485334 168 297 168 c 0
 325.21401699 168 345.3877141 157.099617454 358.04494031 145.848749712 c 0
 370.106627362 134.883579665 378.88506514 118.295543173 378.88506514 98.6544138143 c 0
 378.88506514 89.8789226281 377.132689562 80.4939647565 373.13782393 70.7287376565 c 0
 369.531336098 62.3135993806 364.158668694 52.9579366272 357.509301559 44.4619571542 c 0
196.128530733 70.9932140958 m 0
 192.491622497 66.6289242125 188.207515222 59.5580173384 186.13782393 54.7287376565 c 0
 180.738901627 41.531372026 184.04421791 37.6226920039 188.047859575 33.8450871628 c 0
 192.960538992 29.591330945 202.029649425 24 218 24 c 0
 235.571485334 24 253.571913297 28.9622489369 269.160529378 35.8905227505 c 0
 288.47814793 44.6712584561 305.766566042 56.9929269731 319.120560959 73.3111696269 c 0
 322.855100365 77.7926169138 326.14639837 83.1100967263 328.880866492 89.3091175388 c 0
 333.663642068 101.653417884 330.923265263 105.479703855 325.953080415 110.15439162 c 0
 320.536515141 114.861950328 312.843460026 120 297 120 c 0
 279.428514666 120 261.428086703 115.037751063 245.839470622 108.10947725 c 0
 226.904660297 99.5027452837 208.42868249 86.02368717 196.128530733 70.9932140958 c 0
292.195488196 526.866742805 m 0
 276.251217824 489.180285561 232.019016326 464 190 464 c 0
 178.642246518 464 167.878851406 465.952472271 158.179500974 470.049266553 c 0
 136.487461391 479.211511424 123.003367569 499.379901067 123.003367569 521.892671632 c 0
 123.003367569 529.544376042 124.561054744 537.466904145 127.883588517 545.32016579 c 0
 165.033003496 633.823183829 241.750699886 693.483818027 322.793448121 727.16392119 c 0
 391.112625507 755.542656412 464.237696994 768 536 768 c 0
 644.422000901 768 730.530229655 743.77773535 772.327041935 687.229106971 c 0
 788.025550573 665.822049738 795.608635692 641.014384177 795.608635692 614.552851926 c 0
 795.608635692 594.02519825 791.045172222 572.502255703 782.16676495 550.799482372 c 0
 764.497074685 508.833967994 736.161705654 470.794368183 697.966652231 440.238325445 c 0
 650.776953112 402.701064782 598.169488852 379.808243573 544.492544028 359.552792696 c 0
 487.476246174 337.925921096 469.279789213 325.17643796 454.199852813 309.258727316 c 0
 441.221715145 296.280589648 426.756195584 273.795868365 409.158957856 230.780398364 c 0
 393.283048465 193.255521622 349.007278336 168 307 168 c 0
 295.642246518 168 284.878851406 169.952472271 275.179500974 174.049266553 c 0
 253.482512092 183.2136019 240.001571565 203.399395431 240.001571565 225.903826161 c 0
 240.001571565 233.545820669 241.556096069 241.455183639 244.871305619 249.291133486 c 0
 270.466917488 310.72060197 300.898973263 363.374271344 354.754415583 407.535734046 c 0
 397.459409089 442.767353688 446.238163559 466.954674161 501.233984087 488.341937699 c 0
 548.695372359 507.128737224 576.936380875 520.979676785 589.955672569 531.701446415 c 0
 602.336052958 541.42888815 609.11995847 548.287900329 617.892772704 569.342654489 c 0
 624.326135361 584.353834022 621.846812737 588.204249684 617.710562456 593.719250058 c 0
 607.632800834 607.509871226 562.972477243 624 496 624 c 0
 447.648178385 624 402.794600962 615.372178335 371.185085105 601.825242968 c 0
 348.374866912 592.701155691 332.925278132 581.984152635 318.970562748 568.029437252 c 0
 308.161239951 557.220114454 299.041062353 543.980678198 292.195488196 526.866742805 c 0
247.804511804 545.133257195 m 0
 256.991315614 568.100266721 269.838760049 586.779885546 285.029437252 601.970562748 c 0
 303.074721868 620.015847365 325.625133088 635.298844309 352.814914895 646.174757032 c 0
 391.205399038 662.627821665 442.351821615 672 496 672 c 0
 565.027522757 672 628.367199166 660.490128774 656.289437544 622.280749942 c 0
 664.472981089 611.369358548 669.052639514 597.78736002 669.052639514 582.938559732 c 0
 669.052639514 572.631991849 666.846268766 561.715108941 662.107227296 550.657345511 c 0
 650.891283346 523.739080031 637.112498599 507.848365458 620.020393316 494.278035835 c 0
 598.919711452 477.148058164 567.37431485 462.898847297 518.766015913 443.658062301 c 0
 465.780597755 423.052621906 422.506518631 401.20453668 385.273190915 370.487041315 c 0
 339.070619048 332.600932384 313.539008961 289.293621506 289.128694381 230.708866514 c 0
 285.935823452 223.162080681 287.068670205 221.133598958 293.856012444 218.266773486 c 0
 296.780653803 217.031468701 301.170253482 216 307 216 c 0
 330.992721664 216 358.716951535 234.744478378 364.841042144 249.219601636 c 0
 383.22877831 294.167401152 399.720479022 322.410658807 419.81170084 342.75377117 c 0
 440.833752597 364.756025169 468.478169006 382.05678811 527.488298381 404.439940632 c 0
 579.871954801 424.207358149 627.181600313 445.265966351 668.05943442 477.7824253 c 0
 699.809122219 503.182175539 723.508728668 535.17981497 737.83323505 569.200517628 c 0
 744.716133411 586.025380289 747.86615776 601.095612804 747.86615776 614.575240329 c 0
 747.86615776 631.80336132 742.720582276 646.433223651 733.646280099 658.807272073 c 0
 707.494832579 694.188642248 639.568093312 720 536 720 c 0
 469.762303006 720 402.887374493 708.457343588 341.206551879 682.83607881 c 0
 268.258369601 652.51995111 202.95404662 600.145964977 172.12952084 526.711065326 c 0
 168.93515352 519.160742569 170.068762736 517.133559875 176.856012444 514.266773486 c 0
 179.780653803 513.031468701 184.170253482 512 190 512 c 0
 213.980983674 512 241.748782176 530.819714439 247.804511804 545.133257195 c 0
EndSplineSet
EndChar

StartChar: at
Encoding: 64 64 32
Width: 1100
Flags: HW
LayerCount: 2
Back
SplineSet
727.41015625 444.380859375 m 0
 724.224609375 504.428710938 681.278320312 545.881835938 611.62109375 545.881835938 c 0
 515.134765625 545.881835938 403.927734375 466.2421875 363.234375 368 c 0
 322.541015625 269.7578125 367.7734375 190.118164062 464.259765625 190.118164062 c 0
 533.896484375 190.118164062 611.198242188 231.599609375 664.12890625 291.619140625 c 1024
599.567382812 70.470703125 m 0
 538.954101562 50.9169921875 475.877929688 40 414.137695312 40 c 0
 187.701171875 40 64.9658203125 186.850585938 140 368 c 0
 215.034179688 549.149414062 459.42578125 696 685.862304688 696 c 0
 912.298828125 696 1035.03417969 549.149414062 960 368 c 0
 942.192382812 325.0078125 921.809570312 282.721679688 880.46484375 246.32421875 c 0
 847.653320312 217.439453125 790.412109375 200 750.412109375 200 c 0
 689.783203125 200 640.236328125 231.52734375 657.000976562 272 c 2
 767.815429688 539.529296875 l 1025
EndSplineSet
Fore
SplineSet
639.253934078 435.990277524 m 1
 633.779660469 462.469337381 616.056637893 474 592 474 c 0
 578.448002262 474 561.820395115 470.141818589 543.318405929 461.331347548 c 0
 506.684670859 443.8867118 464.387795581 404.230378441 445.103214026 358.64864022 c 0
 438.175862969 342.27490136 435.445574891 327.883242293 435.445574891 315.640522985 c 0
 435.445574891 294.075374293 443.917021964 279.177884434 452.843372439 271.860013513 c 0
 462.163464069 264.877283781 470.669902498 262 484 262 c 0
 510.347336272 262 552.607012483 279.366358485 589.589705444 316.428245628 c 1
 639.253934078 435.990277524 l 1
687.839377127 435.772020596 m 0
 688.298111924 431.826901342 687.729795831 427.563146333 686.16392119 423.793448121 c 2
 632.16392119 293.793448121 l 2
 631.197600348 291.467120168 629.381023427 288.547627628 627.369701079 286.438191994 c 0
 582.888003719 239.786655738 529.050663037 214 484 214 c 0
 461.350196404 214 440.751346211 220.604405438 423.185786972 234.116374083 c 0
 400.379861683 252.361114314 387.504301691 281.383672007 387.504301691 315.214118317 c 0
 387.504301691 334.710612146 391.780557778 355.803911317 400.896785974 377.35135978 c 0
 425.612204419 435.769621559 475.315329141 482.1132882 522.681594071 504.668652452 c 0
 546.179604885 515.858181411 569.551997738 522 592 522 c 0
 638.526853294 522 681.406901746 491.091308878 687.839377127 435.772020596 c 0
620 95 m 0
 614.454929254 95 606.67121388 93.5921833454 599.523662312 91.2096661561 c 0
 545.179699751 73.4433707034 489.762835309 64 434 64 c 0
 271.935037349 64 157.231349779 150.759551511 157.231349779 279.841987232 c 0
 157.231349779 311.285420225 164.042539372 343.800464613 177.816628123 377.159585807 c 0
 246.5774348 543.689664478 464.270988571 672 666 672 c 0
 735.523804844 672 795.636968024 656.650045364 842.356907446 628.452422765 c 0
 905.274695528 590.47865685 942.768621964 528.753126547 942.768621964 456.138133796 c 0
 942.72413113 424.73933862 935.924402465 392.119472648 922.215317925 358.917783527 c 0
 904.734268579 315.729308673 885.031943289 279.695252936 853.944732132 252.062176352 c 0
 853.591301574 251.748015855 852.907924392 251.180943294 852.4 250.8 c 0
 846.396618472 246.297463854 837.220151344 240.67506306 823.072535545 234.780223144 c 0
 803.916536355 227.117823468 784.132555596 224 770 224 c 0
 753.341895279 224 737.821408448 227.622645546 725.086623768 232.716559419 c 0
 724.647571126 232.892180475 723.834750442 233.249809049 723.266873708 233.533747416 c 0
 711.661532738 239.336417901 704.015289557 246.210450359 699.030792936 253.687195291 c 0
 695.121361218 259.551342867 693.633434997 264.642689435 693.088006113 269.824263835 c 0
 692.834774596 273.98543517 693.318574917 277.542701781 694.826621098 281.183750217 c 2
 805.861386292 549.267687804 l 2
 809.070487838 556.852836912 807.931327512 558.866402007 801.143987556 561.733226514 c 0
 798.219346197 562.968531299 793.829746518 564 788 564 c 0
 774.262973367 564 757.613386875 557.960040156 745.4 548.8 c 0
 737.620684257 542.965513193 726.462078479 542.40989138 718.062711286 547.785486384 c 0
 697.367353344 561.030515467 669.104288394 570 632 570 c 0
 590.527263661 570 545.68534477 558.074648928 504.385795439 538.363500383 c 0
 422.222991771 498.698698613 355.450862946 431.298427654 325.145543622 358.749329879 c 0
 313.569407057 331.036760526 308.096719322 305.559437612 308.096719322 282.771762858 c 0
 308.096719322 245.624496294 322.639731527 215.624647583 348.993348559 194.74064918 c 0
 370.009522485 177.766047163 402.410989161 166 444 166 c 0
 496.499398218 166 551.686024184 184.365543059 599.831516962 212.686421164 c 0
 603.542031157 214.869076573 607.722877826 215.930549715 611.893633056 215.930549715 c 0
 618.553049434 215.930549715 625.186738407 213.224399229 629.83905951 208.055153559 c 0
 635.530782975 201.731016376 645.644164793 195.05867052 657.206642855 189.722142184 c 0
 676.025091933 180.722014364 701.339481163 176 731 176 c 0
 761.783730177 176 795.834553048 182.353270073 829.394644167 195.404416619 c 0
 856.723454451 205.770517072 885.139527511 220.652369756 907.144930523 240.017124406 c 0
 959.106982999 285.483920323 979.944852745 333.473360882 997.786873051 377.087188297 c 0
 1013.9480775 416.174752536 1021.64718318 453.303947062 1021.64718318 487.71566289 c 0
 1021.64718318 579.002245888 967.466867925 651.165328246 873.34992577 690.033730375 c 0
 827.228798444 709.080827343 770.888013755 720 706 720 c 0
 454.735013232 720 183.426091872 555.334427502 102.179001176 358.829836052 c 0
 86.0412067669 319.798891434 78.3521289782 282.708281547 78.3521289782 248.322169439 c 0
 78.3521289782 157.055089992 132.519332093 84.8403708691 226.65007423 45.9662696252 c 0
 272.771201556 26.9191726574 329.111986245 16 394 16 c 0
 461.987659783 16 532.943157301 28.5780636847 599.559665203 49.8181096824 c 0
 618.275320543 56.0566614624 633.529022145 69.9780119796 637.880750997 80.3133680014 c 0
 641.058220208 87.8237497746 639.93129775 89.8664145773 633.143987556 92.7332265142 c 0
 630.219346197 93.9685312988 625.829746518 95 620 95 c 0
766.800388827 609.824480523 m 1
 737.654122651 618.867393023 703.692512429 624 666 624 c 0
 481.729011429 624 281.4225652 502.310335522 222.183371877 358.840414193 c 0
 210.504786212 330.556339536 205.231377999 304.259872927 205.231377999 279.861820834 c 0
 205.231377999 185.711282467 286.811150148 112 434 112 c 0
 484.237164691 112 534.820300249 120.556629297 584.476337688 136.790333844 c 0
 595.32878612 140.407816655 607.545070746 143 620 143 c 0
 631.357753482 143 642.121148594 141.047527729 651.820499026 136.950733447 c 0
 673.510460126 127.789366482 686.995878658 107.62828706 686.995878658 85.112016625 c 0
 686.995878658 77.4562328823 685.436861726 69.5281711487 682.111247834 61.6676292214 c 0
 670.478778437 34.0405144037 643.719119543 13.9414852331 614.440334797 4.18189031764 c 0
 543.056842699 -18.5780636847 468.012340217 -32 394 -32 c 0
 323.769903518 -32 261.19693038 -20.2330792852 208.327997742 1.60072541426 c 0
 96.5343830188 47.7692374058 30.9827068542 139.386072818 30.9827068542 250.182925322 c 0
 30.9827068542 290.403383008 39.6209012111 333.15132321 57.8209988239 377.170163948 c 0
 148.573908128 596.665572498 437.264986768 768 706 768 c 0
 776.230096482 768 838.80306962 756.233079285 891.672002258 734.399274586 c 0
 1003.4727084 688.227833981 1069.0179334 596.583749844 1069.0179334 485.79754893 c 0
 1069.0179334 445.590530951 1060.3847007 402.862225593 1042.19614161 358.871291984 c 0
 1024.06902949 314.560573465 998.905296739 256.526697208 938.829621612 203.960481473 c 0
 910.891531908 179.374962533 877.259163738 162.222889827 846.605355833 150.595583381 c 0
 808.165446952 135.646729927 768.216269823 128 731 128 c 0
 696.660518837 128 663.974908067 133.277985636 636.793357145 146.277857816 c 0
 627.879662193 150.391870871 616.568254157 156.904325111 608.805006881 162.688993717 c 1
 558.279043783 135.685147288 501.590821548 118 444 118 c 0
 393.589010839 118 349.990477515 132.233952837 319.006651441 157.25935082 c 0
 279.44137202 188.612968475 260.563827016 233.279248783 260.563827016 283.090874671 c 0
 260.563827016 313.198842363 267.460616369 345.186628886 280.854456378 377.250670121 c 0
 316.549137054 462.701572346 391.777008229 537.301301387 483.614204561 581.636499617 c 0
 530.31465523 603.925351072 581.472736339 618 632 618 c 0
 670.261397039 618 704.271044579 609.421804278 730.241653716 596.096225964 c 1
 742.661832947 603.0075244 753.682034746 607.157135066 766.800388827 609.824480523 c 1
855.196702876 557.236989179 m 1
 855.378033324 548.259146669 853.507493122 538.695118083 850.138613708 530.732312196 c 2
 744.857584796 276.540278427 l 1
 753.04491193 273.63949659 761.386862421 272 770 272 c 0
 775.867444404 272 794.083463645 274.882176532 804.927464455 279.219776856 c 0
 813.910484112 282.962701713 820.823951334 287.239183033 822.887674352 288.68274686 c 0
 845.906518836 309.610320171 861.458414251 336.74673126 877.784682075 377.082216473 c 0
 889.449413626 405.332738197 894.865694277 431.813004475 894.865694277 456.186773526 c 0
 894.865694277 495.969302561 880.436550758 530.140056142 855.196702876 557.236989179 c 1
EndSplineSet
EndChar

StartChar: A
Encoding: 65 65 33
Width: 860
Flags: HW
HStem: -0 21G<103.45 133.16 726.84 756.55> 144 96<265.957 594.043> 716 20G<394.934 477.755>
LayerCount: 2
Back
SplineSet
112.098632812 192 m 5
 602.098632812 192 l 1029
-12.548828125 48 m 1
 527.548828125 688 l 1
 597.548828125 688 l 1
 607.451171875 48 l 1025
EndSplineSet
Fore
SplineSet
264.619341123 264 m 1
 516.620076387 264 l 1
 512.010306839 557.488661191 l 1
 264.619341123 264 l 1
213 216 m 2
 209.115339483 216 203.133000631 217.544323885 199.019267169 220.492588344 c 0
 192.524064867 225.147623552 189.104092725 232.605903646 189.104092725 240.108051582 c 0
 189.104092725 245.557447949 190.908556287 251.029990096 194.649607648 255.468131773 c 2
 516.649607648 637.468131773 l 2
 520.395726905 641.912285674 526.456754339 645.299441493 532.741507163 645.893497235 c 0
 533.480596797 645.963358445 534.215545759 645.997545238 534.944693162 645.997545238 c 0
 547.765159282 645.997545238 558.792041247 635.428510687 558.997040102 622.37691686 c 2
 564.997040102 240.37691686 l 2
 565.169766005 229.38003441 555.40089466 216 541 216 c 2
 213 216 l 2
-32 -24 m 0
 -43.2432455111 -24 -53.9157162461 -22.0862136702 -63.5631045602 -18.1272493904 c 0
 -85.4865974158 -9.13058394299 -99.9536033614 11.2805570017 -99.9536033614 34.3096069474 c 0
 -99.9536033614 41.7433326467 -98.4461645933 49.4498402565 -95.1954881961 57.1332571955 c 0
 -91.7857688114 65.657555657 -86.8818098823 72.5664830717 -81.5450848698 79.2373893374 c 2
 458.642131245 719.459257899 l 2
 479.688693953 744.452051115 513.525867476 760 547 760 c 2
 617 760 l 2
 649.216715856 760 685 741.868823374 685 704.187488557 c 2
 695 64.1874885573 l 2
 695 52.6217393756 691.807971085 45.3979500266 689.195488196 38.8667428045 c 0
 673.395463013 1.52122873641 630.233350332 -24 588 -24 c 0
 555.783284144 -24 520 -5.92155744724 520 31.8928592781 c 2
 519.213329101 120 l 1
 143.189788674 120 l 1
 56.3706379569 16.5559055287 l 2
 35.2990150425 -8.46664668212 1.4790332785 -24 -32 -24 c 0
-32 24 m 0
 -13.4741325243 24 8.68869395333 34.4520511147 19.6421312452 47.4592578988 c 2
 113.616617908 159.42890997 l 2
 117.943692063 164.584572793 124.897005412 168 132 168 c 2
 543 168 l 2
 554.630874808 168 566.876626436 157.924979837 566.999043425 144.214277173 c 2
 568 32.1071407219 l 2
 568 31.9215574472 568.216715856 24 588 24 c 0
 611.536105473 24 637.981748718 41.7005359144 644.821675388 57.1729575382 c 0
 645.851257319 59.8175699483 646.926012796 63.5924600801 646.995022756 64.1310550569 c 2
 637 703.812511443 l 2
 637 704.131176626 636.783284144 712 617 712 c 2
 547 712 l 2
 528.474132524 712 506.311306047 701.547948885 495.357868755 688.540742101 c 2
 -44.4678788879 48.7472462091 l 2
 -47.0753562052 45.4182824496 -50.2123602895 40.3471215906 -50.8045118039 38.8667428045 c 0
 -53.8134133193 31.7547937682 -53.0386313472 29.4382989757 -45.3402178784 26.279128541 c 0
 -42.2449809587 25.0089472231 -37.7670637672 24 -32 24 c 0
EndSplineSet
EndChar

StartChar: B
Encoding: 66 66 34
Width: 870
Flags: HW
AnchorPoint: "above" 607 784 basechar 0
LayerCount: 2
Back
SplineSet
208.284179688 388 m 1
 508.284179688 388 l 2
 628.284179688 388 737.279296875 458 770.416015625 538 c 0
 803.553710938 618 752.548828125 688 632.548828125 688 c 2
 312.548828125 688 l 1
 47.451171875 48 l 1
 387.451171875 48 l 2
 517.451171875 48 624.73046875 138 657.868164062 218 c 0
 691.004882812 298 658.284179688 388 528.284179688 388 c 1024
EndSplineSet
Fore
SplineSet
353 664 m 2
 613 664 l 2
 656.862424074 664 690.092712382 653.101585212 712.991040225 632.897178292 c 0
 731.971174345 615.724675993 740.506099725 593.319389056 740.506099725 569.923205976 c 0
 740.506099725 556.368648275 737.641391417 542.481500857 732.283440581 529.086623768 c 0
 717.32461538 491.689560764 683.853293986 460.701728576 644.114368805 439.728406953 c 0
 611.621661587 422.921834254 572.063189874 412 528 412 c 2
 268 412 l 2
 254.822576046 412 244.001668106 423.067208887 244.001668106 436.044917584 c 0
 244.001668106 439.082853888 245.773560464 444.929782024 245.846153846 445.230769231 c 2
 330.846153846 649.230769231 l 2
 334.652723102 658.366535444 344.251704328 664 353 664 c 2
369 616 m 1
 304 460 l 1
 528 460 l 2
 563.936810126 460 596.378338413 469.078165746 621.885631195 482.271593047 c 0
 654.146706014 499.298271424 678.67538462 524.310439236 687.716559419 546.913376232 c 0
 691.296068318 555.86214848 692.967787974 563.635491969 692.967787974 570.469440094 c 0
 692.967787974 581.434405588 688.664160891 589.98101863 681.03200147 597.08422447 c 0
 669.744379061 606.846289442 649.252084235 616 613 616 c 2
 369 616 l 1
104.82470338 105.179118683 m 2
 205.82470338 349.179118683 l 2
 209.612314323 358.329386704 219.191411104 364 228 364 c 2
 488 364 l 1
 502 364 l 1
 508 364 l 2
 547.110061715 364 576.322083861 353.536599055 597.134223002 336.626736003 c 0
 597.48712825 336.340000489 597.968862715 335.919517036 598.217391084 335.691699365 c 0
 613.410431138 321.764745982 624.415614885 303.3948826 628.59914429 281.407422474 c 0
 630.117276986 273.732478398 630.827653163 266.20698303 630.827653163 258.82735253 c 0
 630.827653163 241.307643674 626.823848103 224.61005486 620.119249003 208.686631999 c 0
 610.461899517 185.750426969 593.72742537 162.786299873 572.970562748 142.029437252 c 0
 553.896413041 122.955287544 532.925495513 108.677310013 509.935620089 96.6349943143 c 0
 480.654553271 81.9944609056 446.267766604 72 407 72 c 2
 127 72 l 2
 113.822576046 72 103.001668106 83.0672088866 103.001668106 96.0449175837 c 0
 103.001668106 99.5485165299 103.639686908 102.316306613 104.82470338 105.179118683 c 2
162.909276075 120 m 1
 407 120 l 2
 437.732233396 120 465.345446729 128.005539094 488.064379911 139.365005686 c 0
 507.074504487 149.322689987 524.103586959 161.044712456 539.029437252 175.970562748 c 0
 556.27257463 193.213700127 569.538100483 212.249573031 575.880750997 227.313368001 c 0
 580.41223377 238.075639589 582.756643381 249.008970697 582.756643381 259.381721868 c 0
 582.756643381 263.858940423 582.319863965 268.231719132 581.43365275 272.441222405 c 0
 579.285764096 284.612591443 574.976652233 291.705215665 566.302751695 299.826677342 c 0
 555.280412114 308.45606848 538.546068335 316 508 316 c 2
 502 316 l 1
 488 316 l 1
 244.040423616 316 l 1
 162.909276075 120 l 1
695.813850296 227.152869498 m 0
 705.537613477 250.678103001 709.815099994 272.085464403 709.815099994 291.252393763 c 0
 709.815099994 326.798162602 695.103517571 354.638401449 673.135266966 373.991384124 c 0
 667.801176863 378.690463501 665.110702995 385.352946988 665.110702995 392.021744824 c 0
 665.110702995 398.294801232 667.491333859 404.573444809 672.291596543 409.228733381 c 0
 673.799691294 410.691281729 677.174553846 412.885973607 677.39785518 413.009289269 c 0
 740.582007943 447.902030347 787.48045979 497.645547459 807.784154241 547.080629601 c 0
 815.596569038 566.28614931 819.354778176 584.232913307 819.354778176 600.707040058 c 0
 819.354778176 628.867894393 808.373123316 652.725636957 787.888298442 671.211942331 c 0
 760.854481851 695.788139232 715.241206001 712 652 712 c 2
 332 712 l 2
 308.194824869 712 281.646707701 695.282780519 275.252165047 679.005762855 c 2
 9.13284596293 38.7186793444 l 2
 8.09325913192 36.2614741075 7.88907729788 34.7541071314 7.86955615782 33.635316409 c 0
 7.84155728564 32.0306520123 8.62906700654 24 28 24 c 2
 368 24 l 2
 424.805622466 24 481.310373812 38.9880026361 530.266873708 63.466252584 c 0
 569.560255807 83.1129436337 602.905209146 108.78678572 630.178290384 135.119415881 c 0
 660.296368369 165.237493866 683.526279563 197.311626291 695.813850296 227.152869498 c 0
740.186149704 208.847130502 m 0
 724.47201752 170.684238054 697.703631631 134.762506134 663.821709616 100.880584119 c 0
 633.094790854 71.2132142801 596.439744193 42.8870563663 551.733126292 20.533747416 c 0
 496.689626188 -6.98800263606 433.194377534 -24 368 -24 c 2
 28 -24 l 2
 -6.06072639046 -24 -40.1322411496 -3.23847437773 -40.1322411496 33.4319614011 c 0
 -40.1322411496 41.8224825827 -38.3228681211 49.7412682818 -35.1328459629 57.2813206556 c 2
 230.747834953 696.994237145 l 2
 246.353292299 736.717219481 291.805175131 760 332 760 c 2
 652 760 l 2
 722.772554287 760 781.11275708 742.241643557 820.144147056 706.758561762 c 0
 851.655471639 678.321512748 866.917055535 640.703854468 866.917055535 600.109545912 c 0
 866.917055535 576.975941159 861.960774388 552.875653279 852.231089623 528.956844899 c 0
 829.698473205 474.094822316 785.277022842 424.810848257 726.568447901 386.565872426 c 1
 746.18577478 360.233347111 757.405826548 327.341311581 757.405826548 290.5082442 c 0
 757.405826548 264.899586967 751.982163505 237.385873568 740.186149704 208.847130502 c 0
EndSplineSet
EndChar

StartChar: C
Encoding: 67 67 35
Width: 855
Flags: HW
AnchorPoint: "bottom" 324 40 basechar 0
AnchorPoint: "above" 632 784 basechar 0
LayerCount: 2
Back
SplineSet
635.412109375 200 m 0
 625.470703125 176 494.137695312 40 324.137695312 40 c 0
 154.137695312 40 74.9658203125 186.850585938 150 368 c 0
 225.034179688 549.149414062 424.653320312 696 595.862304688 696 c 0
 765.862304688 696 771.15625 576 771.15625 576 c 1024
EndSplineSet
Fore
SplineSet
555.734337723 215.312184397 m 0
 573.820469333 248.79453372 615.058724955 272 655 272 c 0
 666.357753482 272 677.121148594 270.047527729 686.820499026 265.950733447 c 0
 708.457989282 256.811529023 721.976942578 236.835264468 721.976942578 214.231127689 c 0
 721.976942578 206.472047343 720.384045511 198.403332821 716.979830468 190.357006356 c 0
 711.002285736 177.206407945 705.817895626 169.423860834 699.073693929 160.431591905 c 0
 690.947905084 149.984149105 681.582982383 139.641856886 669.970562748 128.029437252 c 0
 644.611671567 102.670546071 608.060073667 72.4474751052 561.418537447 44.4625533732 c 0
 494.830976248 3.88575826751 404.729399232 -32 304 -32 c 0
 227.326036919 -32 164.467572961 -9.44442398298 118.67993913 28.5258089506 c 0
 62.0326363534 75.501621009 34.2173129051 143.438021879 34.2173129051 220.805234751 c 0
 34.2173129051 270.093483099 45.5063520496 323.209290959 67.8215650305 377.171533258 c 0
 125.388316449 516.378404869 246.388442646 640.062840187 389.391856789 710.528290634 c 0
 461.00559448 745.816219351 539.349746416 768 616 768 c 0
 688.613637409 768 742.837123664 751.094880396 780.674390835 724.723451762 c 0
 813.552979162 702.04856326 832.61231747 673.679415932 842.764645062 651.118687949 c 0
 856.483983237 622.536733419 858 599.239056122 858 593 c 0
 858 584.863879692 856.525215604 576.680982968 853.768399153 568.410533616 c 0
 853.578917321 567.842088119 853.276926942 567.059234385 853.103214026 566.64864022 c 0
 837.331620744 529.370328826 792.989366637 504 751 504 c 0
 717.000491979 504 686.813832555 523.184819647 684.030039653 557.531697144 c 0
 683.701853263 559.980663772 681.300388337 572.392041391 674.470363661 583.568445406 c 0
 663.733242358 601.463647578 642.559331842 624 576 624 c 0
 538.53725759 624 496.088037551 613.211203045 452.686863031 591.510615786 c 0
 364.703336368 547.991882167 274.529845315 460.471628756 232.153846154 358.769230769 c 0
 215.860569234 319.665366162 208.803596515 284.052439817 208.803596515 252.904856982 c 0
 208.803596515 202.821242058 227.049319421 164.28272212 254.480576438 141.34021625 c 0
 276.627502284 122.474316456 306.484166522 112 344 112 c 0
 408.734686751 112 466.151309252 141.072680498 508.760823413 172.31965755 c 0
 531.131665747 188.890651871 548.017152386 206.681838299 555.734337723 215.312184397 c 0
598.322314207 193.159593908 m 0
 597.744449438 191.810406269 597.913466179 192.161300899 597.466252584 191.266873708 c 2
 596.466252584 189.266873708 l 2
 594.778384239 185.891137018 592.063616443 182.765439362 588.91659954 180.442291262 c 0
 578.999673402 169.609079126 561.201912665 151.430517323 537.239176587 133.68034245 c 0
 489.848690748 98.9273195016 423.265313249 64 344 64 c 0
 297.515833478 64 255.372497716 77.5256835438 223.519423562 104.65978375 c 0
 183.169807526 138.406735343 160.968568474 190.733273827 160.968568474 252.592258333 c 0
 160.968568474 291.163364122 169.600258187 333.440619649 187.846153846 377.230769231 c 0
 235.470154685 491.528371244 333.296663632 586.008117833 431.313136969 634.489384214 c 0
 479.911962449 658.788796955 529.46274241 672 576 672 c 0
 655.440668158 672 696.266757642 640.536352422 715.529636339 608.431554594 c 0
 729.275797643 585.937836096 731.597100545 566.725348541 731.977286333 560.124576894 c 0
 732.060889661 559.093065801 732.342970834 552 751 552 c 0
 774.177097064 552 801.122253986 569.140199246 808.532939252 584.526258436 c 0
 809.362649383 587.340765352 809.950249341 590.672043546 810.001279537 592.890356167 c 0
 809.95608383 594.33800941 809.149821612 610.226173146 799.235354938 630.881312051 c 0
 791.38768253 648.320584068 778.447020838 667.95143674 753.325609165 685.276548238 c 0
 725.162876336 704.905119604 681.386362591 720 616 720 c 0
 548.650253584 720 476.99440552 700.183780649 410.608143211 667.471709366 c 0
 277.611557354 601.937159813 164.611683551 485.621595131 112.178434969 358.828466742 c 0
 91.6686751137 309.232138363 81.9592120454 262.732303572 81.9592120454 220.948926277 c 0
 81.9592120454 155.45747936 105.812997244 101.553219423 149.32006087 65.4741910494 c 0
 185.532427039 35.444423983 236.673963081 16 304 16 c 0
 393.270600768 16 475.169023752 48.1142417325 536.581462553 85.5374466268 c 0
 579.939926333 111.552524895 613.388328433 139.329453929 636.029437252 161.970562748 c 0
 646.417017617 172.358143114 655.052094916 182.015850895 660.926306071 189.568408095 c 0
 666.360248921 196.813665228 668.278777142 199.393361209 672.993941885 209.582661792 c 0
 675.85152221 216.704991831 675.107410897 218.944571435 667.785881613 221.880616173 c 0
 664.868048266 223.050711779 660.594673812 224 655 224 c 0
 632.991949331 224 606.570161664 207.895816829 598.322314207 193.159593908 c 0
EndSplineSet
EndChar

StartChar: D
Encoding: 68 68 36
Width: 870
Flags: HW
AnchorPoint: "above" 607 784 basechar 0
LayerCount: 2
Back
SplineSet
47.451171875 48 m 1
 312.548828125 688 l 1
 572.548828125 688 l 2
 652.548828125 688 826.0390625 624 720 368 c 0
 613.953125 111.98046875 387.451171875 48 307.451171875 48 c 2
 47.451171875 48 l 1
EndSplineSet
Fore
SplineSet
230.888575446 697.332860887 m 2
 247.695746447 736.549593223 291.375600835 760 332 760 c 2
 592 760 l 2
 631.385001552 760 676.997362251 751.334134605 718.593740918 730.535945271 c 0
 753.173578396 713.803765846 785.148808951 686.359540546 807.42985045 649.595822074 c 0
 828.535313973 615.941164023 840.390972834 575.025335266 840.390972834 526.647136869 c 0
 840.390972834 478.239333005 828.520799182 422.360023379 802.169810726 358.807639455 c 0
 749.273568949 231.234350464 665.906786353 140.520295744 577.738240798 79.3209523589 c 0
 529.059290659 45.1421150273 479.085282917 20.099783261 433.935354718 4.34980830785 c 0
 377.787949229 -15.4057602899 327.439611321 -24 288 -24 c 2
 28 -24 l 2
 16.7567544889 -24 6.08428375391 -22.0862136702 -3.56310456024 -18.1272493904 c 0
 -25.4615522776 -9.1408616269 -39.9427318262 11.182159134 -39.9427318262 34.2567520805 c 0
 -39.9427318262 41.7398276044 -38.4197451703 49.5122861655 -35.1328459629 57.2813206556 c 2
 230.888575446 697.332860887 l 2
275.111424554 678.667139113 m 2
 9.13284596293 38.7186793444 l 2
 6.22523457909 31.8461433462 6.96112155466 29.4384003764 14.6597821216 26.279128541 c 0
 17.7550190413 25.0089472231 22.2329362328 24 28 24 c 2
 288 24 l 2
 320.542594128 24 366.249281743 31.4188600763 418.034250922 49.6394973801 c 0
 458.946180897 63.9111008597 504.929325341 86.8498919518 550.261759202 118.679047641 c 0
 632.093213647 175.479704256 708.726431051 258.765649536 757.830189274 377.192360545 c 0
 782.478432131 436.638122728 792.609034393 485.759662792 792.609034393 526.353666169 c 0
 792.609034393 566.976743241 782.463915725 599.060064296 766.57014955 624.404177926 c 0
 748.851191049 653.640459454 724.826421604 674.196234154 697.406259082 687.464054729 c 0
 663.002637749 704.665865395 624.614998448 712 592 712 c 2
 332 712 l 2
 308.624399165 712 282.304253553 695.450406776 275.111424554 678.667139113 c 2
369.018113728 616 m 1
 162.959290199 120 l 1
 327 120 l 2
 335.964087271 120 364.391312338 123.518813889 396.785398229 135.550902934 c 0
 423.426391376 145.065543344 453.263613371 159.055965951 483.425430154 179.792214989 c 0
 537.140248478 216.544459106 596.653705032 276.64573586 637.790243947 377.095423908 c 0
 658.84037616 428.496909544 666.578610268 467.865723119 666.578610268 498.10805989 c 0
 666.578610268 527.494059957 659.272400713 548.263113172 649.773457037 563.081465306 c 0
 638.383340953 580.980219153 623.294325106 593.020021717 606.096517354 601.618925593 c 0
 584.967777958 612.605870079 561.928017041 616 553 616 c 2
 369.018113728 616 l 1
330.836522932 649.207620988 m 2
 334.203174395 657.311419199 343.100153564 664 353 664 c 2
 553 664 l 2
 570.071982959 664 599.032222042 659.394129921 627.903482646 644.381074407 c 0
 650.723137167 632.971247146 673.592192382 615.058228463 690.247875706 588.885011813 c 0
 705.35819959 565.312906552 714.42684218 535.533222172 714.42684218 498.401979977 c 0
 714.42684218 460.130423139 704.792643742 414.048836728 682.209756053 358.904576092 c 0
 637.342185578 249.344229584 570.883816317 181.47200628 510.552413974 140.19262573 c 0
 476.763165443 116.962517365 442.559539787 100.929432071 413.214601771 90.4490970656 c 0
 375.608687662 76.481186111 344.035912729 72 327 72 c 2
 127 72 l 2
 124.819969242 72 121.93843846 72.4067607704 119.559643392 73.182438922 c 0
 109.460554189 76.4755527142 103.046815053 86.1312256688 103.046815053 96.2147677273 c 0
 103.046815053 99.2269369796 103.619141488 102.277286893 104.836522932 105.207620988 c 2
 330.836522932 649.207620988 l 2
EndSplineSet
EndChar

StartChar: E
Encoding: 69 69 37
Width: 870
Flags: HW
AnchorPoint: "above" 607 784 basechar 0
AnchorPoint: "bottom" 302 48 basechar 0
LayerCount: 2
Back
SplineSet
190.784179688 388 m 1
 548.284179688 388 l 1025
832.548828125 688 m 1
 312.548828125 688 l 1
 47.451171875 48 l 1
 587.451171875 48 l 1025
EndSplineSet
Fore
SplineSet
230.888575446 697.332860887 m 2
 247.695746447 736.549593223 291.375600835 760 332 760 c 2
 852 760 l 2
 863.243245511 760 873.915716246 758.08621367 883.56310456 754.12724939 c 0
 905.449766009 745.145698316 919.937628023 724.864181232 919.937628023 701.768234532 c 0
 919.937628023 694.261886389 918.40728013 686.458251013 915.103214026 678.64864022 c 0
 899.331620744 641.370328826 854.989366637 616 813 616 c 2
 369 616 l 1
 304 460 l 1
 568 460 l 2
 579.357753482 460 590.121148594 458.047527729 599.820499026 453.950733447 c 0
 621.507228886 444.790731287 634.994707382 424.64101804 634.994707382 402.119309581 c 0
 634.994707382 394.457182163 633.433621341 386.520512056 630.103214026 378.64864022 c 0
 614.331620744 341.370328826 569.989366637 316 528 316 c 2
 244.040423616 316 l 1
 162.909276075 120 l 1
 607 120 l 2
 618.357753482 120 629.121148594 118.047527729 638.820499026 113.950733447 c 0
 660.507228886 104.790731287 673.994707382 84.6410180403 673.994707382 62.1193095814 c 0
 673.994707382 54.4571821633 672.433621341 46.5205120562 669.103214026 38.6486402199 c 0
 653.475863202 1.7112655447 610.203748557 -24 568 -24 c 2
 28 -24 l 2
 16.7567544889 -24 6.08428375391 -22.0862136702 -3.56310456024 -18.1272493904 c 0
 -25.4615522776 -9.1408616269 -39.9427318262 11.182159134 -39.9427318262 34.2567520805 c 0
 -39.9427318262 41.7398276044 -38.4197451703 49.5122861655 -35.1328459629 57.2813206556 c 2
 230.888575446 697.332860887 l 2
275.111424554 678.667139113 m 2
 9.13284596293 38.7186793444 l 2
 6.22523457909 31.8461433462 6.96112155466 29.4384003764 14.6597821216 26.279128541 c 0
 17.7550190413 25.0089472231 22.2329362328 24 28 24 c 2
 568 24 l 2
 591.796251443 24 618.524136798 42.2887344553 624.896785974 57.3513597801 c 0
 628.047964371 64.7995996257 626.931335659 66.8663985657 620.143987556 69.7332265142 c 0
 617.219346197 70.9685312988 612.829746518 72 607 72 c 2
 127 72 l 2
 124.891963703 72 121.955246985 72.4046649782 119.588985166 73.1728920113 c 0
 109.475460952 76.4563336986 103.046539079 86.1199423629 103.046539079 96.2145418578 c 0
 103.046539079 99.2167796767 103.615195759 102.257139877 104.82470338 105.179118683 c 2
 205.82470338 349.179118683 l 2
 209.193665167 357.317996665 218.096798421 364 228 364 c 2
 528 364 l 2
 552.010633363 364 579.668379256 382.629671174 585.896785974 397.35135978 c 0
 589.047964371 404.799599626 587.931335659 406.866398566 581.143987556 409.733226514 c 0
 578.219346197 410.968531299 573.829746518 412 568 412 c 2
 268 412 l 2
 265.7615098 412 262.924718769 412.408486378 260.53581089 413.190224005 c 0
 250.448458739 416.491172865 244.047039506 426.140387202 244.047039506 436.21494711 c 0
 244.047039506 439.235187715 244.62235648 442.293655551 245.846153846 445.230769231 c 2
 330.846153846 649.230769231 l 2
 334.210882951 657.306119082 343.102919935 664 353 664 c 2
 813 664 l 2
 837.010633363 664 864.668379256 682.629671174 870.896785974 697.35135978 c 0
 873.756483632 704.110645152 873.038995331 706.561551657 865.340217878 709.720871459 c 0
 862.244980959 710.991052777 857.767063767 712 852 712 c 2
 332 712 l 2
 308.624399165 712 282.304253553 695.450406776 275.111424554 678.667139113 c 2
EndSplineSet
EndChar

StartChar: F
Encoding: 70 70 38
Width: 830
Flags: HW
AnchorPoint: "above" 587 784 basechar 0
LayerCount: 2
Back
SplineSet
47.451171875 48 m 1
 312.548828125 688 l 1
 812.548828125 688 l 1025
190.784179688 388 m 1
 558.284179688 388 l 1025
EndSplineSet
Fore
SplineSet
230.888575446 697.332860887 m 2
 247.695746447 736.549593223 291.375600835 760 332 760 c 2
 832 760 l 2
 843.243245511 760 853.915716246 758.08621367 863.56310456 754.12724939 c 0
 885.449766009 745.145698316 899.937628023 724.864181232 899.937628023 701.768234532 c 0
 899.937628023 694.261886389 898.40728013 686.458251013 895.103214026 678.64864022 c 0
 879.331620744 641.370328826 834.989366637 616 793 616 c 2
 369 616 l 1
 304 460 l 1
 578 460 l 2
 589.357753482 460 600.121148594 458.047527729 609.820499026 453.950733447 c 0
 631.507228886 444.790731287 644.994707382 424.64101804 644.994707382 402.119309581 c 0
 644.994707382 394.457182163 643.433621341 386.520512056 640.103214026 378.64864022 c 0
 624.331620744 341.370328826 579.989366637 316 538 316 c 2
 244.033768943 316 l 1
 129.137797759 38.7303835895 l 2
 113.445729756 1.64004103776 70.2148431012 -24 28 -24 c 0
 16.7567544889 -24 6.08428375391 -22.0862136702 -3.56310456024 -18.1272493904 c 0
 -25.4615522776 -9.1408616269 -39.9427318262 11.182159134 -39.9427318262 34.2567520805 c 0
 -39.9427318262 41.7398276044 -38.4197451703 49.5122861655 -35.1328459629 57.2813206556 c 2
 230.888575446 697.332860887 l 2
275.111424554 678.667139113 m 2
 9.13284596293 38.7186793444 l 2
 6.22523457909 31.8461433462 6.96112155466 29.4384003764 14.6597821216 26.279128541 c 0
 17.7550190413 25.0089472231 22.2329362328 24 28 24 c 0
 51.7851568988 24 78.5542702437 42.3599589622 84.8622022411 57.2696164105 c 2
 205.828224062 349.187619481 l 2
 209.196503348 357.316028999 218.097793189 364 228 364 c 2
 538 364 l 2
 562.010633363 364 589.668379256 382.629671174 595.896785974 397.35135978 c 0
 599.047964371 404.799599626 597.931335659 406.866398566 591.143987556 409.733226514 c 0
 588.219346197 410.968531299 583.829746518 412 578 412 c 2
 268 412 l 2
 265.7615098 412 262.924718769 412.408486378 260.53581089 413.190224005 c 0
 250.448458739 416.491172865 244.047039506 426.140387202 244.047039506 436.21494711 c 0
 244.047039506 439.235187715 244.62235648 442.293655551 245.846153846 445.230769231 c 2
 330.846153846 649.230769231 l 2
 334.210882951 657.306119082 343.102919935 664 353 664 c 2
 793 664 l 2
 817.010633363 664 844.668379256 682.629671174 850.896785974 697.35135978 c 0
 853.756483632 704.110645152 853.038995331 706.561551657 845.340217878 709.720871459 c 0
 842.244980959 710.991052777 837.767063767 712 832 712 c 2
 332 712 l 2
 308.624399165 712 282.304253553 695.450406776 275.111424554 678.667139113 c 2
EndSplineSet
EndChar

StartChar: G
Encoding: 71 71 39
Width: 840
Flags: HW
AnchorPoint: "above" 632 784 basechar 0
LayerCount: 2
Back
SplineSet
771.15625 576 m 0
 771.15625 576 765.862304688 696 595.862304688 696 c 0
 424.653320312 696 225.034179688 549.149414062 150 368 c 0
 74.9658203125 186.850585938 154.137695312 40 324.137695312 40 c 0
 484.137695312 40 600.530273438 152 600.530273438 152 c 1
 680.05859375 344 l 1
 470.05859375 344 l 1025
EndSplineSet
Fore
SplineSet
700 416 m 2
 711.528893067 416 722.26663539 414.113717052 731.877322558 410.111512036 c 0
 754.923329848 400.514399533 766.88410703 379.778040319 766.88410703 358.126101656 c 0
 766.88410703 350.316082408 765.327890471 342.386937131 762.174366473 334.818479535 c 2
 683.128244778 142.706386301 l 2
 677.75272377 130.163503951 669.761715044 121.820589547 661.970562748 114.029437252 c 0
 656.507058299 108.565932802 595.430657638 48.5499690467 489.894936252 5.70873561283 c 0
 436.632989109 -15.1783024823 373.022397308 -32 304 -32 c 0
 227.326036919 -32 164.467572961 -9.44442398298 118.67993913 28.5258089506 c 0
 62.0326363534 75.501621009 34.2173129051 143.438021879 34.2173129051 220.805234751 c 0
 34.2173129051 270.093483099 45.5063520496 323.209290959 67.8215650305 377.171533258 c 0
 125.388316449 516.378404869 246.388442646 640.062840187 389.391856789 710.528290634 c 0
 461.00559448 745.816219351 539.349746416 768 616 768 c 0
 688.613637409 768 742.837123664 751.094880396 780.674390835 724.723451762 c 0
 813.552979162 702.04856326 832.61231747 673.679415932 842.764645062 651.118687949 c 0
 856.483983237 622.536733419 858 599.239056122 858 593 c 0
 858 584.863879692 856.525215604 576.680982968 853.768399153 568.410533616 c 0
 853.578917321 567.842088119 853.276926942 567.059234385 853.103214026 566.64864022 c 0
 837.331620744 529.370328826 792.989366637 504 751 504 c 0
 717.000491979 504 686.813832555 523.184819647 684.030039653 557.531697144 c 0
 683.701853263 559.980663772 681.300388337 572.392041391 674.470363661 583.568445406 c 0
 663.733242358 601.463647578 642.559331842 624 576 624 c 0
 538.53725759 624 496.088037551 613.211203045 452.686863031 591.510615786 c 0
 364.703336368 547.991882167 274.529845315 460.471628756 232.153846154 358.769230769 c 0
 215.860569234 319.665366162 208.803596515 284.052439817 208.803596515 252.904856982 c 0
 208.803596515 202.821242058 227.049319421 164.28272212 254.480576438 141.34021625 c 0
 276.627502284 122.474316456 306.484166522 112 344 112 c 0
 405.99464865 112 457.627699768 134.819255751 495.28002544 158.351959296 c 0
 507.84386204 166.204357171 518.426455166 173.91373115 526.203204356 179.949253896 c 1
 564.147786719 272 l 1
 450 272 l 2
 438.642246518 272 427.878851406 273.952472271 418.179500974 278.049266553 c 0
 396.492771114 287.209268713 383.005292618 307.35898196 383.005292618 329.880690419 c 0
 383.005292618 337.542817837 384.566378659 345.479487944 387.896785974 353.35135978 c 0
 403.668379256 390.629671174 448.010633363 416 490 416 c 2
 700 416 l 2
700 368 m 2
 490 368 l 2
 465.989366637 368 438.331620744 349.370328826 432.103214026 334.64864022 c 0
 428.952035629 327.200400374 430.068664341 325.133601434 436.856012444 322.266773486 c 0
 439.780653803 321.031468701 444.170253482 320 450 320 c 2
 600 320 l 2
 602.025660909 320 605.025638709 319.597693953 607.377453737 318.837976626 c 0
 617.507468044 315.565632796 623.953776077 305.892968832 623.953776077 295.785723263 c 0
 623.953776077 292.794837275 623.389300528 289.76589684 622.188764861 286.853486241 c 2
 568.188764861 155.853486241 l 2
 566.69432728 152.228091368 564.152350291 148.786883893 560.992681141 146.259148573 c 0
 550.527222948 137.886782019 537.627880179 128.215481716 520.71997456 117.648040704 c 0
 478.372300232 91.1807442488 418.00535135 64 344 64 c 0
 297.515833478 64 255.372497716 77.5256835438 223.519423562 104.65978375 c 0
 183.169807526 138.406735343 160.968568474 190.733273827 160.968568474 252.592258333 c 0
 160.968568474 291.163364122 169.600258187 333.440619649 187.846153846 377.230769231 c 0
 235.470154685 491.528371244 333.296663632 586.008117833 431.313136969 634.489384214 c 0
 479.911962449 658.788796955 529.46274241 672 576 672 c 0
 655.440668158 672 696.266757642 640.536352422 715.529636339 608.431554594 c 0
 729.275797643 585.937836096 731.597100545 566.725348541 731.977286333 560.124576894 c 0
 732.060889661 559.093065801 732.342970834 552 751 552 c 0
 774.177097064 552 801.122253986 569.140199246 808.532939252 584.526258436 c 0
 809.362649383 587.340765352 809.950249341 590.672043546 810.001279537 592.890356167 c 0
 809.95608383 594.33800941 809.149821612 610.226173146 799.235354938 630.881312051 c 0
 791.38768253 648.320584068 778.447020838 667.95143674 753.325609165 685.276548238 c 0
 725.162876336 704.905119604 681.386362591 720 616 720 c 0
 548.650253584 720 476.99440552 700.183780649 410.608143211 667.471709366 c 0
 277.611557354 601.937159813 164.611683551 485.621595131 112.178434969 358.828466742 c 0
 91.6686751137 309.232138363 81.9592120454 262.732303572 81.9592120454 220.948926277 c 0
 81.9592120454 155.45747936 105.812997244 101.553219423 149.32006087 65.4741910494 c 0
 185.532427039 35.444423983 236.673963081 16 304 16 c 0
 364.977602692 16 423.367010891 31.1783024823 472.105063748 50.2912643872 c 0
 568.569342362 89.4500309533 625.492941701 145.434067198 628.029437252 147.970562748 c 0
 634.238284956 154.179410453 638.24727623 159.836496049 638.871755222 161.293613699 c 2
 717.825633527 353.181520465 l 2
 720.981051579 360.75452379 719.681006658 363.19477475 713.424615814 365.800140878 c 0
 710.668639347 366.947819775 706.285539922 368 700 368 c 2
EndSplineSet
EndChar

StartChar: H
Encoding: 72 72 40
Width: 890
Flags: HW
AnchorPoint: "above" 617 784 basechar 0
LayerCount: 2
Back
SplineSet
190.784179688 388 m 1
 715.784179688 388 l 1025
842.548828125 688 m 1
 577.451171875 48 l 1025
47.451171875 48 m 1
 312.548828125 688 l 1025
EndSplineSet
Fore
SplineSet
760.871305619 697.291133486 m 2
 776.546338302 734.341210737 819.788077284 760 862 760 c 0
 873.243245511 760 883.915716246 758.08621367 893.56310456 754.12724939 c 0
 915.461552278 745.140861627 929.942731826 724.817840866 929.942731826 701.743247919 c 0
 929.942731826 694.260172396 928.41974517 686.487713835 925.132845963 678.718679344 c 2
 659.132845963 38.7186793444 l 2
 643.450044348 1.65023916258 600.213254553 -24 558 -24 c 0
 546.756754489 -24 536.084283754 -22.0862136702 526.43689544 -18.1272493904 c 0
 504.536474315 -9.1400518068 490.056412854 11.1899158803 490.056412854 34.26092858 c 0
 490.056412854 41.74011054 491.578169781 49.5073578681 494.862202241 57.2696164105 c 2
 602.075820098 316 l 1
 244.033768943 316 l 1
 129.137797759 38.7303835895 l 2
 113.445729756 1.64004103776 70.2148431012 -24 28 -24 c 0
 16.7567544889 -24 6.08428375391 -22.0862136702 -3.56310456024 -18.1272493904 c 0
 -25.4615522776 -9.1408616269 -39.9427318262 11.182159134 -39.9427318262 34.2567520805 c 0
 -39.9427318262 41.7398276044 -38.4197451703 49.5122861655 -35.1328459629 57.2813206556 c 2
 230.867154037 697.281320656 l 2
 246.549955652 734.349760837 289.786745447 760 332 760 c 0
 343.243245511 760 353.915716246 758.08621367 363.56310456 754.12724939 c 0
 385.459898615 745.141540235 399.942015262 724.824341286 399.942015262 701.746749277 c 0
 399.942015262 694.260410381 398.417997512 686.483583006 395.128694381 678.708866514 c 2
 304 460 l 1
 662 460 l 1
 760.871305619 697.291133486 l 2
805.128694381 678.708866514 m 2
 700.153846154 426.769230769 l 2
 696.789117049 418.693880918 687.897080065 412 678 412 c 2
 268 412 l 2
 265.7615098 412 262.924718769 412.408486378 260.53581089 413.190224005 c 0
 250.448458739 416.491172865 244.047039506 426.140387202 244.047039506 436.21494711 c 0
 244.047039506 439.235187715 244.62235648 442.293655551 245.846153846 445.230769231 c 2
 350.871305619 697.291133486 l 2
 353.772204051 704.147802507 353.038894822 706.561592903 345.340217878 709.720871459 c 0
 342.244980959 710.991052777 337.767063767 712 332 712 c 0
 308.213254553 712 281.450044348 693.650239163 275.132845963 678.718679344 c 2
 9.13284596293 38.7186793444 l 2
 6.22523457909 31.8461433462 6.96112155466 29.4384003764 14.6597821216 26.279128541 c 0
 17.7550190413 25.0089472231 22.2329362328 24 28 24 c 0
 51.7851568988 24 78.5542702437 42.3599589622 84.8622022411 57.2696164105 c 2
 205.828224062 349.187619481 l 2
 209.196503348 357.316028999 218.097793189 364 228 364 c 2
 638 364 l 2
 640.129510168 364 643.049756424 363.594713267 645.419765651 362.824265107 c 0
 655.528986566 359.537935854 661.953378657 349.876692076 661.953378657 339.785390201 c 0
 661.953378657 336.780191118 661.383628914 333.736852163 660.171775938 330.812380519 c 2
 539.137797759 38.7303835895 l 2
 536.222179507 31.8389222679 536.961141087 29.4383923608 544.659782122 26.279128541 c 0
 547.755019041 25.0089472231 552.232936233 24 558 24 c 0
 581.786745447 24 608.549955652 42.3497608374 614.867154037 57.2813206556 c 2
 880.867154037 697.281320656 l 2
 883.774765421 704.153856654 883.038878445 706.561599624 875.340217878 709.720871459 c 0
 872.244980959 710.991052777 867.767063767 712 862 712 c 0
 838.211922716 712 811.453661698 693.658789263 805.128694381 678.708866514 c 2
EndSplineSet
EndChar

StartChar: I
Encoding: 73 73 41
Width: 420
Flags: HW
HStem: 0 21G<193.442 226.558> 716 20G<193.442 226.558>
VStem: 150 120<7.56638 728.434>
AnchorPoint: "above" 382 784 basechar 0
LayerCount: 2
Back
SplineSet
342.548828125 688 m 1
 77.451171875 48 l 1025
EndSplineSet
Fore
SplineSet
260.867154037 697.281320656 m 2
 276.549955652 734.349760837 319.786745447 760 362 760 c 0
 373.243245511 760 383.915716246 758.08621367 393.56310456 754.12724939 c 0
 415.461552278 745.140861627 429.942731826 724.817840866 429.942731826 701.743247919 c 0
 429.942731826 694.260172396 428.41974517 686.487713835 425.132845963 678.718679344 c 2
 159.132845963 38.7186793444 l 2
 143.450044348 1.65023916257 100.213254553 -24 58 -24 c 0
 46.7567544889 -24 36.0842837539 -22.0862136702 26.4368954398 -18.1272493904 c 0
 4.53844772242 -9.1408616269 -9.94273182619 11.182159134 -9.94273182619 34.2567520805 c 0
 -9.94273182619 41.7398276044 -8.41974517028 49.5122861655 -5.13284596293 57.2813206556 c 2
 260.867154037 697.281320656 l 2
305.132845963 678.718679344 m 2
 39.1328459629 38.7186793444 l 2
 36.2252345791 31.8461433462 36.9611215547 29.4384003764 44.6597821216 26.279128541 c 0
 47.7550190413 25.0089472231 52.2329362328 24 58 24 c 0
 81.7867454468 24 108.549955652 42.3497608374 114.867154037 57.2813206556 c 2
 380.867154037 697.281320656 l 2
 383.774765421 704.153856654 383.038878445 706.561599624 375.340217878 709.720871459 c 0
 372.244980959 710.991052777 367.767063767 712 362 712 c 0
 338.213254553 712 311.450044348 693.650239163 305.132845963 678.718679344 c 2
EndSplineSet
EndChar

StartChar: J
Encoding: 74 74 42
Width: 680
Flags: HW
AnchorPoint: "above" 512 784 basechar 0
LayerCount: 2
Back
SplineSet
83.548828125 280 m 1
 57.0390625 216 l 1
 57.0390625 216 l 1
 16.77734375 118.797851562 69.2041015625 40 174.137695312 40 c 0
 279.071289062 40 401.227539062 129.54296875 446.98046875 240 c 2
 632.548828125 688 l 1025
EndSplineSet
Fore
SplineSet
1.89201730667 289.340088384 m 2
 17.5206807912 326.280565711 60.7962514432 352 103 352 c 0
 114.243245511 352 124.915716246 350.08621367 134.56310456 346.12724939 c 0
 156.453559812 337.144141467 170.93925988 316.849289745 170.93925988 293.760211248 c 0
 170.93925988 286.261345029 169.411280478 278.467738414 166.112739863 270.67118787 c 2
 139.120169228 206.688798217 l 2
 132.87407165 191.817137317 130.236090805 178.859234708 130.236090805 167.724765192 c 0
 130.236090805 146.912386353 139.452802901 132.470811104 151.550606712 123.810156949 c 0
 163.001252747 116.34482084 176.520708269 112 194 112 c 0
 210.008779034 112 229.369362794 116.017497127 250.266873708 126.466252584 c 0
 293.205271079 147.93545127 342.444910854 194.572813424 364.81345333 249.152057065 c 2
 550.865373845 697.277112929 l 2
 566.551506766 734.353427107 609.786174357 760 652 760 c 0
 663.243245511 760 673.915716246 758.08621367 683.56310456 754.12724939 c 0
 705.4622616 745.140570545 719.943039237 724.815052706 719.943039237 701.741746482 c 0
 719.943039237 694.260070564 718.420494688 686.489485421 715.134626155 678.722887071 c 2
 529.152108428 230.764994911 l 2
 490.569777286 138.596092738 410.651649478 55.9663166089 312.594932155 7.46514459941 c 0
 262.839053606 -16.8834768183 208.506820374 -32 154 -32 c 0
 102.035082218 -32 58.0176094945 -18.9593140577 24.3744090607 4.24289313803 c 0
 -21.0121624691 35.5439769517 -43.6963570089 83.390708584 -43.6963570089 137.311328799 c 0
 -43.6963570089 165.462231851 -37.5133709474 195.268682706 -25.1499862317 225.240524441 c 2
 1.89201730667 289.340088384 l 2
46.1079826933 270.659911616 m 2
 19.1499862317 206.759475559 l 2
 8.72081039312 181.476625041 3.80297704866 157.962761921 3.80297704866 136.685210904 c 0
 3.80297704866 96.8474575304 21.0422999228 64.8490317009 51.6255909393 43.757106862 c 0
 75.9823905055 26.9593140577 109.964917782 16 154 16 c 0
 199.493179626 16 247.160946394 28.8834768183 291.405067845 50.5348554006 c 0
 379.358542502 94.0387245857 451.416470628 169.371055054 484.861416281 249.267314115 c 2
 670.865373845 697.277112929 l 2
 673.775863732 704.156452662 673.038871423 706.561602505 665.340217878 709.720871459 c 0
 662.244980959 710.991052777 657.767063767 712 652 712 c 0
 628.213825643 712 601.448493234 693.646572893 595.134626155 678.722887071 c 2
 409.18654667 230.847942935 l 2
 381.555089146 163.427186576 324.794728921 110.06454873 271.733126292 83.533747416 c 0
 244.630637206 69.9825028732 217.991220966 64 194 64 c 0
 167.501441357 64 144.063640739 71.1131626369 124.460301779 84.1820552773 c 0
 97.2856855739 103.20428662 82.6219310826 133.366612695 82.6219310826 168.128436775 c 0
 82.6219310826 186.243000334 86.603881205 205.606559957 94.8724294654 225.293579625 c 2
 121.887260137 289.32881213 l 2
 124.762379347 296.124548444 124.038945694 298.561572027 116.340217878 301.720871459 c 0
 113.244980959 302.991052777 108.767063767 304 103 304 c 0
 79.2037485568 304 52.4806318692 285.722536941 46.1079826933 270.659911616 c 2
EndSplineSet
EndChar

StartChar: K
Encoding: 75 75 43
Width: 840
Flags: HW
AnchorPoint: "above" 592 784 basechar 0
LayerCount: 2
Back
SplineSet
587.451171875 48 m 1
 404.837890625 434 l 1025
832.548828125 688 m 1
 146.877929688 282 l 1025
312.548828125 688 m 1
 47.451171875 48 l 1025
EndSplineSet
Fore
SplineSet
624.819252116 57.167475916 m 0
 626.498156001 61.5872468819 626.551222819 65.0120752972 626.479598538 65.3680452871 c 2
 459.305288803 418.736496403 l 2
 457.832881069 421.848831314 457.116298385 425.266146562 457.116298385 428.700946472 c 0
 457.116298385 436.870035472 461.1696164 445.138025678 468.748328017 449.637260807 c 2
 847.700147904 674.608657838 l 2
 859.293579242 681.56471664 867.56413226 690.483600313 871.038510586 697.694482366 c 0
 873.537396787 703.931530437 873.20454958 706.65806507 864.962192866 709.872101371 c 0
 861.886396162 711.071481912 857.53482609 712 852 712 c 0
 841.970221757 712 828.095788979 707.555567137 817.06792487 701.253930503 c 2
 263.227081809 373.348160604 l 2
 257.963104578 370.231582027 250.214691772 369.015340651 243.568892326 371.179425101 c 0
 233.46525119 374.469493187 227.046728019 384.127669484 227.046728019 394.214697127 c 0
 227.046728019 397.223735171 227.617896256 400.270935618 228.832792756 403.198637019 c 2
 350.864525936 697.275108781 l 2
 353.77638686 704.157689147 353.038868079 706.561603878 345.340217878 709.720871459 c 0
 342.244980959 710.991052777 337.767063767 712 332 712 c 0
 308.213254553 712 281.450044348 693.650239163 275.132845963 678.718679344 c 2
 9.13284596293 38.7186793444 l 2
 6.22523457909 31.8461433462 6.96112155466 29.4384003764 14.6597821216 26.279128541 c 0
 17.7550190413 25.0089472231 22.2329362328 24 28 24 c 0
 51.7860665839 24 78.5517994847 42.3541189864 84.8650378966 57.276318869 c 2
 172.833800076 269.201064119 l 2
 174.568116654 273.379190421 178.302504876 278.011435143 182.794568123 280.664642089 c 2
 353.794568123 381.664642089 l 2
 357.103360127 383.618957834 361.225943056 384.646103365 365.496581646 384.646103365 c 0
 374.123854536 384.646103365 383.355335393 380.454372299 387.702650092 371.246705762 c 2
 548.534574097 30.6026928086 l 2
 548.958660659 29.812022947 553.732205385 24 568 24 c 0
 591.535323327 24 617.983867615 41.7053290166 624.819252116 57.167475916 c 0
669.195488196 38.8667428045 m 0
 653.395463013 1.52122873642 610.233350332 -24 568 -24 c 0
 542.229379407 -24 517.115960878 -13.8975532169 505.412808206 9.50875212768 c 2
 355.537433665 326.946657212 l 1
 214.097474047 243.406096268 l 1
 129.134962103 38.723681131 l 2
 113.448200515 1.64588101358 70.2139334161 -24 28 -24 c 0
 16.7567544889 -24 6.08428375391 -22.0862136702 -3.56310456024 -18.1272493904 c 0
 -25.4615522776 -9.1408616269 -39.9427318262 11.182159134 -39.9427318262 34.2567520805 c 0
 -39.9427318262 41.7398276044 -38.4197451703 49.5122861655 -35.1328459629 57.2813206556 c 2
 230.867154037 697.281320656 l 2
 246.549955652 734.349760837 289.786745447 760 332 760 c 0
 343.243245511 760 353.915716246 758.08621367 363.56310456 754.12724939 c 0
 385.462599502 745.140431881 399.943185689 724.813724532 399.943185689 701.741031332 c 0
 399.943185689 694.260022106 398.420851711 686.490329294 395.135474064 678.724891219 c 2
 300.79097308 451.370110161 l 1
 792.93207513 742.746069497 l 2
 809.904211021 752.444432863 830.029778243 760 852 760 c 0
 863.243245511 760 873.915716246 758.08621367 883.56310456 754.12724939 c 0
 905.390531347 745.170006233 919.912099425 725.097412086 919.912099425 701.894910024 c 0
 919.912099425 694.271130532 918.344321562 686.30943985 914.952797906 678.29311121 c 0
 905.899446382 658.677516241 890.610427076 644.377687151 872.299852096 633.391342162 c 2
 512.037388587 419.515209472 l 1
 669.583036809 86.4995578426 l 2
 673.162050146 79.3415311683 674.560371474 71.9141387118 674.560371474 64.7120023219 c 0
 674.560371474 55.3551797676 672.20021343 46.3785558893 669.195488196 38.8667428045 c 0
EndSplineSet
EndChar

StartChar: L
Encoding: 76 76 44
Width: 820
Flags: HW
AnchorPoint: "above" 582 784 basechar 0
LayerCount: 2
Back
SplineSet
312.548828125 688 m 1
 47.451171875 48 l 1
 567.451171875 48 l 1025
EndSplineSet
Fore
SplineSet
230.867154037 697.281320656 m 2
 246.549955652 734.349760837 289.786745447 760 332 760 c 0
 343.243245511 760 353.915716246 758.08621367 363.56310456 754.12724939 c 0
 385.461686446 745.140806569 399.942789971 724.81731348 399.942789971 701.742963903 c 0
 399.942789971 694.260153123 398.419886947 686.488048943 395.133182713 678.719475298 c 2
 162.962589937 120 l 1
 587 120 l 2
 598.357753482 120 609.121148594 118.047527729 618.820499026 113.950733447 c 0
 640.507228886 104.790731287 653.994707382 84.6410180403 653.994707382 62.1193095814 c 0
 653.994707382 54.4571821633 652.433621341 46.5205120562 649.103214026 38.6486402199 c 0
 633.475863202 1.7112655447 590.203748557 -24 548 -24 c 2
 28 -24 l 2
 16.7567544889 -24 6.08428375391 -22.0862136702 -3.56310456024 -18.1272493904 c 0
 -25.4615522776 -9.1408616269 -39.9427318262 11.182159134 -39.9427318262 34.2567520805 c 0
 -39.9427318262 41.7398276044 -38.4197451703 49.5122861655 -35.1328459629 57.2813206556 c 2
 230.867154037 697.281320656 l 2
275.132845963 678.718679344 m 2
 9.13284596293 38.7186793444 l 2
 6.22523457909 31.8461433462 6.96112155466 29.4384003764 14.6597821216 26.279128541 c 0
 17.7550190413 25.0089472231 22.2329362328 24 28 24 c 2
 548 24 l 2
 571.796251443 24 598.524136798 42.2887344553 604.896785974 57.3513597801 c 0
 608.047964371 64.7995996257 606.931335659 66.8663985657 600.143987556 69.7332265142 c 0
 597.219346197 70.9685312988 592.829746518 72 587 72 c 2
 127 72 l 2
 124.815226074 72 121.937327682 72.4068999785 119.557709952 73.1830694692 c 0
 109.459572517 76.4768195917 103.046833252 86.1319690154 103.046833252 96.2147824162 c 0
 103.046833252 99.2276063104 103.61940197 102.278614669 104.837303227 105.209498997 c 2
 350.866817287 697.280524702 l 2
 353.774973183 704.154347727 353.038877117 706.561600169 345.340217878 709.720871459 c 0
 342.244980959 710.991052777 337.767063767 712 332 712 c 0
 308.213254553 712 281.450044348 693.650239163 275.132845963 678.718679344 c 2
EndSplineSet
EndChar

